<svg width="270" height="96" viewBox="0 0 270 96" fill="none" xmlns="http://www.w3.org/2000/svg">
<rect x="0.5" y="24.5" width="269" height="71" rx="15.5" stroke="#4B04A5" stroke-opacity="0.5"/>
<path d="M21.512 55.096C20.744 55.096 20.152 54.872 19.736 54.424C19.32 53.976 19.112 53.336 19.112 52.504V47.624H17.528V46.424H17.928C18.2907 46.424 18.5787 46.3067 18.792 46.072C19.0053 45.8267 19.112 45.5227 19.112 45.16V44.44H20.312V46.424H22.2V47.624H20.312V52.504C20.312 52.792 20.3547 53.048 20.44 53.272C20.5253 53.4853 20.6693 53.656 20.872 53.784C21.0853 53.912 21.368 53.976 21.72 53.976C21.8053 53.976 21.9067 53.9707 22.024 53.96C22.1413 53.9493 22.2427 53.9387 22.328 53.928V55C22.2 55.032 22.056 55.0533 21.896 55.064C21.736 55.0853 21.608 55.096 21.512 55.096ZM24.4351 55V42.888H25.6351V48.088L25.3631 48.024C25.5765 47.4693 25.9231 47.032 26.4031 46.712C26.8938 46.392 27.4591 46.232 28.0991 46.232C28.7071 46.232 29.2511 46.3707 29.7311 46.648C30.2218 46.9253 30.6058 47.3093 30.8831 47.8C31.1711 48.28 31.3151 48.824 31.3151 49.432V55H30.1151V49.896C30.1151 49.3733 30.0191 48.9307 29.8271 48.568C29.6351 48.2053 29.3685 47.928 29.0271 47.736C28.6965 47.5333 28.3178 47.432 27.8911 47.432C27.4645 47.432 27.0805 47.5333 26.7391 47.736C26.3978 47.928 26.1258 48.2107 25.9231 48.584C25.7311 48.9467 25.6351 49.384 25.6351 49.896V55H24.4351ZM33.607 55V46.424H34.807V55H33.607ZM33.607 44.84V43.08H34.807V44.84H33.607ZM40.2393 55.192C39.4179 55.192 38.6979 54.984 38.0793 54.568C37.4606 54.152 37.0126 53.5867 36.7353 52.872L37.7433 52.392C37.9886 52.9147 38.3299 53.3307 38.7673 53.64C39.2153 53.9493 39.7059 54.104 40.2393 54.104C40.7513 54.104 41.1833 53.9813 41.5353 53.736C41.8873 53.48 42.0633 53.1493 42.0633 52.744C42.0633 52.4453 41.9779 52.2107 41.8073 52.04C41.6366 51.8587 41.4393 51.72 41.2153 51.624C40.9913 51.528 40.7939 51.4587 40.6233 51.416L39.3913 51.064C38.6019 50.84 38.0313 50.5253 37.6793 50.12C37.3273 49.7147 37.1513 49.2453 37.1513 48.712C37.1513 48.2107 37.2793 47.7733 37.5353 47.4C37.7913 47.0267 38.1379 46.7387 38.5753 46.536C39.0126 46.3333 39.4979 46.232 40.0312 46.232C40.7566 46.232 41.4126 46.424 41.9993 46.808C42.5966 47.1813 43.0179 47.704 43.2633 48.376L42.2393 48.856C42.0259 48.376 41.7166 48.0027 41.3113 47.736C40.9166 47.4587 40.4739 47.32 39.9833 47.32C39.5033 47.32 39.1193 47.4427 38.8313 47.688C38.5433 47.9333 38.3993 48.2427 38.3993 48.616C38.3993 48.904 38.4739 49.1333 38.6233 49.304C38.7726 49.4747 38.9433 49.6027 39.1353 49.688C39.3379 49.7733 39.5139 49.8373 39.6633 49.88L41.0873 50.296C41.7806 50.4987 42.3193 50.8133 42.7033 51.24C43.0979 51.6667 43.2953 52.168 43.2953 52.744C43.2953 53.2133 43.1619 53.6347 42.8953 54.008C42.6393 54.3813 42.2819 54.6747 41.8233 54.888C41.3646 55.0907 40.8366 55.192 40.2393 55.192ZM52.0266 55.192C51.2266 55.192 50.5013 55 49.8506 54.616C49.2106 54.2213 48.704 53.6827 48.3306 53C47.9573 52.3173 47.7706 51.544 47.7706 50.68C47.7706 49.816 47.952 49.0533 48.3146 48.392C48.6773 47.72 49.168 47.192 49.7866 46.808C50.416 46.424 51.12 46.232 51.8986 46.232C52.5173 46.232 53.0666 46.3493 53.5466 46.584C54.0373 46.808 54.4533 47.1173 54.7946 47.512C55.136 47.896 55.3973 48.3333 55.5786 48.824C55.76 49.304 55.8506 49.8 55.8506 50.312C55.8506 50.4187 55.8453 50.5413 55.8346 50.68C55.824 50.808 55.808 50.9413 55.7866 51.08H48.5386V49.96H55.0986L54.5226 50.44C54.6186 49.8533 54.5493 49.3307 54.3146 48.872C54.0906 48.4027 53.7653 48.0347 53.3386 47.768C52.912 47.4907 52.432 47.352 51.8986 47.352C51.3653 47.352 50.8693 47.4907 50.4106 47.768C49.9626 48.0453 49.6106 48.4347 49.3546 48.936C49.0986 49.4267 48.9973 50.0133 49.0506 50.696C48.9973 51.3787 49.104 51.976 49.3706 52.488C49.648 52.9893 50.0213 53.3787 50.4906 53.656C50.9706 53.9333 51.4826 54.072 52.0266 54.072C52.656 54.072 53.184 53.9227 53.6106 53.624C54.0373 53.3253 54.384 52.952 54.6506 52.504L55.6746 53.048C55.504 53.432 55.2426 53.7893 54.8906 54.12C54.5386 54.44 54.1173 54.7013 53.6266 54.904C53.1466 55.096 52.6133 55.192 52.0266 55.192ZM57.9664 55V46.424H59.1664V48.088L58.8944 48.024C59.1077 47.4693 59.4544 47.032 59.9344 46.712C60.425 46.392 60.9904 46.232 61.6304 46.232C62.2384 46.232 62.7824 46.3707 63.2624 46.648C63.753 46.9253 64.137 47.3093 64.4144 47.8C64.7024 48.28 64.8464 48.824 64.8464 49.432V55H63.6464V49.896C63.6464 49.3733 63.5504 48.9307 63.3584 48.568C63.177 48.2053 62.9157 47.928 62.5744 47.736C62.2437 47.5333 61.8597 47.432 61.4224 47.432C60.985 47.432 60.5957 47.5333 60.2544 47.736C59.913 47.928 59.6464 48.2107 59.4544 48.584C59.2624 48.9467 59.1664 49.384 59.1664 49.896V55H57.9664ZM70.4183 55.096C69.6503 55.096 69.0583 54.872 68.6423 54.424C68.2263 53.976 68.0182 53.336 68.0182 52.504V47.624H66.4342V46.424H66.8343C67.1969 46.424 67.4849 46.3067 67.6983 46.072C67.9116 45.8267 68.0182 45.5227 68.0182 45.16V44.44H69.2183V46.424H71.1063V47.624H69.2183V52.504C69.2183 52.792 69.2609 53.048 69.3463 53.272C69.4316 53.4853 69.5756 53.656 69.7783 53.784C69.9916 53.912 70.2743 53.976 70.6263 53.976C70.7116 53.976 70.8129 53.9707 70.9303 53.96C71.0476 53.9493 71.1489 53.9387 71.2343 53.928V55C71.1063 55.032 70.9623 55.0533 70.8023 55.064C70.6423 55.0853 70.5143 55.096 70.4183 55.096ZM73.3414 55V46.424H74.5414V55H73.3414ZM73.3414 44.84V43.08H74.5414V44.84H73.3414ZM76.9976 55V46.424H78.1976V47.832L78.0376 47.624C78.2403 47.2187 78.5443 46.8987 78.9496 46.664C79.3656 46.4293 79.867 46.312 80.4536 46.312H80.9976V47.512H80.2456C79.627 47.512 79.131 47.704 78.7576 48.088C78.3843 48.472 78.1976 49.016 78.1976 49.72V55H76.9976ZM86.3079 55.192C85.5079 55.192 84.7825 55 84.1319 54.616C83.4919 54.2213 82.9852 53.6827 82.6119 53C82.2385 52.3173 82.0519 51.544 82.0519 50.68C82.0519 49.816 82.2332 49.0533 82.5959 48.392C82.9585 47.72 83.4492 47.192 84.0679 46.808C84.6972 46.424 85.4012 46.232 86.1799 46.232C86.7985 46.232 87.3479 46.3493 87.8279 46.584C88.3185 46.808 88.7345 47.1173 89.0759 47.512C89.4172 47.896 89.6785 48.3333 89.8599 48.824C90.0412 49.304 90.1319 49.8 90.1319 50.312C90.1319 50.4187 90.1265 50.5413 90.1159 50.68C90.1052 50.808 90.0892 50.9413 90.0679 51.08H82.8199V49.96H89.3799L88.8039 50.44C88.8999 49.8533 88.8305 49.3307 88.5959 48.872C88.3719 48.4027 88.0465 48.0347 87.6199 47.768C87.1932 47.4907 86.7132 47.352 86.1799 47.352C85.6465 47.352 85.1505 47.4907 84.6919 47.768C84.2439 48.0453 83.8919 48.4347 83.6359 48.936C83.3799 49.4267 83.2785 50.0133 83.3319 50.696C83.2785 51.3787 83.3852 51.976 83.6519 52.488C83.9292 52.9893 84.3025 53.3787 84.7719 53.656C85.2519 53.9333 85.7639 54.072 86.3079 54.072C86.9372 54.072 87.4652 53.9227 87.8919 53.624C88.3185 53.3253 88.6652 52.952 88.9319 52.504L89.9559 53.048C89.7852 53.432 89.5239 53.7893 89.1719 54.12C88.8199 54.44 88.3985 54.7013 87.9079 54.904C87.4279 55.096 86.8945 55.192 86.3079 55.192ZM94.9664 58.2V46.424H96.1664V48.344L95.9744 48.008C96.3157 47.464 96.769 47.032 97.3344 46.712C97.9104 46.392 98.5664 46.232 99.3024 46.232C100.113 46.232 100.833 46.4293 101.462 46.824C102.102 47.208 102.604 47.736 102.966 48.408C103.34 49.08 103.526 49.848 103.526 50.712C103.526 51.5653 103.34 52.3333 102.966 53.016C102.604 53.688 102.102 54.2213 101.462 54.616C100.833 55 100.113 55.192 99.3024 55.192C98.5664 55.192 97.8997 55.0267 97.3024 54.696C96.7157 54.3547 96.273 53.8747 95.9744 53.256L96.1664 53.08V58.2H94.9664ZM99.2384 53.992C99.8144 53.992 100.326 53.848 100.774 53.56C101.233 53.272 101.59 52.8827 101.846 52.392C102.113 51.8907 102.246 51.3307 102.246 50.712C102.246 50.0827 102.113 49.5227 101.846 49.032C101.59 48.5413 101.233 48.152 100.774 47.864C100.326 47.576 99.8144 47.432 99.2384 47.432C98.6624 47.432 98.1397 47.576 97.6704 47.864C97.2117 48.152 96.8437 48.5467 96.5664 49.048C96.2997 49.5387 96.1664 50.0933 96.1664 50.712C96.1664 51.3307 96.2997 51.8907 96.5664 52.392C96.8437 52.8827 97.2117 53.272 97.6704 53.56C98.1397 53.848 98.6624 53.992 99.2384 53.992ZM105.638 55V46.424H106.838V47.832L106.678 47.624C106.881 47.2187 107.185 46.8987 107.59 46.664C108.006 46.4293 108.508 46.312 109.094 46.312H109.638V47.512H108.886C108.268 47.512 107.772 47.704 107.398 48.088C107.025 48.472 106.838 49.016 106.838 49.72V55H105.638ZM115.061 55.192C114.25 55.192 113.514 55 112.853 54.616C112.191 54.2213 111.663 53.688 111.269 53.016C110.885 52.3333 110.693 51.56 110.693 50.696C110.693 49.8427 110.885 49.08 111.269 48.408C111.653 47.736 112.17 47.208 112.821 46.824C113.482 46.4293 114.229 46.232 115.061 46.232C115.893 46.232 116.634 46.424 117.285 46.808C117.946 47.192 118.463 47.72 118.837 48.392C119.221 49.064 119.413 49.832 119.413 50.696C119.413 51.5707 119.215 52.3493 118.821 53.032C118.426 53.704 117.898 54.232 117.237 54.616C116.586 55 115.861 55.192 115.061 55.192ZM115.061 53.992C115.637 53.992 116.154 53.848 116.613 53.56C117.082 53.272 117.45 52.8773 117.717 52.376C117.994 51.8747 118.133 51.3147 118.133 50.696C118.133 50.0773 117.994 49.5227 117.717 49.032C117.45 48.5413 117.082 48.152 116.613 47.864C116.154 47.576 115.637 47.432 115.061 47.432C114.485 47.432 113.962 47.576 113.493 47.864C113.034 48.152 112.666 48.5413 112.389 49.032C112.111 49.5227 111.973 50.0773 111.973 50.696C111.973 51.3147 112.111 51.8747 112.389 52.376C112.666 52.8773 113.034 53.272 113.493 53.56C113.962 53.848 114.485 53.992 115.061 53.992ZM125.449 55.192C124.606 55.192 123.865 54.9947 123.225 54.6C122.585 54.2053 122.084 53.672 121.721 53C121.358 52.3173 121.177 51.5493 121.177 50.696C121.177 49.8427 121.358 49.08 121.721 48.408C122.084 47.736 122.585 47.208 123.225 46.824C123.865 46.4293 124.606 46.232 125.449 46.232C125.982 46.232 126.484 46.328 126.953 46.52C127.422 46.712 127.838 46.9733 128.201 47.304C128.564 47.624 128.836 47.9973 129.017 48.424L127.929 48.984C127.716 48.5253 127.39 48.152 126.953 47.864C126.516 47.576 126.014 47.432 125.449 47.432C124.884 47.432 124.372 47.576 123.913 47.864C123.465 48.1413 123.108 48.5307 122.841 49.032C122.585 49.5227 122.457 50.0827 122.457 50.712C122.457 51.3307 122.585 51.8907 122.841 52.392C123.108 52.8827 123.465 53.272 123.913 53.56C124.372 53.848 124.884 53.992 125.449 53.992C126.014 53.992 126.51 53.848 126.937 53.56C127.374 53.272 127.705 52.888 127.929 52.408L129.017 53C128.836 53.416 128.564 53.7893 128.201 54.12C127.838 54.4507 127.422 54.712 126.953 54.904C126.484 55.096 125.982 55.192 125.449 55.192ZM135.027 55.192C134.227 55.192 133.501 55 132.851 54.616C132.211 54.2213 131.704 53.6827 131.331 53C130.957 52.3173 130.771 51.544 130.771 50.68C130.771 49.816 130.952 49.0533 131.315 48.392C131.677 47.72 132.168 47.192 132.787 46.808C133.416 46.424 134.12 46.232 134.899 46.232C135.517 46.232 136.067 46.3493 136.547 46.584C137.037 46.808 137.453 47.1173 137.795 47.512C138.136 47.896 138.397 48.3333 138.579 48.824C138.76 49.304 138.851 49.8 138.851 50.312C138.851 50.4187 138.845 50.5413 138.835 50.68C138.824 50.808 138.808 50.9413 138.787 51.08H131.539V49.96H138.099L137.523 50.44C137.619 49.8533 137.549 49.3307 137.315 48.872C137.091 48.4027 136.765 48.0347 136.339 47.768C135.912 47.4907 135.432 47.352 134.899 47.352C134.365 47.352 133.869 47.4907 133.411 47.768C132.963 48.0453 132.611 48.4347 132.355 48.936C132.099 49.4267 131.997 50.0133 132.051 50.696C131.997 51.3787 132.104 51.976 132.371 52.488C132.648 52.9893 133.021 53.3787 133.491 53.656C133.971 53.9333 134.483 54.072 135.027 54.072C135.656 54.072 136.184 53.9227 136.611 53.624C137.037 53.3253 137.384 52.952 137.651 52.504L138.675 53.048C138.504 53.432 138.243 53.7893 137.891 54.12C137.539 54.44 137.117 54.7013 136.627 54.904C136.147 55.096 135.613 55.192 135.027 55.192ZM143.942 55.192C143.121 55.192 142.401 54.984 141.782 54.568C141.164 54.152 140.716 53.5867 140.438 52.872L141.446 52.392C141.692 52.9147 142.033 53.3307 142.47 53.64C142.918 53.9493 143.409 54.104 143.942 54.104C144.454 54.104 144.886 53.9813 145.238 53.736C145.59 53.48 145.766 53.1493 145.766 52.744C145.766 52.4453 145.681 52.2107 145.51 52.04C145.34 51.8587 145.142 51.72 144.918 51.624C144.694 51.528 144.497 51.4587 144.326 51.416L143.094 51.064C142.305 50.84 141.734 50.5253 141.382 50.12C141.03 49.7147 140.854 49.2453 140.854 48.712C140.854 48.2107 140.982 47.7733 141.238 47.4C141.494 47.0267 141.841 46.7387 142.278 46.536C142.716 46.3333 143.201 46.232 143.734 46.232C144.46 46.232 145.116 46.424 145.702 46.808C146.3 47.1813 146.721 47.704 146.966 48.376L145.942 48.856C145.729 48.376 145.42 48.0027 145.014 47.736C144.62 47.4587 144.177 47.32 143.686 47.32C143.206 47.32 142.822 47.4427 142.534 47.688C142.246 47.9333 142.102 48.2427 142.102 48.616C142.102 48.904 142.177 49.1333 142.326 49.304C142.476 49.4747 142.646 49.6027 142.838 49.688C143.041 49.7733 143.217 49.8373 143.366 49.88L144.79 50.296C145.484 50.4987 146.022 50.8133 146.406 51.24C146.801 51.6667 146.998 52.168 146.998 52.744C146.998 53.2133 146.865 53.6347 146.598 54.008C146.342 54.3813 145.985 54.6747 145.526 54.888C145.068 55.0907 144.54 55.192 143.942 55.192ZM152.083 55.192C151.262 55.192 150.542 54.984 149.923 54.568C149.304 54.152 148.856 53.5867 148.579 52.872L149.587 52.392C149.832 52.9147 150.174 53.3307 150.611 53.64C151.059 53.9493 151.55 54.104 152.083 54.104C152.595 54.104 153.027 53.9813 153.379 53.736C153.731 53.48 153.907 53.1493 153.907 52.744C153.907 52.4453 153.822 52.2107 153.651 52.04C153.48 51.8587 153.283 51.72 153.059 51.624C152.835 51.528 152.638 51.4587 152.467 51.416L151.235 51.064C150.446 50.84 149.875 50.5253 149.523 50.12C149.171 49.7147 148.995 49.2453 148.995 48.712C148.995 48.2107 149.123 47.7733 149.379 47.4C149.635 47.0267 149.982 46.7387 150.419 46.536C150.856 46.3333 151.342 46.232 151.875 46.232C152.6 46.232 153.256 46.424 153.843 46.808C154.44 47.1813 154.862 47.704 155.107 48.376L154.083 48.856C153.87 48.376 153.56 48.0027 153.155 47.736C152.76 47.4587 152.318 47.32 151.827 47.32C151.347 47.32 150.963 47.4427 150.675 47.688C150.387 47.9333 150.243 48.2427 150.243 48.616C150.243 48.904 150.318 49.1333 150.467 49.304C150.616 49.4747 150.787 49.6027 150.979 49.688C151.182 49.7733 151.358 49.8373 151.507 49.88L152.931 50.296C153.624 50.4987 154.163 50.8133 154.547 51.24C154.942 51.6667 155.139 52.168 155.139 52.744C155.139 53.2133 155.006 53.6347 154.739 54.008C154.483 54.3813 154.126 54.6747 153.667 54.888C153.208 55.0907 152.68 55.192 152.083 55.192ZM159.966 55V42.888H161.166V55H159.966ZM167.639 55.192C166.828 55.192 166.092 55 165.431 54.616C164.769 54.2213 164.241 53.688 163.847 53.016C163.463 52.3333 163.271 51.56 163.271 50.696C163.271 49.8427 163.463 49.08 163.847 48.408C164.231 47.736 164.748 47.208 165.399 46.824C166.06 46.4293 166.807 46.232 167.639 46.232C168.471 46.232 169.212 46.424 169.863 46.808C170.524 47.192 171.041 47.72 171.415 48.392C171.799 49.064 171.991 49.832 171.991 50.696C171.991 51.5707 171.793 52.3493 171.399 53.032C171.004 53.704 170.476 54.232 169.815 54.616C169.164 55 168.439 55.192 167.639 55.192ZM167.639 53.992C168.215 53.992 168.732 53.848 169.191 53.56C169.66 53.272 170.028 52.8773 170.295 52.376C170.572 51.8747 170.711 51.3147 170.711 50.696C170.711 50.0773 170.572 49.5227 170.295 49.032C170.028 48.5413 169.66 48.152 169.191 47.864C168.732 47.576 168.215 47.432 167.639 47.432C167.063 47.432 166.54 47.576 166.071 47.864C165.612 48.152 165.244 48.5413 164.967 49.032C164.689 49.5227 164.551 50.0773 164.551 50.696C164.551 51.3147 164.689 51.8747 164.967 52.376C165.244 52.8773 165.612 53.272 166.071 53.56C166.54 53.848 167.063 53.992 167.639 53.992ZM178.123 55.192C177.312 55.192 176.576 55 175.915 54.616C175.254 54.2213 174.726 53.688 174.331 53.016C173.947 52.3333 173.755 51.56 173.755 50.696C173.755 49.8427 173.947 49.08 174.331 48.408C174.715 47.736 175.232 47.208 175.883 46.824C176.544 46.4293 177.291 46.232 178.123 46.232C178.955 46.232 179.696 46.424 180.347 46.808C181.008 47.192 181.526 47.72 181.899 48.392C182.283 49.064 182.475 49.832 182.475 50.696C182.475 51.5707 182.278 52.3493 181.883 53.032C181.488 53.704 180.96 54.232 180.299 54.616C179.648 55 178.923 55.192 178.123 55.192ZM178.123 53.992C178.699 53.992 179.216 53.848 179.675 53.56C180.144 53.272 180.512 52.8773 180.779 52.376C181.056 51.8747 181.195 51.3147 181.195 50.696C181.195 50.0773 181.056 49.5227 180.779 49.032C180.512 48.5413 180.144 48.152 179.675 47.864C179.216 47.576 178.699 47.432 178.123 47.432C177.547 47.432 177.024 47.576 176.555 47.864C176.096 48.152 175.728 48.5413 175.451 49.032C175.174 49.5227 175.035 50.0773 175.035 50.696C175.035 51.3147 175.174 51.8747 175.451 52.376C175.728 52.8773 176.096 53.272 176.555 53.56C177.024 53.848 177.547 53.992 178.123 53.992ZM184.591 55V42.888H185.791V51.368L185.279 51.288L190.095 46.424H191.647L188.287 49.864L191.951 55H190.511L187.071 50.248L187.839 50.312L185.391 52.84L185.791 51.848V55H184.591ZM196.333 55.192C195.512 55.192 194.792 54.984 194.173 54.568C193.554 54.152 193.106 53.5867 192.829 52.872L193.837 52.392C194.082 52.9147 194.424 53.3307 194.861 53.64C195.309 53.9493 195.8 54.104 196.333 54.104C196.845 54.104 197.277 53.9813 197.629 53.736C197.981 53.48 198.157 53.1493 198.157 52.744C198.157 52.4453 198.072 52.2107 197.901 52.04C197.73 51.8587 197.533 51.72 197.309 51.624C197.085 51.528 196.888 51.4587 196.717 51.416L195.485 51.064C194.696 50.84 194.125 50.5253 193.773 50.12C193.421 49.7147 193.245 49.2453 193.245 48.712C193.245 48.2107 193.373 47.7733 193.629 47.4C193.885 47.0267 194.232 46.7387 194.669 46.536C195.106 46.3333 195.592 46.232 196.125 46.232C196.85 46.232 197.506 46.424 198.093 46.808C198.69 47.1813 199.112 47.704 199.357 48.376L198.333 48.856C198.12 48.376 197.81 48.0027 197.405 47.736C197.01 47.4587 196.568 47.32 196.077 47.32C195.597 47.32 195.213 47.4427 194.925 47.688C194.637 47.9333 194.493 48.2427 194.493 48.616C194.493 48.904 194.568 49.1333 194.717 49.304C194.866 49.4747 195.037 49.6027 195.229 49.688C195.432 49.7733 195.608 49.8373 195.757 49.88L197.181 50.296C197.874 50.4987 198.413 50.8133 198.797 51.24C199.192 51.6667 199.389 52.168 199.389 52.744C199.389 53.2133 199.256 53.6347 198.989 54.008C198.733 54.3813 198.376 54.6747 197.917 54.888C197.458 55.0907 196.93 55.192 196.333 55.192ZM204.216 55V42.888H205.416V55H204.216ZM207.873 55V46.424H209.073V55H207.873ZM207.873 44.84V43.08H209.073V44.84H207.873ZM211.529 55V42.888H212.729V51.368L212.217 51.288L217.033 46.424H218.585L215.225 49.864L218.889 55H217.449L214.009 50.248L214.777 50.312L212.329 52.84L212.729 51.848V55H211.529ZM224.042 55.192C223.242 55.192 222.517 55 221.866 54.616C221.226 54.2213 220.72 53.6827 220.346 53C219.973 52.3173 219.786 51.544 219.786 50.68C219.786 49.816 219.968 49.0533 220.33 48.392C220.693 47.72 221.184 47.192 221.802 46.808C222.432 46.424 223.136 46.232 223.914 46.232C224.533 46.232 225.082 46.3493 225.562 46.584C226.053 46.808 226.469 47.1173 226.81 47.512C227.152 47.896 227.413 48.3333 227.594 48.824C227.776 49.304 227.866 49.8 227.866 50.312C227.866 50.4187 227.861 50.5413 227.85 50.68C227.84 50.808 227.824 50.9413 227.802 51.08H220.554V49.96H227.114L226.538 50.44C226.634 49.8533 226.565 49.3307 226.33 48.872C226.106 48.4027 225.781 48.0347 225.354 47.768C224.928 47.4907 224.448 47.352 223.914 47.352C223.381 47.352 222.885 47.4907 222.426 47.768C221.978 48.0453 221.626 48.4347 221.37 48.936C221.114 49.4267 221.013 50.0133 221.066 50.696C221.013 51.3787 221.12 51.976 221.386 52.488C221.664 52.9893 222.037 53.3787 222.506 53.656C222.986 53.9333 223.498 54.072 224.042 54.072C224.672 54.072 225.2 53.9227 225.626 53.624C226.053 53.3253 226.4 52.952 226.666 52.504L227.69 53.048C227.52 53.432 227.258 53.7893 226.906 54.12C226.554 54.44 226.133 54.7013 225.642 54.904C225.162 55.096 224.629 55.192 224.042 55.192ZM235.181 55.192C234.637 55.192 234.151 55.0907 233.725 54.888C233.298 54.6747 232.962 54.3867 232.717 54.024C232.471 53.6613 232.349 53.2453 232.349 52.776C232.349 52.328 232.445 51.9227 232.637 51.56C232.829 51.1867 233.127 50.872 233.533 50.616C233.938 50.36 234.455 50.1787 235.085 50.072L238.445 49.512V50.6L235.373 51.112C234.754 51.2187 234.306 51.416 234.029 51.704C233.762 51.992 233.629 52.3333 233.629 52.728C233.629 53.112 233.778 53.4373 234.077 53.704C234.386 53.9707 234.781 54.104 235.261 54.104C235.847 54.104 236.359 53.9813 236.797 53.736C237.234 53.48 237.575 53.1387 237.821 52.712C238.066 52.2853 238.189 51.8107 238.189 51.288V49.112C238.189 48.6 238.002 48.184 237.629 47.864C237.255 47.544 236.77 47.384 236.173 47.384C235.65 47.384 235.191 47.5173 234.797 47.784C234.402 48.04 234.109 48.376 233.917 48.792L232.829 48.2C232.989 47.8373 233.239 47.5067 233.581 47.208C233.933 46.9093 234.333 46.6747 234.781 46.504C235.229 46.3227 235.693 46.232 236.173 46.232C236.802 46.232 237.357 46.3547 237.837 46.6C238.327 46.8453 238.706 47.1867 238.973 47.624C239.25 48.0507 239.389 48.5467 239.389 49.112V55H238.189V53.288L238.365 53.464C238.215 53.784 237.981 54.0773 237.661 54.344C237.351 54.6 236.983 54.808 236.557 54.968C236.141 55.1173 235.682 55.192 235.181 55.192ZM22.152 79.192C21.3093 79.192 20.568 78.9947 19.928 78.6C19.288 78.2053 18.7867 77.672 18.424 77C18.0613 76.3173 17.88 75.5493 17.88 74.696C17.88 73.8427 18.0613 73.08 18.424 72.408C18.7867 71.736 19.288 71.208 19.928 70.824C20.568 70.4293 21.3093 70.232 22.152 70.232C22.6853 70.232 23.1867 70.328 23.656 70.52C24.1253 70.712 24.5413 70.9733 24.904 71.304C25.2667 71.624 25.5387 71.9973 25.72 72.424L24.632 72.984C24.4187 72.5253 24.0933 72.152 23.656 71.864C23.2187 71.576 22.7173 71.432 22.152 71.432C21.5867 71.432 21.0747 71.576 20.616 71.864C20.168 72.1413 19.8107 72.5307 19.544 73.032C19.288 73.5227 19.16 74.0827 19.16 74.712C19.16 75.3307 19.288 75.8907 19.544 76.392C19.8107 76.8827 20.168 77.272 20.616 77.56C21.0747 77.848 21.5867 77.992 22.152 77.992C22.7173 77.992 23.2133 77.848 23.64 77.56C24.0773 77.272 24.408 76.888 24.632 76.408L25.72 77C25.5387 77.416 25.2667 77.7893 24.904 78.12C24.5413 78.4507 24.1253 78.712 23.656 78.904C23.1867 79.096 22.6853 79.192 22.152 79.192ZM30.1495 79.192C29.6055 79.192 29.1202 79.0907 28.6935 78.888C28.2668 78.6747 27.9308 78.3867 27.6855 78.024C27.4402 77.6613 27.3175 77.2453 27.3175 76.776C27.3175 76.328 27.4135 75.9227 27.6055 75.56C27.7975 75.1867 28.0962 74.872 28.5015 74.616C28.9068 74.36 29.4242 74.1787 30.0535 74.072L33.4135 73.512V74.6L30.3415 75.112C29.7228 75.2187 29.2748 75.416 28.9975 75.704C28.7308 75.992 28.5975 76.3333 28.5975 76.728C28.5975 77.112 28.7468 77.4373 29.0455 77.704C29.3548 77.9707 29.7495 78.104 30.2295 78.104C30.8162 78.104 31.3282 77.9813 31.7655 77.736C32.2028 77.48 32.5442 77.1387 32.7895 76.712C33.0348 76.2853 33.1575 75.8107 33.1575 75.288V73.112C33.1575 72.6 32.9708 72.184 32.5975 71.864C32.2242 71.544 31.7388 71.384 31.1415 71.384C30.6188 71.384 30.1602 71.5173 29.7655 71.784C29.3708 72.04 29.0775 72.376 28.8855 72.792L27.7975 72.2C27.9575 71.8373 28.2082 71.5067 28.5495 71.208C28.9015 70.9093 29.3015 70.6747 29.7495 70.504C30.1975 70.3227 30.6615 70.232 31.1415 70.232C31.7708 70.232 32.3255 70.3547 32.8055 70.6C33.2962 70.8453 33.6748 71.1867 33.9415 71.624C34.2188 72.0507 34.3575 72.5467 34.3575 73.112V79H33.1575V77.288L33.3335 77.464C33.1842 77.784 32.9495 78.0773 32.6295 78.344C32.3202 78.6 31.9522 78.808 31.5255 78.968C31.1095 79.1173 30.6508 79.192 30.1495 79.192ZM36.8258 79V70.424H38.0258V72.088L37.7538 72.024C37.9671 71.4693 38.3138 71.032 38.7938 70.712C39.2844 70.392 39.8498 70.232 40.4898 70.232C41.0978 70.232 41.6418 70.3707 42.1218 70.648C42.6124 70.9253 42.9964 71.3093 43.2738 71.8C43.5618 72.28 43.7058 72.824 43.7058 73.432V79H42.5058V73.896C42.5058 73.3733 42.4098 72.9307 42.2178 72.568C42.0364 72.2053 41.7751 71.928 41.4338 71.736C41.1031 71.5333 40.7191 71.432 40.2818 71.432C39.8444 71.432 39.4551 71.5333 39.1138 71.736C38.7724 71.928 38.5058 72.2107 38.3138 72.584C38.1218 72.9467 38.0258 73.384 38.0258 73.896V79H36.8258ZM49.8696 79.192C49.0696 79.192 48.3496 79 47.7096 78.616C47.0696 78.2213 46.563 77.688 46.1896 77.016C45.827 76.3333 45.6456 75.5653 45.6456 74.712C45.6456 73.848 45.827 73.08 46.1896 72.408C46.563 71.736 47.0643 71.208 47.6936 70.824C48.3336 70.4293 49.059 70.232 49.8696 70.232C50.6056 70.232 51.2616 70.392 51.8376 70.712C52.4136 71.032 52.867 71.464 53.1976 72.008L53.0056 72.344V66.888H54.2056V79H53.0056V77.08L53.1976 77.256C52.899 77.8747 52.451 78.3547 51.8536 78.696C51.267 79.0267 50.6056 79.192 49.8696 79.192ZM49.9336 77.992C50.5096 77.992 51.027 77.848 51.4856 77.56C51.955 77.272 52.323 76.8827 52.5896 76.392C52.867 75.8907 53.0056 75.3307 53.0056 74.712C53.0056 74.0933 52.867 73.5387 52.5896 73.048C52.323 72.5467 51.955 72.152 51.4856 71.864C51.027 71.576 50.5096 71.432 49.9336 71.432C49.3683 71.432 48.8563 71.576 48.3976 71.864C47.939 72.152 47.5763 72.5413 47.3096 73.032C47.0536 73.5227 46.9256 74.0827 46.9256 74.712C46.9256 75.3307 47.0536 75.8907 47.3096 76.392C47.5763 76.8827 47.9336 77.272 48.3816 77.56C48.8403 77.848 49.3576 77.992 49.9336 77.992ZM56.8455 82.52C56.6748 82.52 56.4988 82.504 56.3175 82.472C56.1468 82.4507 55.9762 82.408 55.8055 82.344V81.224C55.9122 81.2347 56.0455 81.2507 56.2055 81.272C56.3762 81.304 56.5468 81.32 56.7175 81.32C57.2402 81.32 57.6402 81.208 57.9175 80.984C58.1948 80.7707 58.4668 80.3547 58.7335 79.736L59.2775 78.456L59.2455 79.512L55.6135 70.424H56.9095L59.8855 77.928H59.5495L62.5095 70.424H63.8375L59.9175 80.088C59.7468 80.504 59.5282 80.8987 59.2615 81.272C59.0055 81.6453 58.6802 81.944 58.2855 82.168C57.8908 82.4027 57.4108 82.52 56.8455 82.52ZM71.8864 79.192C71.0437 79.192 70.3024 78.9947 69.6624 78.6C69.0224 78.2053 68.521 77.672 68.1584 77C67.7957 76.3173 67.6144 75.5493 67.6144 74.696C67.6144 73.8427 67.7957 73.08 68.1584 72.408C68.521 71.736 69.0224 71.208 69.6624 70.824C70.3024 70.4293 71.0437 70.232 71.8864 70.232C72.4197 70.232 72.921 70.328 73.3904 70.52C73.8597 70.712 74.2757 70.9733 74.6384 71.304C75.001 71.624 75.273 71.9973 75.4544 72.424L74.3664 72.984C74.153 72.5253 73.8277 72.152 73.3904 71.864C72.953 71.576 72.4517 71.432 71.8864 71.432C71.321 71.432 70.809 71.576 70.3504 71.864C69.9024 72.1413 69.545 72.5307 69.2784 73.032C69.0224 73.5227 68.8944 74.0827 68.8944 74.712C68.8944 75.3307 69.0224 75.8907 69.2784 76.392C69.545 76.8827 69.9024 77.272 70.3504 77.56C70.809 77.848 71.321 77.992 71.8864 77.992C72.4517 77.992 72.9477 77.848 73.3744 77.56C73.8117 77.272 74.1424 76.888 74.3664 76.408L75.4544 77C75.273 77.416 75.001 77.7893 74.6384 78.12C74.2757 78.4507 73.8597 78.712 73.3904 78.904C72.921 79.096 72.4197 79.192 71.8864 79.192ZM77.5601 79V70.424H78.7601V71.832L78.6001 71.624C78.8028 71.2187 79.1068 70.8987 79.5121 70.664C79.9281 70.4293 80.4295 70.312 81.0161 70.312H81.5601V71.512H80.8081C80.1895 71.512 79.6935 71.704 79.3201 72.088C78.9468 72.472 78.7601 73.016 78.7601 73.72V79H77.5601ZM86.0064 79.192C85.409 79.192 84.865 79.0533 84.3744 78.776C83.8837 78.488 83.4944 78.0933 83.2064 77.592C82.929 77.08 82.7904 76.4933 82.7904 75.832V70.424H83.9904V75.688C83.9904 76.1467 84.081 76.552 84.2624 76.904C84.4544 77.2453 84.7157 77.512 85.0464 77.704C85.3877 77.896 85.777 77.992 86.2144 77.992C86.6517 77.992 87.041 77.896 87.3824 77.704C87.7237 77.5013 87.9904 77.2187 88.1824 76.856C88.3744 76.4827 88.4704 76.04 88.4704 75.528V70.424H89.6704V79H88.4704V77.336L88.7424 77.4C88.5397 77.9547 88.193 78.392 87.7024 78.712C87.2117 79.032 86.6464 79.192 86.0064 79.192ZM95.1143 79.192C94.2929 79.192 93.5729 78.984 92.9543 78.568C92.3356 78.152 91.8876 77.5867 91.6103 76.872L92.6183 76.392C92.8636 76.9147 93.2049 77.3307 93.6423 77.64C94.0903 77.9493 94.5809 78.104 95.1143 78.104C95.6263 78.104 96.0583 77.9813 96.4103 77.736C96.7623 77.48 96.9383 77.1493 96.9383 76.744C96.9383 76.4453 96.8529 76.2107 96.6823 76.04C96.5116 75.8587 96.3143 75.72 96.0903 75.624C95.8663 75.528 95.6689 75.4587 95.4983 75.416L94.2663 75.064C93.4769 74.84 92.9063 74.5253 92.5543 74.12C92.2023 73.7147 92.0263 73.2453 92.0263 72.712C92.0263 72.2107 92.1543 71.7733 92.4103 71.4C92.6663 71.0267 93.0129 70.7387 93.4503 70.536C93.8876 70.3333 94.3729 70.232 94.9062 70.232C95.6316 70.232 96.2876 70.424 96.8743 70.808C97.4716 71.1813 97.8929 71.704 98.1383 72.376L97.1143 72.856C96.9009 72.376 96.5916 72.0027 96.1863 71.736C95.7916 71.4587 95.3489 71.32 94.8583 71.32C94.3783 71.32 93.9943 71.4427 93.7063 71.688C93.4183 71.9333 93.2743 72.2427 93.2743 72.616C93.2743 72.904 93.3489 73.1333 93.4983 73.304C93.6476 73.4747 93.8183 73.6027 94.0103 73.688C94.2129 73.7733 94.3889 73.8373 94.5383 73.88L95.9623 74.296C96.6556 74.4987 97.1943 74.8133 97.5783 75.24C97.9729 75.6667 98.1703 76.168 98.1703 76.744C98.1703 77.2133 98.0369 77.6347 97.7703 78.008C97.5143 78.3813 97.1569 78.6747 96.6983 78.888C96.2396 79.0907 95.7116 79.192 95.1143 79.192ZM100.279 79V66.888H101.479V72.088L101.207 72.024C101.42 71.4693 101.767 71.032 102.247 70.712C102.738 70.392 103.303 70.232 103.943 70.232C104.551 70.232 105.095 70.3707 105.575 70.648C106.066 70.9253 106.45 71.3093 106.727 71.8C107.015 72.28 107.159 72.824 107.159 73.432V79H105.959V73.896C105.959 73.3733 105.863 72.9307 105.671 72.568C105.479 72.2053 105.212 71.928 104.871 71.736C104.54 71.5333 104.162 71.432 103.735 71.432C103.308 71.432 102.924 71.5333 102.583 71.736C102.242 71.928 101.97 72.2107 101.767 72.584C101.575 72.9467 101.479 73.384 101.479 73.896V79H100.279ZM112.17 79V66.888H113.37V79H112.17ZM119.73 79.192C118.93 79.192 118.204 79 117.554 78.616C116.914 78.2213 116.407 77.6827 116.034 77C115.66 76.3173 115.474 75.544 115.474 74.68C115.474 73.816 115.655 73.0533 116.018 72.392C116.38 71.72 116.871 71.192 117.49 70.808C118.119 70.424 118.823 70.232 119.602 70.232C120.22 70.232 120.77 70.3493 121.25 70.584C121.74 70.808 122.156 71.1173 122.498 71.512C122.839 71.896 123.1 72.3333 123.282 72.824C123.463 73.304 123.554 73.8 123.554 74.312C123.554 74.4187 123.548 74.5413 123.538 74.68C123.527 74.808 123.511 74.9413 123.49 75.08H116.242V73.96H122.802L122.226 74.44C122.322 73.8533 122.252 73.3307 122.018 72.872C121.794 72.4027 121.468 72.0347 121.042 71.768C120.615 71.4907 120.135 71.352 119.602 71.352C119.068 71.352 118.572 71.4907 118.114 71.768C117.666 72.0453 117.314 72.4347 117.058 72.936C116.802 73.4267 116.7 74.0133 116.754 74.696C116.7 75.3787 116.807 75.976 117.074 76.488C117.351 76.9893 117.724 77.3787 118.194 77.656C118.674 77.9333 119.186 78.072 119.73 78.072C120.359 78.072 120.887 77.9227 121.314 77.624C121.74 77.3253 122.087 76.952 122.354 76.504L123.378 77.048C123.207 77.432 122.946 77.7893 122.594 78.12C122.242 78.44 121.82 78.7013 121.33 78.904C120.85 79.096 120.316 79.192 119.73 79.192ZM127.801 79L124.457 70.424H125.801L128.617 77.944H128.185L131.017 70.424H132.377L129.001 79H127.801ZM137.527 79.192C136.727 79.192 136.001 79 135.351 78.616C134.711 78.2213 134.204 77.6827 133.831 77C133.457 76.3173 133.271 75.544 133.271 74.68C133.271 73.816 133.452 73.0533 133.815 72.392C134.177 71.72 134.668 71.192 135.287 70.808C135.916 70.424 136.62 70.232 137.399 70.232C138.017 70.232 138.567 70.3493 139.047 70.584C139.537 70.808 139.953 71.1173 140.295 71.512C140.636 71.896 140.897 72.3333 141.079 72.824C141.26 73.304 141.351 73.8 141.351 74.312C141.351 74.4187 141.345 74.5413 141.335 74.68C141.324 74.808 141.308 74.9413 141.287 75.08H134.039V73.96H140.599L140.023 74.44C140.119 73.8533 140.049 73.3307 139.815 72.872C139.591 72.4027 139.265 72.0347 138.839 71.768C138.412 71.4907 137.932 71.352 137.399 71.352C136.865 71.352 136.369 71.4907 135.911 71.768C135.463 72.0453 135.111 72.4347 134.855 72.936C134.599 73.4267 134.497 74.0133 134.551 74.696C134.497 75.3787 134.604 75.976 134.871 76.488C135.148 76.9893 135.521 77.3787 135.991 77.656C136.471 77.9333 136.983 78.072 137.527 78.072C138.156 78.072 138.684 77.9227 139.111 77.624C139.537 77.3253 139.884 76.952 140.151 76.504L141.175 77.048C141.004 77.432 140.743 77.7893 140.391 78.12C140.039 78.44 139.617 78.7013 139.127 78.904C138.647 79.096 138.113 79.192 137.527 79.192ZM143.466 79V66.888H144.666V79H143.466Z" fill="black" fill-opacity="0.5"/>
<path d="M1.408 14V2.08H2.688V9.04L2.4 8.896L8.4 2.08H10L5.184 7.552L5.248 6.64L10.288 14H8.752L4.688 8.128L2.688 10.4V14H1.408ZM14.0245 14.192C13.4805 14.192 12.9952 14.0907 12.5685 13.888C12.1418 13.6747 11.8058 13.3867 11.5605 13.024C11.3152 12.6613 11.1925 12.2453 11.1925 11.776C11.1925 11.328 11.2885 10.9227 11.4805 10.56C11.6725 10.1867 11.9712 9.872 12.3765 9.616C12.7818 9.36 13.2992 9.17867 13.9285 9.072L17.2885 8.512V9.6L14.2165 10.112C13.5978 10.2187 13.1498 10.416 12.8725 10.704C12.6058 10.992 12.4725 11.3333 12.4725 11.728C12.4725 12.112 12.6218 12.4373 12.9205 12.704C13.2298 12.9707 13.6245 13.104 14.1045 13.104C14.6912 13.104 15.2032 12.9813 15.6405 12.736C16.0778 12.48 16.4192 12.1387 16.6645 11.712C16.9098 11.2853 17.0325 10.8107 17.0325 10.288V8.112C17.0325 7.6 16.8458 7.184 16.4725 6.864C16.0992 6.544 15.6138 6.384 15.0165 6.384C14.4938 6.384 14.0352 6.51733 13.6405 6.784C13.2458 7.04 12.9525 7.376 12.7605 7.792L11.6725 7.2C11.8325 6.83733 12.0832 6.50667 12.4245 6.208C12.7765 5.90933 13.1765 5.67467 13.6245 5.504C14.0725 5.32267 14.5365 5.232 15.0165 5.232C15.6458 5.232 16.2005 5.35467 16.6805 5.6C17.1712 5.84533 17.5498 6.18667 17.8165 6.624C18.0938 7.05067 18.2325 7.54667 18.2325 8.112V14H17.0325V12.288L17.2085 12.464C17.0592 12.784 16.8245 13.0773 16.5045 13.344C16.1952 13.6 15.8272 13.808 15.4005 13.968C14.9845 14.1173 14.5258 14.192 14.0245 14.192ZM20.7008 14V5.424H21.9008V7.088L21.6288 7.024C21.8421 6.46933 22.1888 6.032 22.6688 5.712C23.1594 5.392 23.7248 5.232 24.3648 5.232C24.9728 5.232 25.5168 5.37067 25.9968 5.648C26.4874 5.92533 26.8714 6.30933 27.1488 6.8C27.4368 7.28 27.5808 7.824 27.5808 8.432V14H26.3808V8.896C26.3808 8.37333 26.2848 7.93067 26.0928 7.568C25.9114 7.20533 25.6501 6.928 25.3088 6.736C24.9781 6.53333 24.5941 6.432 24.1568 6.432C23.7194 6.432 23.3301 6.53333 22.9888 6.736C22.6474 6.928 22.3808 7.21067 22.1888 7.584C21.9968 7.94667 21.9008 8.384 21.9008 8.896V14H20.7008ZM33.7446 14.192C32.9446 14.192 32.2246 14 31.5846 13.616C30.9446 13.2213 30.438 12.688 30.0646 12.016C29.702 11.3333 29.5206 10.5653 29.5206 9.712C29.5206 8.848 29.702 8.08 30.0646 7.408C30.438 6.736 30.9393 6.208 31.5686 5.824C32.2086 5.42933 32.934 5.232 33.7446 5.232C34.4806 5.232 35.1366 5.392 35.7126 5.712C36.2886 6.032 36.742 6.464 37.0726 7.008L36.8806 7.344V1.888H38.0806V14H36.8806V12.08L37.0726 12.256C36.774 12.8747 36.326 13.3547 35.7286 13.696C35.142 14.0267 34.4806 14.192 33.7446 14.192ZM33.8086 12.992C34.3846 12.992 34.902 12.848 35.3606 12.56C35.83 12.272 36.198 11.8827 36.4646 11.392C36.742 10.8907 36.8806 10.3307 36.8806 9.712C36.8806 9.09333 36.742 8.53867 36.4646 8.048C36.198 7.54667 35.83 7.152 35.3606 6.864C34.902 6.576 34.3846 6.432 33.8086 6.432C33.2433 6.432 32.7313 6.576 32.2726 6.864C31.814 7.152 31.4513 7.54133 31.1846 8.032C30.9286 8.52267 30.8006 9.08267 30.8006 9.712C30.8006 10.3307 30.9286 10.8907 31.1846 11.392C31.4513 11.8827 31.8086 12.272 32.2566 12.56C32.7153 12.848 33.2326 12.992 33.8086 12.992ZM40.5445 14V5.424H41.7445V14H40.5445ZM40.5445 3.84V2.08H41.7445V3.84H40.5445ZM48.1208 14.192C47.2781 14.192 46.5368 13.9947 45.8968 13.6C45.2568 13.2053 44.7554 12.672 44.3928 12C44.0301 11.3173 43.8488 10.5493 43.8488 9.696C43.8488 8.84267 44.0301 8.08 44.3928 7.408C44.7554 6.736 45.2568 6.208 45.8968 5.824C46.5368 5.42933 47.2781 5.232 48.1208 5.232C48.6541 5.232 49.1554 5.328 49.6248 5.52C50.0941 5.712 50.5101 5.97333 50.8728 6.304C51.2354 6.624 51.5074 6.99733 51.6888 7.424L50.6008 7.984C50.3874 7.52533 50.0621 7.152 49.6248 6.864C49.1874 6.576 48.6861 6.432 48.1208 6.432C47.5554 6.432 47.0434 6.576 46.5848 6.864C46.1368 7.14133 45.7794 7.53067 45.5128 8.032C45.2568 8.52267 45.1288 9.08267 45.1288 9.712C45.1288 10.3307 45.2568 10.8907 45.5128 11.392C45.7794 11.8827 46.1368 12.272 46.5848 12.56C47.0434 12.848 47.5554 12.992 48.1208 12.992C48.6861 12.992 49.1821 12.848 49.6088 12.56C50.0461 12.272 50.3768 11.888 50.6008 11.408L51.6888 12C51.5074 12.416 51.2354 12.7893 50.8728 13.12C50.5101 13.4507 50.0941 13.712 49.6248 13.904C49.1554 14.096 48.6541 14.192 48.1208 14.192ZM57.6985 14.192C56.8985 14.192 56.1732 14 55.5225 13.616C54.8825 13.2213 54.3758 12.6827 54.0025 12C53.6292 11.3173 53.4425 10.544 53.4425 9.68C53.4425 8.816 53.6238 8.05333 53.9865 7.392C54.3492 6.72 54.8398 6.192 55.4585 5.808C56.0878 5.424 56.7918 5.232 57.5705 5.232C58.1892 5.232 58.7385 5.34933 59.2185 5.584C59.7092 5.808 60.1252 6.11733 60.4665 6.512C60.8078 6.896 61.0692 7.33333 61.2505 7.824C61.4318 8.304 61.5225 8.8 61.5225 9.312C61.5225 9.41867 61.5172 9.54133 61.5065 9.68C61.4958 9.808 61.4798 9.94133 61.4585 10.08H54.2105V8.96H60.7705L60.1945 9.44C60.2905 8.85333 60.2212 8.33067 59.9865 7.872C59.7625 7.40267 59.4372 7.03467 59.0105 6.768C58.5838 6.49067 58.1038 6.352 57.5705 6.352C57.0372 6.352 56.5412 6.49067 56.0825 6.768C55.6345 7.04533 55.2825 7.43467 55.0265 7.936C54.7705 8.42667 54.6692 9.01333 54.7225 9.696C54.6692 10.3787 54.7758 10.976 55.0425 11.488C55.3198 11.9893 55.6932 12.3787 56.1625 12.656C56.6425 12.9333 57.1545 13.072 57.6985 13.072C58.3278 13.072 58.8558 12.9227 59.2825 12.624C59.7092 12.3253 60.0558 11.952 60.3225 11.504L61.3465 12.048C61.1758 12.432 60.9145 12.7893 60.5625 13.12C60.2105 13.44 59.7892 13.7013 59.2985 13.904C58.8185 14.096 58.2852 14.192 57.6985 14.192Z" fill="#4B04A5" fill-opacity="0.5"/>
</svg>
