<svg width="270" height="96" viewBox="0 0 270 96" fill="none" xmlns="http://www.w3.org/2000/svg">
<rect x="0.5" y="24.5" width="269" height="71" rx="15.5" stroke="#D764FF" stroke-opacity="0.5"/>
<path d="M20.12 55L17.176 46.424H18.536L20.968 53.928H20.488L22.776 46.424H23.976L26.264 53.928H25.784L28.232 46.424H29.576L26.632 55H25.432L23.208 47.656H23.544L21.32 55H20.12ZM30.982 55V42.888H32.182V48.088L31.91 48.024C32.1233 47.4693 32.47 47.032 32.95 46.712C33.4407 46.392 34.006 46.232 34.646 46.232C35.254 46.232 35.798 46.3707 36.278 46.648C36.7687 46.9253 37.1527 47.3093 37.43 47.8C37.718 48.28 37.862 48.824 37.862 49.432V55H36.662V49.896C36.662 49.3733 36.566 48.9307 36.374 48.568C36.182 48.2053 35.9153 47.928 35.574 47.736C35.2433 47.5333 34.8647 47.432 34.438 47.432C34.0113 47.432 33.6273 47.5333 33.286 47.736C32.9447 47.928 32.6727 48.2107 32.47 48.584C32.278 48.9467 32.182 49.384 32.182 49.896V55H30.982ZM44.0579 55.192C43.2579 55.192 42.5325 55 41.8819 54.616C41.2419 54.2213 40.7352 53.6827 40.3619 53C39.9885 52.3173 39.8019 51.544 39.8019 50.68C39.8019 49.816 39.9832 49.0533 40.3459 48.392C40.7085 47.72 41.1992 47.192 41.8179 46.808C42.4472 46.424 43.1512 46.232 43.9299 46.232C44.5485 46.232 45.0979 46.3493 45.5779 46.584C46.0685 46.808 46.4845 47.1173 46.8259 47.512C47.1672 47.896 47.4285 48.3333 47.6099 48.824C47.7912 49.304 47.8819 49.8 47.8819 50.312C47.8819 50.4187 47.8765 50.5413 47.8659 50.68C47.8552 50.808 47.8392 50.9413 47.8179 51.08H40.5699V49.96H47.1299L46.5539 50.44C46.6499 49.8533 46.5805 49.3307 46.3459 48.872C46.1219 48.4027 45.7965 48.0347 45.3699 47.768C44.9432 47.4907 44.4632 47.352 43.9299 47.352C43.3965 47.352 42.9005 47.4907 42.4419 47.768C41.9939 48.0453 41.6419 48.4347 41.3859 48.936C41.1299 49.4267 41.0285 50.0133 41.0819 50.696C41.0285 51.3787 41.1352 51.976 41.4019 52.488C41.6792 52.9893 42.0525 53.3787 42.5219 53.656C43.0019 53.9333 43.5139 54.072 44.0579 54.072C44.6872 54.072 45.2152 53.9227 45.6419 53.624C46.0685 53.3253 46.4152 52.952 46.6819 52.504L47.7059 53.048C47.5352 53.432 47.2739 53.7893 46.9219 54.12C46.5699 54.44 46.1485 54.7013 45.6579 54.904C45.1779 55.096 44.6445 55.192 44.0579 55.192ZM49.9976 55V46.424H51.1976V47.832L51.0376 47.624C51.2403 47.2187 51.5443 46.8987 51.9496 46.664C52.3656 46.4293 52.867 46.312 53.4536 46.312H53.9976V47.512H53.2456C52.627 47.512 52.131 47.704 51.7576 48.088C51.3843 48.472 51.1976 49.016 51.1976 49.72V55H49.9976ZM59.3079 55.192C58.5079 55.192 57.7825 55 57.1319 54.616C56.4919 54.2213 55.9852 53.6827 55.6119 53C55.2385 52.3173 55.0519 51.544 55.0519 50.68C55.0519 49.816 55.2332 49.0533 55.5959 48.392C55.9585 47.72 56.4492 47.192 57.0679 46.808C57.6972 46.424 58.4012 46.232 59.1799 46.232C59.7985 46.232 60.3479 46.3493 60.8279 46.584C61.3185 46.808 61.7345 47.1173 62.0759 47.512C62.4172 47.896 62.6785 48.3333 62.8599 48.824C63.0412 49.304 63.1319 49.8 63.1319 50.312C63.1319 50.4187 63.1265 50.5413 63.1159 50.68C63.1052 50.808 63.0892 50.9413 63.0679 51.08H55.8199V49.96H62.3799L61.8039 50.44C61.8999 49.8533 61.8305 49.3307 61.5959 48.872C61.3719 48.4027 61.0465 48.0347 60.6199 47.768C60.1932 47.4907 59.7132 47.352 59.1799 47.352C58.6465 47.352 58.1505 47.4907 57.6919 47.768C57.2439 48.0453 56.8919 48.4347 56.6359 48.936C56.3799 49.4267 56.2785 50.0133 56.3319 50.696C56.2785 51.3787 56.3852 51.976 56.6519 52.488C56.9292 52.9893 57.3025 53.3787 57.7719 53.656C58.2519 53.9333 58.7639 54.072 59.3079 54.072C59.9372 54.072 60.4652 53.9227 60.8919 53.624C61.3185 53.3253 61.6652 52.952 61.9319 52.504L62.9559 53.048C62.7852 53.432 62.5239 53.7893 62.1719 54.12C61.8199 54.44 61.3985 54.7013 60.9079 54.904C60.4279 55.096 59.8945 55.192 59.3079 55.192ZM71.8384 55.192C71.0384 55.192 70.3184 55 69.6784 54.616C69.0384 54.2213 68.5317 53.688 68.1584 53.016C67.7957 52.3333 67.6144 51.5653 67.6144 50.712C67.6144 49.848 67.7957 49.08 68.1584 48.408C68.5317 47.736 69.033 47.208 69.6624 46.824C70.3024 46.4293 71.0277 46.232 71.8384 46.232C72.5744 46.232 73.2304 46.392 73.8064 46.712C74.3824 47.032 74.8357 47.464 75.1664 48.008L74.9744 48.344V42.888H76.1744V55H74.9744V53.08L75.1664 53.256C74.8677 53.8747 74.4197 54.3547 73.8224 54.696C73.2357 55.0267 72.5744 55.192 71.8384 55.192ZM71.9024 53.992C72.4784 53.992 72.9957 53.848 73.4544 53.56C73.9237 53.272 74.2917 52.8827 74.5584 52.392C74.8357 51.8907 74.9744 51.3307 74.9744 50.712C74.9744 50.0933 74.8357 49.5387 74.5584 49.048C74.2917 48.5467 73.9237 48.152 73.4544 47.864C72.9957 47.576 72.4784 47.432 71.9024 47.432C71.337 47.432 70.825 47.576 70.3664 47.864C69.9077 48.152 69.545 48.5413 69.2784 49.032C69.0224 49.5227 68.8944 50.0827 68.8944 50.712C68.8944 51.3307 69.0224 51.8907 69.2784 52.392C69.545 52.8827 69.9024 53.272 70.3504 53.56C70.809 53.848 71.3264 53.992 71.9024 53.992ZM82.6543 55.192C81.8436 55.192 81.1076 55 80.4463 54.616C79.7849 54.2213 79.2569 53.688 78.8623 53.016C78.4783 52.3333 78.2863 51.56 78.2863 50.696C78.2863 49.8427 78.4783 49.08 78.8623 48.408C79.2463 47.736 79.7636 47.208 80.4143 46.824C81.0756 46.4293 81.8223 46.232 82.6543 46.232C83.4863 46.232 84.2276 46.424 84.8783 46.808C85.5396 47.192 86.0569 47.72 86.4303 48.392C86.8143 49.064 87.0063 49.832 87.0063 50.696C87.0063 51.5707 86.8089 52.3493 86.4143 53.032C86.0196 53.704 85.4916 54.232 84.8303 54.616C84.1796 55 83.4543 55.192 82.6543 55.192ZM82.6543 53.992C83.2303 53.992 83.7476 53.848 84.2063 53.56C84.6756 53.272 85.0436 52.8773 85.3103 52.376C85.5876 51.8747 85.7263 51.3147 85.7263 50.696C85.7263 50.0773 85.5876 49.5227 85.3103 49.032C85.0436 48.5413 84.6756 48.152 84.2063 47.864C83.7476 47.576 83.2303 47.432 82.6543 47.432C82.0783 47.432 81.5556 47.576 81.0863 47.864C80.6276 48.152 80.2596 48.5413 79.9823 49.032C79.7049 49.5227 79.5663 50.0773 79.5663 50.696C79.5663 51.3147 79.7049 51.8747 79.9823 52.376C80.2596 52.8773 80.6276 53.272 81.0863 53.56C81.5556 53.848 82.0783 53.992 82.6543 53.992ZM92.0174 58.52C91.8467 58.52 91.6707 58.504 91.4894 58.472C91.3187 58.4507 91.148 58.408 90.9774 58.344V57.224C91.084 57.2347 91.2174 57.2507 91.3774 57.272C91.548 57.304 91.7187 57.32 91.8894 57.32C92.412 57.32 92.812 57.208 93.0894 56.984C93.3667 56.7707 93.6387 56.3547 93.9054 55.736L94.4494 54.456L94.4174 55.512L90.7854 46.424H92.0814L95.0574 53.928H94.7214L97.6814 46.424H99.0094L95.0894 56.088C94.9187 56.504 94.7 56.8987 94.4334 57.272C94.1774 57.6453 93.852 57.944 93.4574 58.168C93.0627 58.4027 92.5827 58.52 92.0174 58.52ZM104.279 55.192C103.469 55.192 102.733 55 102.071 54.616C101.41 54.2213 100.882 53.688 100.487 53.016C100.103 52.3333 99.9113 51.56 99.9113 50.696C99.9113 49.8427 100.103 49.08 100.487 48.408C100.871 47.736 101.389 47.208 102.039 46.824C102.701 46.4293 103.447 46.232 104.279 46.232C105.111 46.232 105.853 46.424 106.503 46.808C107.165 47.192 107.682 47.72 108.055 48.392C108.439 49.064 108.631 49.832 108.631 50.696C108.631 51.5707 108.434 52.3493 108.039 53.032C107.645 53.704 107.117 54.232 106.455 54.616C105.805 55 105.079 55.192 104.279 55.192ZM104.279 53.992C104.855 53.992 105.373 53.848 105.831 53.56C106.301 53.272 106.669 52.8773 106.935 52.376C107.213 51.8747 107.351 51.3147 107.351 50.696C107.351 50.0773 107.213 49.5227 106.935 49.032C106.669 48.5413 106.301 48.152 105.831 47.864C105.373 47.576 104.855 47.432 104.279 47.432C103.703 47.432 103.181 47.576 102.711 47.864C102.253 48.152 101.885 48.5413 101.607 49.032C101.33 49.5227 101.191 50.0773 101.191 50.696C101.191 51.3147 101.33 51.8747 101.607 52.376C101.885 52.8773 102.253 53.272 102.711 53.56C103.181 53.848 103.703 53.992 104.279 53.992ZM113.788 55.192C113.19 55.192 112.646 55.0533 112.156 54.776C111.665 54.488 111.276 54.0933 110.988 53.592C110.71 53.08 110.572 52.4933 110.572 51.832V46.424H111.772V51.688C111.772 52.1467 111.862 52.552 112.044 52.904C112.236 53.2453 112.497 53.512 112.828 53.704C113.169 53.896 113.558 53.992 113.996 53.992C114.433 53.992 114.822 53.896 115.164 53.704C115.505 53.5013 115.772 53.2187 115.964 52.856C116.156 52.4827 116.252 52.04 116.252 51.528V46.424H117.452V55H116.252V53.336L116.524 53.4C116.321 53.9547 115.974 54.392 115.484 54.712C114.993 55.032 114.428 55.192 113.788 55.192ZM126.702 58.52C126.116 58.52 125.572 58.4293 125.07 58.248C124.58 58.0667 124.153 57.816 123.79 57.496C123.438 57.1867 123.166 56.824 122.974 56.408L124.078 55.816C124.249 56.2213 124.553 56.5733 124.99 56.872C125.428 57.1707 125.988 57.32 126.67 57.32C127.193 57.32 127.673 57.2187 128.11 57.016C128.548 56.8133 128.9 56.5147 129.166 56.12C129.433 55.7253 129.566 55.24 129.566 54.664V52.76L129.758 52.936C129.46 53.5547 129.017 54.0347 128.43 54.376C127.844 54.7067 127.204 54.872 126.51 54.872C125.71 54.872 124.99 54.68 124.35 54.296C123.71 53.912 123.204 53.3947 122.83 52.744C122.468 52.0827 122.286 51.352 122.286 50.552C122.286 49.7413 122.468 49.0107 122.83 48.36C123.204 47.7093 123.705 47.192 124.334 46.808C124.974 46.424 125.7 46.232 126.51 46.232C127.204 46.232 127.833 46.392 128.398 46.712C128.974 47.032 129.428 47.464 129.758 48.008L129.566 48.344V46.424H130.766V54.664C130.766 55.4 130.59 56.056 130.238 56.632C129.897 57.2187 129.417 57.6773 128.798 58.008C128.19 58.3493 127.492 58.52 126.702 58.52ZM126.574 53.672C127.129 53.672 127.63 53.5333 128.078 53.256C128.526 52.968 128.884 52.5893 129.15 52.12C129.428 51.64 129.566 51.1173 129.566 50.552C129.566 49.9867 129.428 49.4693 129.15 49C128.884 48.52 128.526 48.1413 128.078 47.864C127.63 47.576 127.129 47.432 126.574 47.432C126.009 47.432 125.497 47.576 125.038 47.864C124.58 48.1413 124.217 48.5147 123.95 48.984C123.694 49.4533 123.566 49.976 123.566 50.552C123.566 51.1173 123.694 51.64 123.95 52.12C124.217 52.5893 124.574 52.968 125.022 53.256C125.481 53.5333 125.998 53.672 126.574 53.672ZM137.136 55.192C136.336 55.192 135.611 55 134.96 54.616C134.32 54.2213 133.813 53.6827 133.44 53C133.067 52.3173 132.88 51.544 132.88 50.68C132.88 49.816 133.061 49.0533 133.424 48.392C133.787 47.72 134.277 47.192 134.896 46.808C135.525 46.424 136.229 46.232 137.008 46.232C137.627 46.232 138.176 46.3493 138.656 46.584C139.147 46.808 139.563 47.1173 139.904 47.512C140.245 47.896 140.507 48.3333 140.688 48.824C140.869 49.304 140.96 49.8 140.96 50.312C140.96 50.4187 140.955 50.5413 140.944 50.68C140.933 50.808 140.917 50.9413 140.896 51.08H133.648V49.96H140.208L139.632 50.44C139.728 49.8533 139.659 49.3307 139.424 48.872C139.2 48.4027 138.875 48.0347 138.448 47.768C138.021 47.4907 137.541 47.352 137.008 47.352C136.475 47.352 135.979 47.4907 135.52 47.768C135.072 48.0453 134.72 48.4347 134.464 48.936C134.208 49.4267 134.107 50.0133 134.16 50.696C134.107 51.3787 134.213 51.976 134.48 52.488C134.757 52.9893 135.131 53.3787 135.6 53.656C136.08 53.9333 136.592 54.072 137.136 54.072C137.765 54.072 138.293 53.9227 138.72 53.624C139.147 53.3253 139.493 52.952 139.76 52.504L140.784 53.048C140.613 53.432 140.352 53.7893 140 54.12C139.648 54.44 139.227 54.7013 138.736 54.904C138.256 55.096 137.723 55.192 137.136 55.192ZM146.356 55.096C145.588 55.096 144.996 54.872 144.58 54.424C144.164 53.976 143.956 53.336 143.956 52.504V47.624H142.372V46.424H142.772C143.134 46.424 143.422 46.3067 143.636 46.072C143.849 45.8267 143.956 45.5227 143.956 45.16V44.44H145.156V46.424H147.044V47.624H145.156V52.504C145.156 52.792 145.198 53.048 145.284 53.272C145.369 53.4853 145.513 53.656 145.716 53.784C145.929 53.912 146.212 53.976 146.564 53.976C146.649 53.976 146.75 53.9707 146.868 53.96C146.985 53.9493 147.086 53.9387 147.172 53.928V55C147.044 55.032 146.9 55.0533 146.74 55.064C146.58 55.0853 146.452 55.096 146.356 55.096ZM155.278 55.096C154.51 55.096 153.918 54.872 153.502 54.424C153.086 53.976 152.878 53.336 152.878 52.504V47.624H151.294V46.424H151.694C152.056 46.424 152.344 46.3067 152.558 46.072C152.771 45.8267 152.878 45.5227 152.878 45.16V44.44H154.078V46.424H155.966V47.624H154.078V52.504C154.078 52.792 154.12 53.048 154.206 53.272C154.291 53.4853 154.435 53.656 154.638 53.784C154.851 53.912 155.134 53.976 155.486 53.976C155.571 53.976 155.672 53.9707 155.79 53.96C155.907 53.9493 156.008 53.9387 156.094 53.928V55C155.966 55.032 155.822 55.0533 155.662 55.064C155.502 55.0853 155.374 55.096 155.278 55.096ZM158.201 55V42.888H159.401V48.088L159.129 48.024C159.342 47.4693 159.689 47.032 160.169 46.712C160.659 46.392 161.225 46.232 161.865 46.232C162.473 46.232 163.017 46.3707 163.497 46.648C163.987 46.9253 164.371 47.3093 164.649 47.8C164.937 48.28 165.081 48.824 165.081 49.432V55H163.881V49.896C163.881 49.3733 163.785 48.9307 163.593 48.568C163.401 48.2053 163.134 47.928 162.793 47.736C162.462 47.5333 162.083 47.432 161.657 47.432C161.23 47.432 160.846 47.5333 160.505 47.736C160.163 47.928 159.891 48.2107 159.689 48.584C159.497 48.9467 159.401 49.384 159.401 49.896V55H158.201ZM171.277 55.192C170.477 55.192 169.751 55 169.101 54.616C168.461 54.2213 167.954 53.6827 167.581 53C167.207 52.3173 167.021 51.544 167.021 50.68C167.021 49.816 167.202 49.0533 167.565 48.392C167.927 47.72 168.418 47.192 169.037 46.808C169.666 46.424 170.37 46.232 171.149 46.232C171.767 46.232 172.317 46.3493 172.797 46.584C173.287 46.808 173.703 47.1173 174.045 47.512C174.386 47.896 174.647 48.3333 174.829 48.824C175.01 49.304 175.101 49.8 175.101 50.312C175.101 50.4187 175.095 50.5413 175.085 50.68C175.074 50.808 175.058 50.9413 175.037 51.08H167.789V49.96H174.349L173.773 50.44C173.869 49.8533 173.799 49.3307 173.565 48.872C173.341 48.4027 173.015 48.0347 172.589 47.768C172.162 47.4907 171.682 47.352 171.149 47.352C170.615 47.352 170.119 47.4907 169.661 47.768C169.213 48.0453 168.861 48.4347 168.605 48.936C168.349 49.4267 168.247 50.0133 168.301 50.696C168.247 51.3787 168.354 51.976 168.621 52.488C168.898 52.9893 169.271 53.3787 169.741 53.656C170.221 53.9333 170.733 54.072 171.277 54.072C171.906 54.072 172.434 53.9227 172.861 53.624C173.287 53.3253 173.634 52.952 173.901 52.504L174.925 53.048C174.754 53.432 174.493 53.7893 174.141 54.12C173.789 54.44 173.367 54.7013 172.877 54.904C172.397 55.096 171.863 55.192 171.277 55.192ZM183.839 55.192C183.039 55.192 182.314 55 181.663 54.616C181.023 54.2213 180.516 53.6827 180.143 53C179.77 52.3173 179.583 51.544 179.583 50.68C179.583 49.816 179.764 49.0533 180.127 48.392C180.49 47.72 180.98 47.192 181.599 46.808C182.228 46.424 182.932 46.232 183.711 46.232C184.33 46.232 184.879 46.3493 185.359 46.584C185.85 46.808 186.266 47.1173 186.607 47.512C186.948 47.896 187.21 48.3333 187.391 48.824C187.572 49.304 187.663 49.8 187.663 50.312C187.663 50.4187 187.658 50.5413 187.647 50.68C187.636 50.808 187.62 50.9413 187.599 51.08H180.351V49.96H186.911L186.335 50.44C186.431 49.8533 186.362 49.3307 186.127 48.872C185.903 48.4027 185.578 48.0347 185.151 47.768C184.724 47.4907 184.244 47.352 183.711 47.352C183.178 47.352 182.682 47.4907 182.223 47.768C181.775 48.0453 181.423 48.4347 181.167 48.936C180.911 49.4267 180.81 50.0133 180.863 50.696C180.81 51.3787 180.916 51.976 181.183 52.488C181.46 52.9893 181.834 53.3787 182.303 53.656C182.783 53.9333 183.295 54.072 183.839 54.072C184.468 54.072 184.996 53.9227 185.423 53.624C185.85 53.3253 186.196 52.952 186.463 52.504L187.487 53.048C187.316 53.432 187.055 53.7893 186.703 54.12C186.351 54.44 185.93 54.7013 185.439 54.904C184.959 55.096 184.426 55.192 183.839 55.192ZM188.567 55L191.575 50.712L188.583 46.424H190.055L192.711 50.28H191.895L194.535 46.424H196.007L193.015 50.712L196.007 55H194.535L191.895 51.144H192.711L190.055 55H188.567ZM200.7 55.096C199.932 55.096 199.34 54.872 198.924 54.424C198.508 53.976 198.299 53.336 198.299 52.504V47.624H196.715V46.424H197.116C197.478 46.424 197.766 46.3067 197.98 46.072C198.193 45.8267 198.299 45.5227 198.299 45.16V44.44H199.5V46.424H201.388V47.624H199.5V52.504C199.5 52.792 199.542 53.048 199.628 53.272C199.713 53.4853 199.857 53.656 200.06 53.784C200.273 53.912 200.556 53.976 200.908 53.976C200.993 53.976 201.094 53.9707 201.212 53.96C201.329 53.9493 201.43 53.9387 201.516 53.928V55C201.388 55.032 201.244 55.0533 201.084 55.064C200.924 55.0853 200.796 55.096 200.7 55.096ZM203.623 55V46.424H204.823V47.832L204.663 47.624C204.865 47.2187 205.169 46.8987 205.575 46.664C205.991 46.4293 206.492 46.312 207.079 46.312H207.623V47.512H206.871C206.252 47.512 205.756 47.704 205.383 48.088C205.009 48.472 204.823 49.016 204.823 49.72V55H203.623ZM211.509 55.192C210.965 55.192 210.48 55.0907 210.053 54.888C209.626 54.6747 209.29 54.3867 209.045 54.024C208.8 53.6613 208.677 53.2453 208.677 52.776C208.677 52.328 208.773 51.9227 208.965 51.56C209.157 51.1867 209.456 50.872 209.861 50.616C210.266 50.36 210.784 50.1787 211.413 50.072L214.773 49.512V50.6L211.701 51.112C211.082 51.2187 210.634 51.416 210.357 51.704C210.09 51.992 209.957 52.3333 209.957 52.728C209.957 53.112 210.106 53.4373 210.405 53.704C210.714 53.9707 211.109 54.104 211.589 54.104C212.176 54.104 212.688 53.9813 213.125 53.736C213.562 53.48 213.904 53.1387 214.149 52.712C214.394 52.2853 214.517 51.8107 214.517 51.288V49.112C214.517 48.6 214.33 48.184 213.957 47.864C213.584 47.544 213.098 47.384 212.501 47.384C211.978 47.384 211.52 47.5173 211.125 47.784C210.73 48.04 210.437 48.376 210.245 48.792L209.157 48.2C209.317 47.8373 209.568 47.5067 209.909 47.208C210.261 46.9093 210.661 46.6747 211.109 46.504C211.557 46.3227 212.021 46.232 212.501 46.232C213.13 46.232 213.685 46.3547 214.165 46.6C214.656 46.8453 215.034 47.1867 215.301 47.624C215.578 48.0507 215.717 48.5467 215.717 49.112V55H214.517V53.288L214.693 53.464C214.544 53.784 214.309 54.0773 213.989 54.344C213.68 54.6 213.312 54.808 212.885 54.968C212.469 55.1173 212.01 55.192 211.509 55.192ZM18.232 79V66.888H19.432V79H18.232ZM24.3683 79.192C23.8243 79.192 23.3389 79.0907 22.9123 78.888C22.4856 78.6747 22.1496 78.3867 21.9043 78.024C21.6589 77.6613 21.5363 77.2453 21.5363 76.776C21.5363 76.328 21.6323 75.9227 21.8243 75.56C22.0163 75.1867 22.3149 74.872 22.7203 74.616C23.1256 74.36 23.6429 74.1787 24.2723 74.072L27.6323 73.512V74.6L24.5603 75.112C23.9416 75.2187 23.4936 75.416 23.2163 75.704C22.9496 75.992 22.8163 76.3333 22.8163 76.728C22.8163 77.112 22.9656 77.4373 23.2643 77.704C23.5736 77.9707 23.9683 78.104 24.4483 78.104C25.0349 78.104 25.5469 77.9813 25.9843 77.736C26.4216 77.48 26.7629 77.1387 27.0083 76.712C27.2536 76.2853 27.3763 75.8107 27.3763 75.288V73.112C27.3763 72.6 27.1896 72.184 26.8163 71.864C26.4429 71.544 25.9576 71.384 25.3602 71.384C24.8376 71.384 24.3789 71.5173 23.9843 71.784C23.5896 72.04 23.2963 72.376 23.1043 72.792L22.0163 72.2C22.1763 71.8373 22.4269 71.5067 22.7682 71.208C23.1203 70.9093 23.5203 70.6747 23.9683 70.504C24.4163 70.3227 24.8803 70.232 25.3602 70.232C25.9896 70.232 26.5443 70.3547 27.0243 70.6C27.5149 70.8453 27.8936 71.1867 28.1603 71.624C28.4376 72.0507 28.5763 72.5467 28.5763 73.112V79H27.3763V77.288L27.5523 77.464C27.4029 77.784 27.1683 78.0773 26.8483 78.344C26.5389 78.6 26.1709 78.808 25.7443 78.968C25.3283 79.1173 24.8696 79.192 24.3683 79.192ZM31.0445 79V70.424H32.2445V71.832L32.0845 71.624C32.2872 71.2187 32.5912 70.8987 32.9965 70.664C33.4125 70.4293 33.9138 70.312 34.5005 70.312H35.0445V71.512H34.2925C33.6738 71.512 33.1778 71.704 32.8045 72.088C32.4312 72.472 32.2445 73.016 32.2445 73.72V79H31.0445ZM40.5148 82.52C39.9281 82.52 39.3841 82.4293 38.8828 82.248C38.3921 82.0667 37.9654 81.816 37.6028 81.496C37.2508 81.1867 36.9788 80.824 36.7868 80.408L37.8908 79.816C38.0614 80.2213 38.3654 80.5733 38.8028 80.872C39.2401 81.1707 39.8001 81.32 40.4828 81.32C41.0054 81.32 41.4854 81.2187 41.9228 81.016C42.3601 80.8133 42.7121 80.5147 42.9788 80.12C43.2454 79.7253 43.3788 79.24 43.3788 78.664V76.76L43.5708 76.936C43.2721 77.5547 42.8294 78.0347 42.2428 78.376C41.6561 78.7067 41.0161 78.872 40.3228 78.872C39.5228 78.872 38.8028 78.68 38.1628 78.296C37.5228 77.912 37.0161 77.3947 36.6428 76.744C36.2801 76.0827 36.0988 75.352 36.0988 74.552C36.0988 73.7413 36.2801 73.0107 36.6428 72.36C37.0161 71.7093 37.5174 71.192 38.1468 70.808C38.7868 70.424 39.5121 70.232 40.3228 70.232C41.0161 70.232 41.6454 70.392 42.2108 70.712C42.7868 71.032 43.2401 71.464 43.5708 72.008L43.3788 72.344V70.424H44.5788V78.664C44.5788 79.4 44.4028 80.056 44.0508 80.632C43.7094 81.2187 43.2294 81.6773 42.6108 82.008C42.0028 82.3493 41.3041 82.52 40.5148 82.52ZM40.3868 77.672C40.9414 77.672 41.4428 77.5333 41.8908 77.256C42.3388 76.968 42.6961 76.5893 42.9628 76.12C43.2401 75.64 43.3788 75.1173 43.3788 74.552C43.3788 73.9867 43.2401 73.4693 42.9628 73C42.6961 72.52 42.3388 72.1413 41.8908 71.864C41.4428 71.576 40.9414 71.432 40.3868 71.432C39.8214 71.432 39.3094 71.576 38.8508 71.864C38.3921 72.1413 38.0294 72.5147 37.7628 72.984C37.5068 73.4533 37.3788 73.976 37.3788 74.552C37.3788 75.1173 37.5068 75.64 37.7628 76.12C38.0294 76.5893 38.3868 76.968 38.8348 77.256C39.2934 77.5333 39.8108 77.672 40.3868 77.672ZM50.9485 79.192C50.1485 79.192 49.4232 79 48.7725 78.616C48.1325 78.2213 47.6258 77.6827 47.2525 77C46.8792 76.3173 46.6925 75.544 46.6925 74.68C46.6925 73.816 46.8738 73.0533 47.2365 72.392C47.5992 71.72 48.0898 71.192 48.7085 70.808C49.3378 70.424 50.0418 70.232 50.8205 70.232C51.4392 70.232 51.9885 70.3493 52.4685 70.584C52.9592 70.808 53.3752 71.1173 53.7165 71.512C54.0578 71.896 54.3192 72.3333 54.5005 72.824C54.6818 73.304 54.7725 73.8 54.7725 74.312C54.7725 74.4187 54.7672 74.5413 54.7565 74.68C54.7458 74.808 54.7298 74.9413 54.7085 75.08H47.4605V73.96H54.0205L53.4445 74.44C53.5405 73.8533 53.4712 73.3307 53.2365 72.872C53.0125 72.4027 52.6872 72.0347 52.2605 71.768C51.8338 71.4907 51.3538 71.352 50.8205 71.352C50.2872 71.352 49.7912 71.4907 49.3325 71.768C48.8845 72.0453 48.5325 72.4347 48.2765 72.936C48.0205 73.4267 47.9192 74.0133 47.9725 74.696C47.9192 75.3787 48.0258 75.976 48.2925 76.488C48.5698 76.9893 48.9432 77.3787 49.4125 77.656C49.8925 77.9333 50.4045 78.072 50.9485 78.072C51.5778 78.072 52.1058 77.9227 52.5325 77.624C52.9592 77.3253 53.3058 76.952 53.5725 76.504L54.5965 77.048C54.4258 77.432 54.1645 77.7893 53.8125 78.12C53.4605 78.44 53.0392 78.7013 52.5485 78.904C52.0685 79.096 51.5352 79.192 50.9485 79.192ZM59.607 79V70.424H60.807V71.832L60.647 71.624C60.8497 71.2187 61.1537 70.8987 61.559 70.664C61.975 70.4293 62.4763 70.312 63.063 70.312H63.607V71.512H62.855C62.2363 71.512 61.7403 71.704 61.367 72.088C60.9937 72.472 60.807 73.016 60.807 73.72V79H59.607ZM68.9173 79.192C68.1173 79.192 67.3919 79 66.7413 78.616C66.1013 78.2213 65.5946 77.6827 65.2213 77C64.8479 76.3173 64.6613 75.544 64.6613 74.68C64.6613 73.816 64.8426 73.0533 65.2053 72.392C65.5679 71.72 66.0586 71.192 66.6773 70.808C67.3066 70.424 68.0106 70.232 68.7893 70.232C69.4079 70.232 69.9573 70.3493 70.4373 70.584C70.9279 70.808 71.3439 71.1173 71.6853 71.512C72.0266 71.896 72.2879 72.3333 72.4693 72.824C72.6506 73.304 72.7413 73.8 72.7413 74.312C72.7413 74.4187 72.7359 74.5413 72.7253 74.68C72.7146 74.808 72.6986 74.9413 72.6773 75.08H65.4293V73.96H71.9893L71.4133 74.44C71.5093 73.8533 71.4399 73.3307 71.2053 72.872C70.9813 72.4027 70.6559 72.0347 70.2293 71.768C69.8026 71.4907 69.3226 71.352 68.7893 71.352C68.2559 71.352 67.7599 71.4907 67.3013 71.768C66.8533 72.0453 66.5013 72.4347 66.2453 72.936C65.9893 73.4267 65.8879 74.0133 65.9413 74.696C65.8879 75.3787 65.9946 75.976 66.2613 76.488C66.5386 76.9893 66.9119 77.3787 67.3813 77.656C67.8613 77.9333 68.3733 78.072 68.9173 78.072C69.5466 78.072 70.0746 77.9227 70.5013 77.624C70.9279 77.3253 71.2746 76.952 71.5413 76.504L72.5653 77.048C72.3946 77.432 72.1333 77.7893 71.7812 78.12C71.4293 78.44 71.0079 78.7013 70.5173 78.904C70.0373 79.096 69.5039 79.192 68.9173 79.192ZM78.761 79.192C77.961 79.192 77.2357 79 76.585 78.616C75.945 78.2213 75.4383 77.6827 75.065 77C74.6917 76.3173 74.505 75.544 74.505 74.68C74.505 73.816 74.6863 73.0533 75.049 72.392C75.4117 71.72 75.9023 71.192 76.521 70.808C77.1503 70.424 77.8543 70.232 78.633 70.232C79.2517 70.232 79.801 70.3493 80.281 70.584C80.7717 70.808 81.1877 71.1173 81.529 71.512C81.8703 71.896 82.1317 72.3333 82.313 72.824C82.4943 73.304 82.585 73.8 82.585 74.312C82.585 74.4187 82.5797 74.5413 82.569 74.68C82.5583 74.808 82.5423 74.9413 82.521 75.08H75.273V73.96H81.833L81.257 74.44C81.353 73.8533 81.2837 73.3307 81.049 72.872C80.825 72.4027 80.4997 72.0347 80.073 71.768C79.6463 71.4907 79.1663 71.352 78.633 71.352C78.0997 71.352 77.6037 71.4907 77.145 71.768C76.697 72.0453 76.345 72.4347 76.089 72.936C75.833 73.4267 75.7317 74.0133 75.785 74.696C75.7317 75.3787 75.8383 75.976 76.105 76.488C76.3823 76.9893 76.7557 77.3787 77.225 77.656C77.705 77.9333 78.217 78.072 78.761 78.072C79.3903 78.072 79.9183 77.9227 80.345 77.624C80.7717 77.3253 81.1183 76.952 81.385 76.504L82.409 77.048C82.2383 77.432 81.977 77.7893 81.625 78.12C81.273 78.44 80.8517 78.7013 80.361 78.904C79.881 79.096 79.3477 79.192 78.761 79.192ZM87.6768 79.192C86.8554 79.192 86.1354 78.984 85.5168 78.568C84.8981 78.152 84.4501 77.5867 84.1728 76.872L85.1808 76.392C85.4261 76.9147 85.7674 77.3307 86.2048 77.64C86.6528 77.9493 87.1434 78.104 87.6768 78.104C88.1888 78.104 88.6208 77.9813 88.9728 77.736C89.3248 77.48 89.5008 77.1493 89.5008 76.744C89.5008 76.4453 89.4154 76.2107 89.2448 76.04C89.0741 75.8587 88.8768 75.72 88.6528 75.624C88.4288 75.528 88.2314 75.4587 88.0608 75.416L86.8288 75.064C86.0394 74.84 85.4688 74.5253 85.1168 74.12C84.7648 73.7147 84.5888 73.2453 84.5888 72.712C84.5888 72.2107 84.7168 71.7733 84.9728 71.4C85.2288 71.0267 85.5754 70.7387 86.0128 70.536C86.4501 70.3333 86.9354 70.232 87.4688 70.232C88.1941 70.232 88.8501 70.424 89.4368 70.808C90.0341 71.1813 90.4554 71.704 90.7008 72.376L89.6768 72.856C89.4634 72.376 89.1541 72.0027 88.7488 71.736C88.3541 71.4587 87.9114 71.32 87.4208 71.32C86.9408 71.32 86.5568 71.4427 86.2688 71.688C85.9808 71.9333 85.8368 72.2427 85.8368 72.616C85.8368 72.904 85.9114 73.1333 86.0608 73.304C86.2101 73.4747 86.3808 73.6027 86.5728 73.688C86.7754 73.7733 86.9514 73.8373 87.1008 73.88L88.5248 74.296C89.2181 74.4987 89.7568 74.8133 90.1408 75.24C90.5354 75.6667 90.7328 76.168 90.7328 76.744C90.7328 77.2133 90.5994 77.6347 90.3328 78.008C90.0768 78.3813 89.7194 78.6747 89.2608 78.888C88.8021 79.0907 88.2741 79.192 87.6768 79.192ZM96.7454 79.192C95.9454 79.192 95.22 79 94.5694 78.616C93.9294 78.2213 93.4227 77.6827 93.0494 77C92.676 76.3173 92.4894 75.544 92.4894 74.68C92.4894 73.816 92.6707 73.0533 93.0334 72.392C93.396 71.72 93.8867 71.192 94.5054 70.808C95.1347 70.424 95.8387 70.232 96.6174 70.232C97.236 70.232 97.7854 70.3493 98.2654 70.584C98.756 70.808 99.172 71.1173 99.5134 71.512C99.8547 71.896 100.116 72.3333 100.297 72.824C100.479 73.304 100.569 73.8 100.569 74.312C100.569 74.4187 100.564 74.5413 100.553 74.68C100.543 74.808 100.527 74.9413 100.505 75.08H93.2574V73.96H99.8174L99.2414 74.44C99.3374 73.8533 99.268 73.3307 99.0334 72.872C98.8094 72.4027 98.484 72.0347 98.0574 71.768C97.6307 71.4907 97.1507 71.352 96.6174 71.352C96.084 71.352 95.588 71.4907 95.1294 71.768C94.6814 72.0453 94.3294 72.4347 94.0734 72.936C93.8174 73.4267 93.716 74.0133 93.7694 74.696C93.716 75.3787 93.8227 75.976 94.0894 76.488C94.3667 76.9893 94.74 77.3787 95.2094 77.656C95.6894 77.9333 96.2014 78.072 96.7454 78.072C97.3747 78.072 97.9027 77.9227 98.3294 77.624C98.756 77.3253 99.1027 76.952 99.3694 76.504L100.393 77.048C100.223 77.432 99.9614 77.7893 99.6094 78.12C99.2574 78.44 98.836 78.7013 98.3454 78.904C97.8654 79.096 97.332 79.192 96.7454 79.192ZM105.661 79.192C104.84 79.192 104.12 78.984 103.501 78.568C102.882 78.152 102.434 77.5867 102.157 76.872L103.165 76.392C103.41 76.9147 103.752 77.3307 104.189 77.64C104.637 77.9493 105.128 78.104 105.661 78.104C106.173 78.104 106.605 77.9813 106.957 77.736C107.309 77.48 107.485 77.1493 107.485 76.744C107.485 76.4453 107.4 76.2107 107.229 76.04C107.058 75.8587 106.861 75.72 106.637 75.624C106.413 75.528 106.216 75.4587 106.045 75.416L104.813 75.064C104.024 74.84 103.453 74.5253 103.101 74.12C102.749 73.7147 102.573 73.2453 102.573 72.712C102.573 72.2107 102.701 71.7733 102.957 71.4C103.213 71.0267 103.56 70.7387 103.997 70.536C104.434 70.3333 104.92 70.232 105.453 70.232C106.178 70.232 106.834 70.424 107.421 70.808C108.018 71.1813 108.44 71.704 108.685 72.376L107.661 72.856C107.448 72.376 107.138 72.0027 106.733 71.736C106.338 71.4587 105.896 71.32 105.405 71.32C104.925 71.32 104.541 71.4427 104.253 71.688C103.965 71.9333 103.821 72.2427 103.821 72.616C103.821 72.904 103.896 73.1333 104.045 73.304C104.194 73.4747 104.365 73.6027 104.557 73.688C104.76 73.7733 104.936 73.8373 105.085 73.88L106.509 74.296C107.202 74.4987 107.741 74.8133 108.125 75.24C108.52 75.6667 108.717 76.168 108.717 76.744C108.717 77.2133 108.584 77.6347 108.317 78.008C108.061 78.3813 107.704 78.6747 107.245 78.888C106.786 79.0907 106.258 79.192 105.661 79.192Z" fill="black" fill-opacity="0.5"/>
<path d="M3.6 14L0.176 2.08H1.472L4.432 12.752H4.16L7.2 2.08H8.56L11.584 12.752H11.296L14.272 2.08H15.568L12.144 14H10.784L7.728 3.28H8.016L4.96 14H3.6ZM20.3574 14.192C19.5467 14.192 18.8107 14 18.1494 13.616C17.488 13.2213 16.96 12.688 16.5654 12.016C16.1814 11.3333 15.9894 10.56 15.9894 9.696C15.9894 8.84267 16.1814 8.08 16.5654 7.408C16.9494 6.736 17.4667 6.208 18.1174 5.824C18.7787 5.42933 19.5254 5.232 20.3574 5.232C21.1894 5.232 21.9307 5.424 22.5814 5.808C23.2427 6.192 23.76 6.72 24.1334 7.392C24.5174 8.064 24.7094 8.832 24.7094 9.696C24.7094 10.5707 24.512 11.3493 24.1174 12.032C23.7227 12.704 23.1947 13.232 22.5334 13.616C21.8827 14 21.1574 14.192 20.3574 14.192ZM20.3574 12.992C20.9334 12.992 21.4507 12.848 21.9094 12.56C22.3787 12.272 22.7467 11.8773 23.0134 11.376C23.2907 10.8747 23.4294 10.3147 23.4294 9.696C23.4294 9.07733 23.2907 8.52267 23.0134 8.032C22.7467 7.54133 22.3787 7.152 21.9094 6.864C21.4507 6.576 20.9334 6.432 20.3574 6.432C19.7814 6.432 19.2587 6.576 18.7894 6.864C18.3307 7.152 17.9627 7.54133 17.6854 8.032C17.408 8.52267 17.2694 9.07733 17.2694 9.696C17.2694 10.3147 17.408 10.8747 17.6854 11.376C17.9627 11.8773 18.3307 12.272 18.7894 12.56C19.2587 12.848 19.7814 12.992 20.3574 12.992ZM26.8258 14V5.424H28.0258V7.088L27.7538 7.024C27.9671 6.46933 28.3138 6.032 28.7938 5.712C29.2844 5.392 29.8498 5.232 30.4898 5.232C31.0978 5.232 31.6418 5.37067 32.1218 5.648C32.6124 5.92533 32.9964 6.30933 33.2738 6.8C33.5618 7.28 33.7058 7.824 33.7058 8.432V14H32.5058V8.896C32.5058 8.37333 32.4098 7.93067 32.2178 7.568C32.0364 7.20533 31.7751 6.928 31.4338 6.736C31.1031 6.53333 30.7191 6.432 30.2818 6.432C29.8444 6.432 29.4551 6.53333 29.1138 6.736C28.7724 6.928 28.5058 7.21067 28.3138 7.584C28.1218 7.94667 28.0258 8.384 28.0258 8.896V14H26.8258Z" fill="#D764FF" fill-opacity="0.5"/>
</svg>
