<svg width="270" height="96" viewBox="0 0 270 96" fill="none" xmlns="http://www.w3.org/2000/svg">
<rect x="0.5" y="24.5" width="269" height="71" rx="15.5" stroke="#332FE8" stroke-opacity="0.5"/>
<path d="M18.232 55V46.424H19.432V55H18.232ZM18.232 44.84V43.08H19.432V44.84H18.232ZM27.887 55.096C27.119 55.096 26.527 54.872 26.111 54.424C25.695 53.976 25.487 53.336 25.487 52.504V47.624H23.903V46.424H24.303C24.6657 46.424 24.9537 46.3067 25.167 46.072C25.3803 45.8267 25.487 45.5227 25.487 45.16V44.44H26.687V46.424H28.575V47.624H26.687V52.504C26.687 52.792 26.7297 53.048 26.815 53.272C26.9003 53.4853 27.0443 53.656 27.247 53.784C27.4603 53.912 27.743 53.976 28.095 53.976C28.1803 53.976 28.2817 53.9707 28.399 53.96C28.5163 53.9493 28.6177 53.9387 28.703 53.928V55C28.575 55.032 28.431 55.0533 28.271 55.064C28.111 55.0853 27.983 55.096 27.887 55.096ZM30.8101 55V42.888H32.0101V48.088L31.7381 48.024C31.9515 47.4693 32.2981 47.032 32.7781 46.712C33.2688 46.392 33.8341 46.232 34.4741 46.232C35.0821 46.232 35.6261 46.3707 36.1061 46.648C36.5968 46.9253 36.9808 47.3093 37.2581 47.8C37.5461 48.28 37.6901 48.824 37.6901 49.432V55H36.4901V49.896C36.4901 49.3733 36.3941 48.9307 36.2021 48.568C36.0101 48.2053 35.7435 47.928 35.4021 47.736C35.0715 47.5333 34.6928 47.432 34.2661 47.432C33.8395 47.432 33.4555 47.5333 33.1141 47.736C32.7728 47.928 32.5008 48.2107 32.2981 48.584C32.1061 48.9467 32.0101 49.384 32.0101 49.896V55H30.8101ZM39.982 55V46.424H41.182V55H39.982ZM39.982 44.84V43.08H41.182V44.84H39.982ZM43.6383 55V46.424H44.8383V48.088L44.5663 48.024C44.7796 47.4693 45.1263 47.032 45.6063 46.712C46.0969 46.392 46.6623 46.232 47.3023 46.232C47.9103 46.232 48.4543 46.3707 48.9343 46.648C49.4249 46.9253 49.8089 47.3093 50.0863 47.8C50.3743 48.28 50.5183 48.824 50.5183 49.432V55H49.3183V49.896C49.3183 49.3733 49.2223 48.9307 49.0303 48.568C48.8489 48.2053 48.5876 47.928 48.2463 47.736C47.9156 47.5333 47.5316 47.432 47.0943 47.432C46.6569 47.432 46.2676 47.5333 45.9263 47.736C45.5849 47.928 45.3183 48.2107 45.1263 48.584C44.9343 48.9467 44.8383 49.384 44.8383 49.896V55H43.6383ZM52.8101 55V42.888H54.0101V51.368L53.4981 51.288L58.3141 46.424H59.8661L56.5061 49.864L60.1701 55H58.7301L55.2901 50.248L56.0581 50.312L53.6101 52.84L54.0101 51.848V55H52.8101ZM67.2705 55.192C66.4492 55.192 65.7292 54.984 65.1105 54.568C64.4918 54.152 64.0438 53.5867 63.7665 52.872L64.7745 52.392C65.0198 52.9147 65.3612 53.3307 65.7985 53.64C66.2465 53.9493 66.7372 54.104 67.2705 54.104C67.7825 54.104 68.2145 53.9813 68.5665 53.736C68.9185 53.48 69.0945 53.1493 69.0945 52.744C69.0945 52.4453 69.0092 52.2107 68.8385 52.04C68.6678 51.8587 68.4705 51.72 68.2465 51.624C68.0225 51.528 67.8252 51.4587 67.6545 51.416L66.4225 51.064C65.6332 50.84 65.0625 50.5253 64.7105 50.12C64.3585 49.7147 64.1825 49.2453 64.1825 48.712C64.1825 48.2107 64.3105 47.7733 64.5665 47.4C64.8225 47.0267 65.1692 46.7387 65.6065 46.536C66.0438 46.3333 66.5292 46.232 67.0625 46.232C67.7878 46.232 68.4438 46.424 69.0305 46.808C69.6278 47.1813 70.0492 47.704 70.2945 48.376L69.2705 48.856C69.0572 48.376 68.7478 48.0027 68.3425 47.736C67.9478 47.4587 67.5052 47.32 67.0145 47.32C66.5345 47.32 66.1505 47.4427 65.8625 47.688C65.5745 47.9333 65.4305 48.2427 65.4305 48.616C65.4305 48.904 65.5052 49.1333 65.6545 49.304C65.8038 49.4747 65.9745 49.6027 66.1665 49.688C66.3692 49.7733 66.5452 49.8373 66.6945 49.88L68.1185 50.296C68.8118 50.4987 69.3505 50.8133 69.7345 51.24C70.1292 51.6667 70.3265 52.168 70.3265 52.744C70.3265 53.2133 70.1932 53.6347 69.9265 54.008C69.6705 54.3813 69.3132 54.6747 68.8545 54.888C68.3958 55.0907 67.8678 55.192 67.2705 55.192ZM72.4351 55V42.888H73.6351V48.088L73.3631 48.024C73.5765 47.4693 73.9231 47.032 74.4031 46.712C74.8938 46.392 75.4591 46.232 76.0991 46.232C76.7071 46.232 77.2511 46.3707 77.7311 46.648C78.2218 46.9253 78.6058 47.3093 78.8831 47.8C79.1711 48.28 79.3151 48.824 79.3151 49.432V55H78.1151V49.896C78.1151 49.3733 78.0191 48.9307 77.8271 48.568C77.6351 48.2053 77.3685 47.928 77.0271 47.736C76.6965 47.5333 76.3178 47.432 75.8911 47.432C75.4645 47.432 75.0805 47.5333 74.7391 47.736C74.3978 47.928 74.1258 48.2107 73.9231 48.584C73.7311 48.9467 73.6351 49.384 73.6351 49.896V55H72.4351ZM85.511 55.192C84.711 55.192 83.9857 55 83.335 54.616C82.695 54.2213 82.1883 53.6827 81.815 53C81.4417 52.3173 81.255 51.544 81.255 50.68C81.255 49.816 81.4363 49.0533 81.799 48.392C82.1617 47.72 82.6523 47.192 83.271 46.808C83.9003 46.424 84.6043 46.232 85.383 46.232C86.0017 46.232 86.551 46.3493 87.031 46.584C87.5217 46.808 87.9377 47.1173 88.279 47.512C88.6203 47.896 88.8817 48.3333 89.063 48.824C89.2443 49.304 89.335 49.8 89.335 50.312C89.335 50.4187 89.3297 50.5413 89.319 50.68C89.3083 50.808 89.2923 50.9413 89.271 51.08H82.023V49.96H88.583L88.007 50.44C88.103 49.8533 88.0337 49.3307 87.799 48.872C87.575 48.4027 87.2497 48.0347 86.823 47.768C86.3963 47.4907 85.9163 47.352 85.383 47.352C84.8497 47.352 84.3537 47.4907 83.895 47.768C83.447 48.0453 83.095 48.4347 82.839 48.936C82.583 49.4267 82.4817 50.0133 82.535 50.696C82.4817 51.3787 82.5883 51.976 82.855 52.488C83.1323 52.9893 83.5057 53.3787 83.975 53.656C84.455 53.9333 84.967 54.072 85.511 54.072C86.1403 54.072 86.6683 53.9227 87.095 53.624C87.5217 53.3253 87.8683 52.952 88.135 52.504L89.159 53.048C88.9883 53.432 88.727 53.7893 88.375 54.12C88.023 54.44 87.6017 54.7013 87.111 54.904C86.631 55.096 86.0977 55.192 85.511 55.192ZM94.1695 55V42.888H95.3695V55H94.1695ZM97.8258 55V46.424H99.0258V55H97.8258ZM97.8258 44.84V43.08H99.0258V44.84H97.8258ZM101.482 55V42.888H102.682V51.368L102.17 51.288L106.986 46.424H108.538L105.178 49.864L108.842 55H107.402L103.962 50.248L104.73 50.312L102.282 52.84L102.682 51.848V55H101.482ZM113.995 55.192C113.195 55.192 112.47 55 111.819 54.616C111.179 54.2213 110.673 53.6827 110.299 53C109.926 52.3173 109.739 51.544 109.739 50.68C109.739 49.816 109.921 49.0533 110.283 48.392C110.646 47.72 111.137 47.192 111.755 46.808C112.385 46.424 113.089 46.232 113.867 46.232C114.486 46.232 115.035 46.3493 115.515 46.584C116.006 46.808 116.422 47.1173 116.763 47.512C117.105 47.896 117.366 48.3333 117.547 48.824C117.729 49.304 117.819 49.8 117.819 50.312C117.819 50.4187 117.814 50.5413 117.803 50.68C117.793 50.808 117.777 50.9413 117.755 51.08H110.507V49.96H117.067L116.491 50.44C116.587 49.8533 116.518 49.3307 116.283 48.872C116.059 48.4027 115.734 48.0347 115.307 47.768C114.881 47.4907 114.401 47.352 113.867 47.352C113.334 47.352 112.838 47.4907 112.379 47.768C111.931 48.0453 111.579 48.4347 111.323 48.936C111.067 49.4267 110.966 50.0133 111.019 50.696C110.966 51.3787 111.073 51.976 111.339 52.488C111.617 52.9893 111.99 53.3787 112.459 53.656C112.939 53.9333 113.451 54.072 113.995 54.072C114.625 54.072 115.153 53.9227 115.579 53.624C116.006 53.3253 116.353 52.952 116.619 52.504L117.643 53.048C117.473 53.432 117.211 53.7893 116.859 54.12C116.507 54.44 116.086 54.7013 115.595 54.904C115.115 55.096 114.582 55.192 113.995 55.192ZM122.911 55.192C122.09 55.192 121.37 54.984 120.751 54.568C120.132 54.152 119.684 53.5867 119.407 52.872L120.415 52.392C120.66 52.9147 121.002 53.3307 121.439 53.64C121.887 53.9493 122.378 54.104 122.911 54.104C123.423 54.104 123.855 53.9813 124.207 53.736C124.559 53.48 124.735 53.1493 124.735 52.744C124.735 52.4453 124.65 52.2107 124.479 52.04C124.308 51.8587 124.111 51.72 123.887 51.624C123.663 51.528 123.466 51.4587 123.295 51.416L122.063 51.064C121.274 50.84 120.703 50.5253 120.351 50.12C119.999 49.7147 119.823 49.2453 119.823 48.712C119.823 48.2107 119.951 47.7733 120.207 47.4C120.463 47.0267 120.81 46.7387 121.247 46.536C121.684 46.3333 122.17 46.232 122.703 46.232C123.428 46.232 124.084 46.424 124.671 46.808C125.268 47.1813 125.69 47.704 125.935 48.376L124.911 48.856C124.698 48.376 124.388 48.0027 123.983 47.736C123.588 47.4587 123.146 47.32 122.655 47.32C122.175 47.32 121.791 47.4427 121.503 47.688C121.215 47.9333 121.071 48.2427 121.071 48.616C121.071 48.904 121.146 49.1333 121.295 49.304C121.444 49.4747 121.615 49.6027 121.807 49.688C122.01 49.7733 122.186 49.8373 122.335 49.88L123.759 50.296C124.452 50.4987 124.991 50.8133 125.375 51.24C125.77 51.6667 125.967 52.168 125.967 52.744C125.967 53.2133 125.834 53.6347 125.567 54.008C125.311 54.3813 124.954 54.6747 124.495 54.888C124.036 55.0907 123.508 55.192 122.911 55.192ZM130.795 55V46.424H131.995V47.832L131.835 47.624C132.037 47.2187 132.341 46.8987 132.747 46.664C133.163 46.4293 133.664 46.312 134.251 46.312H134.795V47.512H134.043C133.424 47.512 132.928 47.704 132.555 48.088C132.181 48.472 131.995 49.016 131.995 49.72V55H130.795ZM140.105 55.192C139.305 55.192 138.579 55 137.929 54.616C137.289 54.2213 136.782 53.6827 136.409 53C136.035 52.3173 135.849 51.544 135.849 50.68C135.849 49.816 136.03 49.0533 136.393 48.392C136.755 47.72 137.246 47.192 137.865 46.808C138.494 46.424 139.198 46.232 139.977 46.232C140.595 46.232 141.145 46.3493 141.625 46.584C142.115 46.808 142.531 47.1173 142.873 47.512C143.214 47.896 143.475 48.3333 143.657 48.824C143.838 49.304 143.929 49.8 143.929 50.312C143.929 50.4187 143.923 50.5413 143.913 50.68C143.902 50.808 143.886 50.9413 143.865 51.08H136.617V49.96H143.177L142.601 50.44C142.697 49.8533 142.627 49.3307 142.393 48.872C142.169 48.4027 141.843 48.0347 141.417 47.768C140.99 47.4907 140.51 47.352 139.977 47.352C139.443 47.352 138.947 47.4907 138.489 47.768C138.041 48.0453 137.689 48.4347 137.433 48.936C137.177 49.4267 137.075 50.0133 137.129 50.696C137.075 51.3787 137.182 51.976 137.449 52.488C137.726 52.9893 138.099 53.3787 138.569 53.656C139.049 53.9333 139.561 54.072 140.105 54.072C140.734 54.072 141.262 53.9227 141.689 53.624C142.115 53.3253 142.462 52.952 142.729 52.504L143.753 53.048C143.582 53.432 143.321 53.7893 142.969 54.12C142.617 54.44 142.195 54.7013 141.705 54.904C141.225 55.096 140.691 55.192 140.105 55.192ZM149.949 55.192C149.149 55.192 148.423 55 147.773 54.616C147.133 54.2213 146.626 53.6827 146.253 53C145.879 52.3173 145.693 51.544 145.693 50.68C145.693 49.816 145.874 49.0533 146.237 48.392C146.599 47.72 147.09 47.192 147.709 46.808C148.338 46.424 149.042 46.232 149.821 46.232C150.439 46.232 150.989 46.3493 151.469 46.584C151.959 46.808 152.375 47.1173 152.717 47.512C153.058 47.896 153.319 48.3333 153.501 48.824C153.682 49.304 153.773 49.8 153.773 50.312C153.773 50.4187 153.767 50.5413 153.757 50.68C153.746 50.808 153.73 50.9413 153.709 51.08H146.461V49.96H153.021L152.445 50.44C152.541 49.8533 152.471 49.3307 152.237 48.872C152.013 48.4027 151.687 48.0347 151.261 47.768C150.834 47.4907 150.354 47.352 149.821 47.352C149.287 47.352 148.791 47.4907 148.333 47.768C147.885 48.0453 147.533 48.4347 147.277 48.936C147.021 49.4267 146.919 50.0133 146.973 50.696C146.919 51.3787 147.026 51.976 147.293 52.488C147.57 52.9893 147.943 53.3787 148.413 53.656C148.893 53.9333 149.405 54.072 149.949 54.072C150.578 54.072 151.106 53.9227 151.533 53.624C151.959 53.3253 152.306 52.952 152.573 52.504L153.597 53.048C153.426 53.432 153.165 53.7893 152.812 54.12C152.461 54.44 152.039 54.7013 151.549 54.904C151.069 55.096 150.535 55.192 149.949 55.192ZM158.864 55.192C158.043 55.192 157.323 54.984 156.704 54.568C156.086 54.152 155.638 53.5867 155.36 52.872L156.368 52.392C156.614 52.9147 156.955 53.3307 157.392 53.64C157.84 53.9493 158.331 54.104 158.864 54.104C159.376 54.104 159.808 53.9813 160.16 53.736C160.512 53.48 160.688 53.1493 160.688 52.744C160.688 52.4453 160.603 52.2107 160.432 52.04C160.262 51.8587 160.064 51.72 159.84 51.624C159.616 51.528 159.419 51.4587 159.248 51.416L158.016 51.064C157.227 50.84 156.656 50.5253 156.304 50.12C155.952 49.7147 155.776 49.2453 155.776 48.712C155.776 48.2107 155.904 47.7733 156.16 47.4C156.416 47.0267 156.763 46.7387 157.2 46.536C157.638 46.3333 158.123 46.232 158.656 46.232C159.382 46.232 160.038 46.424 160.624 46.808C161.222 47.1813 161.643 47.704 161.888 48.376L160.864 48.856C160.651 48.376 160.342 48.0027 159.936 47.736C159.542 47.4587 159.099 47.32 158.608 47.32C158.128 47.32 157.744 47.4427 157.456 47.688C157.168 47.9333 157.024 48.2427 157.024 48.616C157.024 48.904 157.099 49.1333 157.248 49.304C157.398 49.4747 157.568 49.6027 157.76 49.688C157.963 49.7733 158.139 49.8373 158.288 49.88L159.712 50.296C160.406 50.4987 160.944 50.8133 161.328 51.24C161.723 51.6667 161.92 52.168 161.92 52.744C161.92 53.2133 161.787 53.6347 161.52 54.008C161.264 54.3813 160.907 54.6747 160.448 54.888C159.99 55.0907 159.462 55.192 158.864 55.192ZM167.933 55.192C167.133 55.192 166.408 55 165.757 54.616C165.117 54.2213 164.61 53.6827 164.237 53C163.864 52.3173 163.677 51.544 163.677 50.68C163.677 49.816 163.858 49.0533 164.221 48.392C164.584 47.72 165.074 47.192 165.693 46.808C166.322 46.424 167.026 46.232 167.805 46.232C168.424 46.232 168.973 46.3493 169.453 46.584C169.944 46.808 170.36 47.1173 170.701 47.512C171.042 47.896 171.304 48.3333 171.485 48.824C171.666 49.304 171.757 49.8 171.757 50.312C171.757 50.4187 171.752 50.5413 171.741 50.68C171.73 50.808 171.714 50.9413 171.693 51.08H164.445V49.96H171.005L170.429 50.44C170.525 49.8533 170.456 49.3307 170.221 48.872C169.997 48.4027 169.672 48.0347 169.245 47.768C168.818 47.4907 168.338 47.352 167.805 47.352C167.272 47.352 166.776 47.4907 166.317 47.768C165.869 48.0453 165.517 48.4347 165.261 48.936C165.005 49.4267 164.904 50.0133 164.957 50.696C164.904 51.3787 165.01 51.976 165.277 52.488C165.554 52.9893 165.928 53.3787 166.397 53.656C166.877 53.9333 167.389 54.072 167.933 54.072C168.562 54.072 169.09 53.9227 169.517 53.624C169.944 53.3253 170.29 52.952 170.557 52.504L171.581 53.048C171.41 53.432 171.149 53.7893 170.797 54.12C170.445 54.44 170.024 54.7013 169.533 54.904C169.053 55.096 168.52 55.192 167.933 55.192ZM176.849 55.192C176.027 55.192 175.307 54.984 174.689 54.568C174.07 54.152 173.622 53.5867 173.345 52.872L174.353 52.392C174.598 52.9147 174.939 53.3307 175.377 53.64C175.825 53.9493 176.315 54.104 176.849 54.104C177.361 54.104 177.793 53.9813 178.145 53.736C178.497 53.48 178.673 53.1493 178.673 52.744C178.673 52.4453 178.587 52.2107 178.417 52.04C178.246 51.8587 178.049 51.72 177.825 51.624C177.601 51.528 177.403 51.4587 177.233 51.416L176.001 51.064C175.211 50.84 174.641 50.5253 174.289 50.12C173.937 49.7147 173.761 49.2453 173.761 48.712C173.761 48.2107 173.889 47.7733 174.145 47.4C174.401 47.0267 174.747 46.7387 175.185 46.536C175.622 46.3333 176.107 46.232 176.641 46.232C177.366 46.232 178.022 46.424 178.609 46.808C179.206 47.1813 179.627 47.704 179.873 48.376L178.849 48.856C178.635 48.376 178.326 48.0027 177.921 47.736C177.526 47.4587 177.083 47.32 176.593 47.32C176.113 47.32 175.729 47.4427 175.441 47.688C175.153 47.9333 175.009 48.2427 175.009 48.616C175.009 48.904 175.083 49.1333 175.233 49.304C175.382 49.4747 175.553 49.6027 175.745 49.688C175.947 49.7733 176.123 49.8373 176.273 49.88L177.697 50.296C178.39 50.4987 178.929 50.8133 179.313 51.24C179.707 51.6667 179.905 52.168 179.905 52.744C179.905 53.2133 179.771 53.6347 179.505 54.008C179.249 54.3813 178.891 54.6747 178.433 54.888C177.974 55.0907 177.446 55.192 176.849 55.192ZM184.732 55V46.424H185.932V48.088L185.66 48.024C185.873 47.4693 186.22 47.032 186.7 46.712C187.191 46.392 187.756 46.232 188.396 46.232C189.004 46.232 189.548 46.3707 190.028 46.648C190.519 46.9253 190.903 47.3093 191.18 47.8C191.468 48.28 191.612 48.824 191.612 49.432V55H190.412V49.896C190.412 49.3733 190.316 48.9307 190.124 48.568C189.943 48.2053 189.681 47.928 189.34 47.736C189.009 47.5333 188.625 47.432 188.188 47.432C187.751 47.432 187.361 47.5333 187.02 47.736C186.679 47.928 186.412 48.2107 186.22 48.584C186.028 48.9467 185.932 49.384 185.932 49.896V55H184.732ZM197.92 55.192C197.109 55.192 196.373 55 195.712 54.616C195.051 54.2213 194.523 53.688 194.128 53.016C193.744 52.3333 193.552 51.56 193.552 50.696C193.552 49.8427 193.744 49.08 194.128 48.408C194.512 47.736 195.029 47.208 195.68 46.824C196.341 46.4293 197.088 46.232 197.92 46.232C198.752 46.232 199.493 46.424 200.144 46.808C200.805 47.192 201.323 47.72 201.696 48.392C202.08 49.064 202.272 49.832 202.272 50.696C202.272 51.5707 202.075 52.3493 201.68 53.032C201.285 53.704 200.757 54.232 200.096 54.616C199.445 55 198.72 55.192 197.92 55.192ZM197.92 53.992C198.496 53.992 199.013 53.848 199.472 53.56C199.941 53.272 200.309 52.8773 200.576 52.376C200.853 51.8747 200.992 51.3147 200.992 50.696C200.992 50.0773 200.853 49.5227 200.576 49.032C200.309 48.5413 199.941 48.152 199.472 47.864C199.013 47.576 198.496 47.432 197.92 47.432C197.344 47.432 196.821 47.576 196.352 47.864C195.893 48.152 195.525 48.5413 195.248 49.032C194.971 49.5227 194.832 50.0773 194.832 50.696C194.832 51.3147 194.971 51.8747 195.248 52.376C195.525 52.8773 195.893 53.272 196.352 53.56C196.821 53.848 197.344 53.992 197.92 53.992ZM207.512 55.096C206.744 55.096 206.152 54.872 205.736 54.424C205.32 53.976 205.112 53.336 205.112 52.504V47.624H203.528V46.424H203.928C204.291 46.424 204.579 46.3067 204.792 46.072C205.005 45.8267 205.112 45.5227 205.112 45.16V44.44H206.312V46.424H208.2V47.624H206.312V52.504C206.312 52.792 206.355 53.048 206.44 53.272C206.525 53.4853 206.669 53.656 206.872 53.784C207.085 53.912 207.368 53.976 207.72 53.976C207.805 53.976 207.907 53.9707 208.024 53.96C208.141 53.9493 208.243 53.9387 208.328 53.928V55C208.2 55.032 208.056 55.0533 207.896 55.064C207.736 55.0853 207.608 55.096 207.512 55.096ZM216.13 55.192C215.309 55.192 214.589 54.984 213.97 54.568C213.351 54.152 212.903 53.5867 212.626 52.872L213.634 52.392C213.879 52.9147 214.221 53.3307 214.658 53.64C215.106 53.9493 215.597 54.104 216.13 54.104C216.642 54.104 217.074 53.9813 217.426 53.736C217.778 53.48 217.954 53.1493 217.954 52.744C217.954 52.4453 217.869 52.2107 217.698 52.04C217.527 51.8587 217.33 51.72 217.106 51.624C216.882 51.528 216.685 51.4587 216.514 51.416L215.282 51.064C214.493 50.84 213.922 50.5253 213.57 50.12C213.218 49.7147 213.042 49.2453 213.042 48.712C213.042 48.2107 213.17 47.7733 213.426 47.4C213.682 47.0267 214.029 46.7387 214.466 46.536C214.903 46.3333 215.389 46.232 215.922 46.232C216.647 46.232 217.303 46.424 217.89 46.808C218.487 47.1813 218.909 47.704 219.154 48.376L218.13 48.856C217.917 48.376 217.607 48.0027 217.202 47.736C216.807 47.4587 216.365 47.32 215.874 47.32C215.394 47.32 215.01 47.4427 214.722 47.688C214.434 47.9333 214.29 48.2427 214.29 48.616C214.29 48.904 214.365 49.1333 214.514 49.304C214.663 49.4747 214.834 49.6027 215.026 49.688C215.229 49.7733 215.405 49.8373 215.554 49.88L216.978 50.296C217.671 50.4987 218.21 50.8133 218.594 51.24C218.989 51.6667 219.186 52.168 219.186 52.744C219.186 53.2133 219.053 53.6347 218.786 54.008C218.53 54.3813 218.173 54.6747 217.714 54.888C217.255 55.0907 216.727 55.192 216.13 55.192ZM224.335 55.192C223.737 55.192 223.193 55.0533 222.703 54.776C222.212 54.488 221.823 54.0933 221.535 53.592C221.257 53.08 221.118 52.4933 221.118 51.832V46.424H222.319V51.688C222.319 52.1467 222.409 52.552 222.591 52.904C222.783 53.2453 223.044 53.512 223.375 53.704C223.716 53.896 224.105 53.992 224.543 53.992C224.98 53.992 225.369 53.896 225.711 53.704C226.052 53.5013 226.319 53.2187 226.511 52.856C226.703 52.4827 226.799 52.04 226.799 51.528V46.424H227.999V55H226.799V53.336L227.071 53.4C226.868 53.9547 226.521 54.392 226.031 54.712C225.54 55.032 224.975 55.192 224.335 55.192ZM230.466 55V46.424H231.666V47.832L231.506 47.624C231.709 47.2187 232.013 46.8987 232.418 46.664C232.834 46.4293 233.336 46.312 233.922 46.312H234.466V47.512H233.714C233.096 47.512 232.6 47.704 232.226 48.088C231.853 48.472 231.666 49.016 231.666 49.72V55H230.466ZM239.777 55.192C238.977 55.192 238.251 55 237.601 54.616C236.961 54.2213 236.454 53.6827 236.081 53C235.707 52.3173 235.521 51.544 235.521 50.68C235.521 49.816 235.702 49.0533 236.065 48.392C236.427 47.72 236.918 47.192 237.537 46.808C238.166 46.424 238.87 46.232 239.649 46.232C240.267 46.232 240.817 46.3493 241.297 46.584C241.787 46.808 242.203 47.1173 242.545 47.512C242.886 47.896 243.147 48.3333 243.329 48.824C243.51 49.304 243.601 49.8 243.601 50.312C243.601 50.4187 243.595 50.5413 243.585 50.68C243.574 50.808 243.558 50.9413 243.537 51.08H236.289V49.96H242.849L242.273 50.44C242.369 49.8533 242.299 49.3307 242.065 48.872C241.841 48.4027 241.515 48.0347 241.089 47.768C240.662 47.4907 240.182 47.352 239.649 47.352C239.115 47.352 238.619 47.4907 238.161 47.768C237.713 48.0453 237.361 48.4347 237.105 48.936C236.849 49.4267 236.747 50.0133 236.801 50.696C236.747 51.3787 236.854 51.976 237.121 52.488C237.398 52.9893 237.771 53.3787 238.241 53.656C238.721 53.9333 239.233 54.072 239.777 54.072C240.406 54.072 240.934 53.9227 241.361 53.624C241.787 53.3253 242.134 52.952 242.401 52.504L243.425 53.048C243.254 53.432 242.993 53.7893 242.641 54.12C242.289 54.44 241.867 54.7013 241.377 54.904C240.897 55.096 240.363 55.192 239.777 55.192ZM21.512 79.096C20.744 79.096 20.152 78.872 19.736 78.424C19.32 77.976 19.112 77.336 19.112 76.504V71.624H17.528V70.424H17.928C18.2907 70.424 18.5787 70.3067 18.792 70.072C19.0053 69.8267 19.112 69.5227 19.112 69.16V68.44H20.312V70.424H22.2V71.624H20.312V76.504C20.312 76.792 20.3547 77.048 20.44 77.272C20.5253 77.4853 20.6693 77.656 20.872 77.784C21.0853 77.912 21.368 77.976 21.72 77.976C21.8053 77.976 21.9067 77.9707 22.024 77.96C22.1413 77.9493 22.2427 77.9387 22.328 77.928V79C22.2 79.032 22.056 79.0533 21.896 79.064C21.736 79.0853 21.608 79.096 21.512 79.096ZM24.4351 79V66.888H25.6351V72.088L25.3631 72.024C25.5765 71.4693 25.9231 71.032 26.4031 70.712C26.8938 70.392 27.4591 70.232 28.0991 70.232C28.7071 70.232 29.2511 70.3707 29.7311 70.648C30.2218 70.9253 30.6058 71.3093 30.8831 71.8C31.1711 72.28 31.3151 72.824 31.3151 73.432V79H30.1151V73.896C30.1151 73.3733 30.0191 72.9307 29.8271 72.568C29.6351 72.2053 29.3685 71.928 29.0271 71.736C28.6965 71.5333 28.3178 71.432 27.8911 71.432C27.4645 71.432 27.0805 71.5333 26.7391 71.736C26.3978 71.928 26.1258 72.2107 25.9231 72.584C25.7311 72.9467 25.6351 73.384 25.6351 73.896V79H24.4351ZM37.623 79.192C36.8123 79.192 36.0763 79 35.415 78.616C34.7537 78.2213 34.2257 77.688 33.831 77.016C33.447 76.3333 33.255 75.56 33.255 74.696C33.255 73.8427 33.447 73.08 33.831 72.408C34.215 71.736 34.7323 71.208 35.383 70.824C36.0443 70.4293 36.791 70.232 37.623 70.232C38.455 70.232 39.1963 70.424 39.847 70.808C40.5083 71.192 41.0257 71.72 41.399 72.392C41.783 73.064 41.975 73.832 41.975 74.696C41.975 75.5707 41.7777 76.3493 41.383 77.032C40.9883 77.704 40.4603 78.232 39.799 78.616C39.1483 79 38.423 79.192 37.623 79.192ZM37.623 77.992C38.199 77.992 38.7163 77.848 39.175 77.56C39.6443 77.272 40.0123 76.8773 40.279 76.376C40.5563 75.8747 40.695 75.3147 40.695 74.696C40.695 74.0773 40.5563 73.5227 40.279 73.032C40.0123 72.5413 39.6443 72.152 39.175 71.864C38.7163 71.576 38.199 71.432 37.623 71.432C37.047 71.432 36.5243 71.576 36.055 71.864C35.5963 72.152 35.2283 72.5413 34.951 73.032C34.6737 73.5227 34.535 74.0773 34.535 74.696C34.535 75.3147 34.6737 75.8747 34.951 76.376C35.2283 76.8773 35.5963 77.272 36.055 77.56C36.5243 77.848 37.047 77.992 37.623 77.992Z" fill="black" fill-opacity="0.5"/>
<path d="M1.232 14V5.424H2.432V7.056L2.24 6.816C2.47467 6.31467 2.82133 5.92533 3.28 5.648C3.74933 5.37067 4.26133 5.232 4.816 5.232C5.47733 5.232 6.07467 5.41867 6.608 5.792C7.14133 6.16533 7.52 6.65067 7.744 7.248L7.408 7.264C7.62133 6.60267 7.98933 6.10133 8.512 5.76C9.04533 5.408 9.632 5.232 10.272 5.232C10.848 5.232 11.376 5.37067 11.856 5.648C12.3467 5.92533 12.736 6.30933 13.024 6.8C13.3227 7.28 13.472 7.824 13.472 8.432V14H12.272V8.896C12.272 8.37333 12.176 7.93067 11.984 7.568C11.8027 7.20533 11.552 6.928 11.232 6.736C10.912 6.53333 10.544 6.432 10.128 6.432C9.72267 6.432 9.35467 6.53333 9.024 6.736C8.69333 6.928 8.432 7.21067 8.24 7.584C8.048 7.94667 7.952 8.384 7.952 8.896V14H6.752V8.896C6.752 8.37333 6.656 7.93067 6.464 7.568C6.28267 7.20533 6.032 6.928 5.712 6.736C5.392 6.53333 5.024 6.432 4.608 6.432C4.192 6.432 3.81867 6.53333 3.488 6.736C3.168 6.928 2.912 7.21067 2.72 7.584C2.528 7.94667 2.432 8.384 2.432 8.896V14H1.232ZM19.6673 14.192C18.8673 14.192 18.1419 14 17.4913 13.616C16.8513 13.2213 16.3446 12.6827 15.9713 12C15.5979 11.3173 15.4113 10.544 15.4113 9.68C15.4113 8.816 15.5926 8.05333 15.9553 7.392C16.3179 6.72 16.8086 6.192 17.4273 5.808C18.0566 5.424 18.7606 5.232 19.5393 5.232C20.1579 5.232 20.7073 5.34933 21.1873 5.584C21.6779 5.808 22.0939 6.11733 22.4353 6.512C22.7766 6.896 23.0379 7.33333 23.2193 7.824C23.4006 8.304 23.4913 8.8 23.4913 9.312C23.4913 9.41867 23.4859 9.54133 23.4753 9.68C23.4646 9.808 23.4486 9.94133 23.4273 10.08H16.1793V8.96H22.7393L22.1633 9.44C22.2593 8.85333 22.1899 8.33067 21.9553 7.872C21.7313 7.40267 21.4059 7.03467 20.9793 6.768C20.5526 6.49067 20.0726 6.352 19.5393 6.352C19.0059 6.352 18.5099 6.49067 18.0513 6.768C17.6033 7.04533 17.2513 7.43467 16.9953 7.936C16.7393 8.42667 16.6379 9.01333 16.6913 9.696C16.6379 10.3787 16.7446 10.976 17.0113 11.488C17.2886 11.9893 17.6619 12.3787 18.1313 12.656C18.6113 12.9333 19.1233 13.072 19.6673 13.072C20.2966 13.072 20.8246 12.9227 21.2513 12.624C21.6779 12.3253 22.0246 11.952 22.2913 11.504L23.3153 12.048C23.1446 12.432 22.8833 12.7893 22.5312 13.12C22.1793 13.44 21.7579 13.7013 21.2673 13.904C20.7873 14.096 20.2539 14.192 19.6673 14.192ZM29.511 14.192C28.711 14.192 27.9857 14 27.335 13.616C26.695 13.2213 26.1883 12.6827 25.815 12C25.4417 11.3173 25.255 10.544 25.255 9.68C25.255 8.816 25.4363 8.05333 25.799 7.392C26.1617 6.72 26.6523 6.192 27.271 5.808C27.9003 5.424 28.6043 5.232 29.383 5.232C30.0017 5.232 30.551 5.34933 31.031 5.584C31.5217 5.808 31.9377 6.11733 32.279 6.512C32.6203 6.896 32.8817 7.33333 33.063 7.824C33.2443 8.304 33.335 8.8 33.335 9.312C33.335 9.41867 33.3297 9.54133 33.319 9.68C33.3083 9.808 33.2923 9.94133 33.271 10.08H26.023V8.96H32.583L32.007 9.44C32.103 8.85333 32.0337 8.33067 31.799 7.872C31.575 7.40267 31.2497 7.03467 30.823 6.768C30.3963 6.49067 29.9163 6.352 29.383 6.352C28.8497 6.352 28.3537 6.49067 27.895 6.768C27.447 7.04533 27.095 7.43467 26.839 7.936C26.583 8.42667 26.4817 9.01333 26.535 9.696C26.4817 10.3787 26.5883 10.976 26.855 11.488C27.1323 11.9893 27.5057 12.3787 27.975 12.656C28.455 12.9333 28.967 13.072 29.511 13.072C30.1403 13.072 30.6683 12.9227 31.095 12.624C31.5217 12.3253 31.8683 11.952 32.135 11.504L33.159 12.048C32.9883 12.432 32.727 12.7893 32.375 13.12C32.023 13.44 31.6017 13.7013 31.111 13.904C30.631 14.096 30.0977 14.192 29.511 14.192ZM36.3307 14V6.624H34.6188V5.424H36.3307V4.656C36.3307 4.05867 36.4641 3.55733 36.7308 3.152C36.9974 2.736 37.3494 2.42133 37.7868 2.208C38.2241 1.99467 38.6934 1.888 39.1948 1.888C39.3014 1.888 39.4241 1.89867 39.5628 1.92C39.7014 1.93067 39.8134 1.94667 39.8988 1.968V3.056C39.8241 3.03467 39.7228 3.024 39.5948 3.024C39.4668 3.01333 39.3761 3.008 39.3228 3.008C38.8108 3.008 38.3841 3.13067 38.0428 3.376C37.7014 3.62133 37.5308 4.048 37.5308 4.656V5.424H39.6268V6.624H37.5308V14H36.3307Z" fill="#332FE8" fill-opacity="0.5"/>
</svg>
