<svg width="18" height="278" viewBox="0 0 18 278" fill="none" xmlns="http://www.w3.org/2000/svg">
<path d="M13 274.281L2.23437 274.281L2.23437 277.937L1.375 277.937L1.375 269.609L2.23437 269.609L2.23437 273.266L13 273.266L13 274.281ZM13 268.398L1.11719 268.398L1.03125 267.43L5.11719 267.43C5.22656 267.43 5.30208 267.43 5.34375 267.43C5.38542 267.43 5.40885 267.432 5.41406 267.437C5.41927 267.437 5.44792 267.44 5.5 267.445C5.55208 267.445 5.63021 267.448 5.73437 267.453C4.76562 266.755 4.28125 265.755 4.28125 264.453C4.28125 262.594 5.40365 261.664 7.64844 261.664L13 261.664L13 262.625L7.83594 262.625C6.8724 262.625 6.17708 262.773 5.75 263.07C5.31771 263.367 5.10156 263.891 5.10156 264.641C5.10156 265.385 5.29948 266.005 5.69531 266.5C6.08594 266.995 6.59115 267.299 7.21094 267.414C7.41927 267.424 7.72917 267.43 8.14062 267.43L13 267.43L13 268.398ZM13 259.312L4.4375 259.312L4.4375 258.336L13 258.336L13 259.312ZM2.6875 259.312L1.375 259.312L1.375 258.344L2.6875 258.344L2.6875 259.312ZM13.1953 253.43C13.1953 253.982 13.1276 254.5 12.9922 254.984C12.8568 255.469 12.6953 255.852 12.5078 256.133L11.6953 255.992C12.1432 255.133 12.3672 254.31 12.3672 253.523C12.3672 252.112 11.8437 251.38 10.7969 251.328C10.3594 251.328 10.0156 251.471 9.76562 251.758C9.51562 252.039 9.25521 252.607 8.98437 253.461C8.82812 253.909 8.74219 254.156 8.72656 254.203C8.32031 255.542 7.59896 256.216 6.5625 256.227C5.96354 256.227 5.43489 255.964 4.97656 255.437C4.51302 254.906 4.28125 254.19 4.28125 253.289C4.28125 252.388 4.45833 251.542 4.8125 250.75L5.53125 251.078C5.22917 251.88 5.07812 252.625 5.07812 253.312C5.07812 253.917 5.21354 254.393 5.48437 254.742C5.75521 255.086 6.11979 255.258 6.57812 255.258C6.96354 255.258 7.26042 255.146 7.46875 254.922C7.67187 254.693 7.86719 254.242 8.05469 253.57C8.07552 253.497 8.12239 253.365 8.19531 253.172C8.26823 252.974 8.30729 252.865 8.3125 252.844C8.58854 251.943 8.91667 251.315 9.29687 250.961C9.67187 250.602 10.1849 250.422 10.8359 250.422C11.5859 250.437 12.1667 250.719 12.5781 251.266C12.9896 251.807 13.1953 252.529 13.1953 253.43ZM13.1875 241.359C13.1875 242.187 12.9844 242.906 12.5781 243.516C12.1719 244.125 11.6432 244.578 10.9922 244.875C10.3359 245.172 9.60677 245.32 8.80469 245.32C8.1901 245.32 7.61198 245.232 7.07031 245.055C6.52864 244.878 6.04948 244.628 5.63281 244.305C5.21614 243.977 4.88802 243.557 4.64844 243.047C4.40364 242.531 4.28125 241.958 4.28125 241.328C4.28125 240.917 4.33594 240.508 4.44531 240.102C4.55469 239.69 4.68489 239.385 4.83594 239.187L5.5625 239.492C5.26042 240.029 5.10937 240.664 5.10937 241.398C5.10937 242.289 5.44792 242.995 6.125 243.516C6.79687 244.036 7.6901 244.297 8.80469 244.297C9.87239 244.297 10.737 244.039 11.3984 243.523C12.0547 243.003 12.3828 242.294 12.3828 241.398C12.3828 240.773 12.2266 240.102 11.9141 239.383L12.6094 239.234C12.7917 239.479 12.9323 239.797 13.0312 240.187C13.1354 240.578 13.1875 240.969 13.1875 241.359ZM13.1875 235.094C13.1875 235.901 12.9844 236.547 12.5781 237.031C12.1719 237.516 11.5911 237.758 10.8359 237.758C10.388 237.758 10 237.661 9.67187 237.469C9.33854 237.276 9.07031 236.997 8.86719 236.633C8.65885 236.263 8.49739 235.844 8.38281 235.375C8.26823 234.901 8.1875 234.352 8.14062 233.727C8.09896 233.06 8.0651 232.565 8.03906 232.242L7.08594 232.242C6.42969 232.242 5.9375 232.393 5.60937 232.695C5.27604 232.992 5.10937 233.471 5.10937 234.133C5.10937 235.039 5.32552 235.885 5.75781 236.672C5.70573 236.693 5.59375 236.742 5.42187 236.82C5.24479 236.893 5.10937 236.945 5.01562 236.977C4.80729 236.654 4.63281 236.232 4.49219 235.711C4.35156 235.19 4.28125 234.68 4.28125 234.18C4.28125 233.154 4.5026 232.417 4.94531 231.969C5.38281 231.521 6.16146 231.297 7.28125 231.297L13 231.297L13 232.055C12.8802 232.081 12.6432 232.12 12.2891 232.172C11.9349 232.219 11.7526 232.242 11.7422 232.242C12.7057 232.914 13.1875 233.865 13.1875 235.094ZM12.4141 235.062C12.4141 234.396 12.2187 233.805 11.8281 233.289C11.4323 232.768 10.8854 232.427 10.1875 232.266L8.72656 232.266C8.78906 233.016 8.82031 233.393 8.82031 233.398C8.93489 234.669 9.14323 235.552 9.44531 236.047C9.74739 236.542 10.2161 236.789 10.8516 236.789C11.3724 236.789 11.763 236.633 12.0234 236.32C12.2839 236.003 12.4141 235.583 12.4141 235.062ZM13 228.937C7.82291 228.953 4.96875 228.961 4.4375 228.961L4.4375 228.117L5.75 227.992C5.32291 227.742 4.97135 227.37 4.69531 226.875C4.41927 226.375 4.28125 225.846 4.28125 225.289C4.28125 223.919 4.82031 223.06 5.89844 222.711C4.82031 222.102 4.28125 221.141 4.28125 219.828C4.28125 218.891 4.54948 218.203 5.08593 217.766C5.61718 217.323 6.41146 217.102 7.46875 217.102L13 217.102L13 218.07L8.8125 218.07C8.41666 218.07 8.08593 218.076 7.82031 218.086C7.55468 218.096 7.26562 218.122 6.95312 218.164C6.64062 218.201 6.38541 218.26 6.1875 218.344C5.98958 218.422 5.80208 218.526 5.625 218.656C5.44791 218.786 5.31771 218.953 5.23437 219.156C5.15104 219.359 5.10937 219.599 5.10937 219.875C5.10937 220.531 5.30469 221.089 5.69531 221.547C6.08073 222 6.625 222.315 7.32812 222.492C7.85937 222.482 8.27083 222.469 8.5625 222.453L13 222.453L13 223.414L8.64062 223.414C8.19791 223.414 7.8151 223.427 7.49219 223.453C7.16406 223.479 6.84375 223.531 6.53125 223.609C6.21875 223.687 5.96354 223.794 5.76562 223.93C5.56771 224.06 5.40885 224.237 5.28906 224.461C5.16927 224.68 5.10937 224.943 5.10937 225.25C5.10937 225.958 5.29948 226.552 5.67969 227.031C6.05469 227.505 6.56771 227.812 7.21875 227.953C7.43229 227.964 7.73698 227.969 8.13281 227.969L13 227.969L13 228.937ZM16.8125 214.852L4.4375 214.852L4.4375 213.984L5.65625 213.898C5.19791 213.497 4.85416 213.091 4.625 212.68C4.39583 212.263 4.28125 211.779 4.28125 211.227C4.28125 210.008 4.6875 209.096 5.5 208.492C6.30729 207.883 7.41406 207.578 8.82031 207.578C10.1016 207.578 11.151 207.898 11.9687 208.539C12.7812 209.18 13.1875 210.047 13.1875 211.141C13.1875 211.703 13.0547 212.234 12.7891 212.734C12.5234 213.234 12.1745 213.63 11.7422 213.922C12.3828 213.896 13.013 213.883 13.6328 213.883L16.7422 213.883L16.8125 214.852ZM12.3906 211.203C12.3906 210.76 12.2839 210.367 12.0703 210.023C11.8568 209.68 11.5729 209.406 11.2187 209.203C10.8646 209 10.4792 208.849 10.0625 208.75C9.64062 208.646 9.20312 208.594 8.75 208.594C8.29166 208.594 7.85416 208.643 7.4375 208.742C7.02083 208.841 6.63541 208.992 6.28125 209.195C5.92187 209.393 5.63541 209.667 5.42187 210.016C5.20833 210.365 5.10156 210.763 5.10156 211.211C5.10156 211.695 5.1901 212.115 5.36718 212.469C5.53906 212.818 5.78646 213.096 6.10937 213.305C6.43229 213.508 6.79948 213.656 7.21093 213.75C7.62239 213.844 8.08593 213.891 8.60156 213.891C9.19531 213.891 9.71354 213.846 10.1562 213.758C10.599 213.669 10.9948 213.526 11.3437 213.328C11.6875 213.125 11.9479 212.846 12.125 212.492C12.3021 212.138 12.3906 211.708 12.3906 211.203ZM13.1875 203.469C13.1875 204.276 12.9844 204.922 12.5781 205.406C12.1719 205.891 11.5911 206.133 10.8359 206.133C10.388 206.133 10 206.036 9.67187 205.844C9.33854 205.651 9.07031 205.372 8.86718 205.008C8.65885 204.638 8.49739 204.219 8.38281 203.75C8.26823 203.276 8.1875 202.727 8.14062 202.102C8.09895 201.435 8.0651 200.94 8.03906 200.617L7.08593 200.617C6.42968 200.617 5.9375 200.768 5.60937 201.07C5.27604 201.367 5.10937 201.846 5.10937 202.508C5.10937 203.414 5.32552 204.26 5.75781 205.047C5.70573 205.068 5.59375 205.117 5.42187 205.195C5.24479 205.268 5.10937 205.32 5.01562 205.352C4.80729 205.029 4.63281 204.607 4.49218 204.086C4.35156 203.565 4.28125 203.055 4.28125 202.555C4.28125 201.529 4.5026 200.792 4.94531 200.344C5.38281 199.896 6.16145 199.672 7.28125 199.672L13 199.672L13 200.43C12.8802 200.456 12.6432 200.495 12.2891 200.547C11.9349 200.594 11.7526 200.617 11.7422 200.617C12.7057 201.289 13.1875 202.24 13.1875 203.469ZM12.4141 203.437C12.4141 202.771 12.2187 202.18 11.8281 201.664C11.4323 201.143 10.8854 200.802 10.1875 200.641L8.72656 200.641C8.78906 201.391 8.82031 201.768 8.82031 201.773C8.93489 203.044 9.14323 203.927 9.44531 204.422C9.74739 204.917 10.2161 205.164 10.8516 205.164C11.3724 205.164 11.763 205.008 12.0234 204.695C12.2839 204.378 12.4141 203.958 12.4141 203.437ZM13 197.234L4.4375 197.234L4.4375 196.258L13 196.258L13 197.234ZM2.6875 197.234L1.375 197.234L1.375 196.266L2.6875 196.266L2.6875 197.234ZM16.9766 192.531L16.1094 192.648L16.1094 190.836C16.1094 190.435 16.0729 190.081 16 189.773C15.9323 189.466 15.8411 189.208 15.7266 189C15.6172 188.786 15.4609 188.607 15.2578 188.461C15.0599 188.31 14.862 188.193 14.6641 188.109C14.4661 188.026 14.2083 187.964 13.8906 187.922C13.5781 187.875 13.2891 187.846 13.0234 187.836C12.763 187.826 12.4323 187.82 12.0312 187.82C12.0885 187.82 12.0755 187.826 11.9922 187.836C11.6328 187.862 11.4531 187.875 11.4531 187.875C11.9479 188.203 12.3307 188.591 12.6016 189.039C12.8672 189.487 13 190.034 13 190.68C13 191.19 12.9089 191.656 12.7266 192.078C12.5443 192.495 12.3073 192.839 12.0156 193.109C11.724 193.375 11.3906 193.599 11.0156 193.781C10.6406 193.964 10.2682 194.094 9.89843 194.172C9.52343 194.25 9.15364 194.289 8.78906 194.289C8.33073 194.289 7.89583 194.253 7.48437 194.18C7.0677 194.102 6.66145 193.969 6.26562 193.781C5.86979 193.594 5.52864 193.359 5.24218 193.078C4.95052 192.797 4.71875 192.435 4.54687 191.992C4.36979 191.549 4.28125 191.049 4.28125 190.492C4.28125 189.945 4.39062 189.464 4.60937 189.047C4.82291 188.625 5.16666 188.234 5.64062 187.875L4.4375 187.781L4.4375 186.922L12.375 186.922C12.7187 186.922 12.9948 186.927 13.2031 186.937C13.4167 186.943 13.7031 186.974 14.0625 187.031C14.4271 187.083 14.724 187.159 14.9531 187.258C15.1875 187.352 15.4453 187.497 15.7266 187.695C16.0078 187.893 16.2292 188.133 16.3906 188.414C16.5521 188.69 16.6901 189.047 16.8047 189.484C16.9193 189.917 16.9766 190.409 16.9766 190.961L16.9766 192.531ZM12.2109 190.555C12.2109 190.174 12.151 189.831 12.0312 189.523C11.9062 189.216 11.7448 188.964 11.5469 188.766C11.3437 188.562 11.1068 188.393 10.8359 188.258C10.5651 188.117 10.2865 188.018 10 187.961C9.70833 187.904 9.40885 187.875 9.10156 187.875L8.21093 187.875C7.80468 187.875 7.42187 187.924 7.0625 188.023C6.70312 188.122 6.37239 188.276 6.07031 188.484C5.76302 188.687 5.52083 188.969 5.34375 189.328C5.16666 189.687 5.07812 190.104 5.07812 190.578C5.07812 190.964 5.15364 191.312 5.30468 191.625C5.45052 191.932 5.64583 192.185 5.89062 192.383C6.13541 192.581 6.42187 192.747 6.75 192.883C7.07812 193.018 7.41406 193.115 7.75781 193.172C8.09635 193.224 8.44531 193.25 8.80468 193.25C9.12239 193.25 9.43229 193.227 9.73437 193.18C10.0312 193.128 10.3333 193.039 10.6406 192.914C10.9479 192.784 11.2161 192.62 11.4453 192.422C11.6693 192.224 11.8542 191.966 12 191.648C12.1406 191.326 12.2109 190.961 12.2109 190.555ZM13 184.68L4.4375 184.68L4.4375 183.836L5.75781 183.703C5.29948 183.396 4.9401 182.984 4.67968 182.469C4.41406 181.948 4.28125 181.388 4.28125 180.789C4.28125 179.805 4.55208 179.081 5.09375 178.617C5.63541 178.154 6.5 177.922 7.6875 177.922L13 177.922L13 178.898L7.25 178.898C6.48958 178.924 5.9427 179.086 5.60937 179.383C5.27604 179.68 5.10937 180.167 5.10937 180.844C5.10937 181.62 5.30468 182.255 5.69531 182.75C6.08593 183.24 6.59114 183.547 7.21093 183.672C7.45573 183.693 7.71093 183.703 7.97656 183.703L13 183.703L13 184.68ZM13 171.953L4.4375 171.953L4.4375 170.977L13 170.977L13 171.953ZM2.6875 171.953L1.375 171.953L1.375 170.984L2.6875 170.984L2.6875 171.953ZM13.1953 166.07C13.1953 166.622 13.1276 167.141 12.9922 167.625C12.8568 168.109 12.6953 168.492 12.5078 168.773L11.6953 168.633C12.1432 167.773 12.3672 166.951 12.3672 166.164C12.3672 164.753 11.8437 164.021 10.7969 163.969C10.3594 163.969 10.0156 164.112 9.76562 164.398C9.51562 164.68 9.2552 165.247 8.98437 166.102C8.82812 166.549 8.74218 166.797 8.72656 166.844C8.32031 168.182 7.59895 168.857 6.5625 168.867C5.96354 168.867 5.43489 168.604 4.97656 168.078C4.51302 167.547 4.28125 166.831 4.28125 165.93C4.28125 165.029 4.45833 164.182 4.81249 163.391L5.53125 163.719C5.22916 164.521 5.07812 165.266 5.07812 165.953C5.07812 166.557 5.21354 167.034 5.48437 167.383C5.7552 167.727 6.11979 167.898 6.57812 167.898C6.96354 167.898 7.26041 167.786 7.46875 167.562C7.67187 167.333 7.86718 166.883 8.05468 166.211C8.07552 166.138 8.12239 166.005 8.19531 165.812C8.26822 165.615 8.30729 165.505 8.3125 165.484C8.58854 164.583 8.91666 163.956 9.29687 163.602C9.67187 163.242 10.1849 163.062 10.8359 163.062C11.5859 163.078 12.1667 163.359 12.5781 163.906C12.9896 164.448 13.1953 165.169 13.1953 166.07ZM13 157.57L1.11718 157.57L1.03124 156.602L5.11718 156.602C5.22656 156.602 5.30208 156.602 5.34374 156.602C5.38541 156.602 5.40885 156.604 5.41406 156.609C5.41927 156.609 5.44791 156.612 5.49999 156.617C5.55208 156.617 5.6302 156.62 5.73437 156.625C4.76562 155.927 4.28124 154.927 4.28124 153.625C4.28124 151.766 5.40364 150.836 7.64843 150.836L13 150.836L13 151.797L7.83593 151.797C6.87239 151.797 6.17708 151.945 5.74999 152.242C5.3177 152.539 5.10156 153.062 5.10156 153.812C5.10156 154.557 5.29947 155.177 5.69531 155.672C6.08593 156.167 6.59114 156.471 7.21093 156.586C7.41927 156.596 7.72916 156.602 8.14062 156.602L13 156.602L13 157.57ZM13.1875 145.117C13.1875 146.299 12.7917 147.24 12 147.937C11.2083 148.63 10.1354 148.977 8.78124 148.977C7.47395 148.977 6.40364 148.638 5.57031 147.961C4.73697 147.279 4.30729 146.398 4.28124 145.32C4.28124 144.315 4.64062 143.508 5.35937 142.898C6.07812 142.289 7.04166 141.984 8.24999 141.984C8.29687 141.984 8.39322 141.987 8.53906 141.992C8.67968 141.992 8.77864 141.992 8.83593 141.992L8.83593 147.953C9.93489 147.943 10.8073 147.677 11.4531 147.156C12.0937 146.635 12.4141 145.948 12.4141 145.094C12.4141 144.536 12.349 144.052 12.2187 143.641C12.0885 143.229 11.9036 142.799 11.6641 142.352L12.3906 142.187C12.9219 143.052 13.1875 144.029 13.1875 145.117ZM8.05468 147.914L8.05468 143.039C7.10156 143.039 6.37239 143.245 5.86718 143.656C5.35676 144.068 5.10156 144.633 5.10156 145.352C5.10156 146.081 5.37239 146.669 5.91406 147.117C6.45572 147.565 7.16927 147.831 8.05468 147.914ZM13 140.023C7.97395 140.034 5.11979 140.039 4.43749 140.039L4.43749 139.242L6.12499 139.18C5.61458 138.872 5.19791 138.482 4.87499 138.008C4.55208 137.534 4.39062 137.039 4.39062 136.523C4.39062 136.31 4.40885 136.081 4.44531 135.836L5.24999 135.906C5.21874 136.094 5.20312 136.292 5.20312 136.5C5.20312 137.224 5.48958 137.833 6.06249 138.328C6.6302 138.818 7.30468 139.062 8.08593 139.062L13 139.062L13 140.023ZM13.1875 131.133C13.1875 132.315 12.7917 133.255 12 133.953C11.2083 134.646 10.1354 134.992 8.78124 134.992C7.47395 134.992 6.40364 134.654 5.57031 133.977C4.73697 133.294 4.30729 132.414 4.28124 131.336C4.28124 130.331 4.64062 129.523 5.35937 128.914C6.07812 128.305 7.04166 128 8.24999 128C8.29687 128 8.39322 128.003 8.53906 128.008C8.67968 128.008 8.77864 128.008 8.83593 128.008L8.83593 133.969C9.93489 133.958 10.8073 133.693 11.4531 133.172C12.0937 132.651 12.4141 131.964 12.4141 131.109C12.4141 130.552 12.349 130.068 12.2187 129.656C12.0885 129.245 11.9036 128.815 11.6641 128.367L12.3906 128.203C12.9219 129.068 13.1875 130.044 13.1875 131.133ZM8.05468 133.93L8.05468 129.055C7.10156 129.055 6.37239 129.26 5.86718 129.672C5.35676 130.083 5.10156 130.648 5.10156 131.367C5.10156 132.096 5.37239 132.685 5.91406 133.133C6.45572 133.581 7.16926 133.846 8.05468 133.93ZM13.1797 120.016C13.1797 120.734 13.0182 121.26 12.6953 121.594C12.3672 121.927 11.8359 122.094 11.1016 122.094L5.14843 122.094L5.14843 123.305L4.56249 123.234L4.45312 122.078L2.49218 121.82L2.44531 121.141L4.43749 121.141L4.43749 118.641L5.14843 118.641L5.14843 121.141L10.8984 121.141C11.5026 121.141 11.9088 121.042 12.1172 120.844C12.3203 120.646 12.4219 120.297 12.4219 119.797C12.4219 119.474 12.362 119.073 12.2422 118.594L12.9922 118.555C13.1172 119.185 13.1797 119.672 13.1797 120.016ZM12.4141 113.602C12.4141 112.977 12.25 112.451 11.9219 112.023C11.5885 111.591 11.151 111.279 10.6094 111.086C10.0677 110.888 9.44531 110.789 8.74218 110.789C7.63801 110.789 6.74999 111.023 6.07812 111.492C5.40624 111.961 5.07031 112.674 5.07031 113.633C5.07031 114.258 5.23958 114.792 5.57812 115.234C5.91145 115.672 6.35156 115.992 6.89843 116.195C7.4401 116.398 8.06249 116.5 8.76562 116.5C9.83333 116.5 10.7083 116.253 11.3906 115.758C12.0729 115.258 12.4141 114.539 12.4141 113.602ZM13.1875 113.672C13.1875 114.448 12.9922 115.133 12.6016 115.727C12.2109 116.315 11.6823 116.766 11.0156 117.078C10.3437 117.385 9.58593 117.539 8.74218 117.539C8.10676 117.539 7.51822 117.451 6.97656 117.273C6.42968 117.091 5.95833 116.833 5.56249 116.5C5.16145 116.167 4.84895 115.753 4.62499 115.258C4.39583 114.763 4.28124 114.214 4.28124 113.609C4.28124 112.807 4.47916 112.112 4.87499 111.523C5.26562 110.935 5.79426 110.495 6.46093 110.203C7.12239 109.906 7.8776 109.758 8.72656 109.758C9.58072 109.758 10.3411 109.909 11.0078 110.211C11.6745 110.513 12.2057 110.964 12.6016 111.562C12.9922 112.161 13.1875 112.865 13.1875 113.672ZM13.1953 101.727C13.1953 102.279 13.1276 102.797 12.9922 103.281C12.8568 103.766 12.6953 104.148 12.5078 104.43L11.6953 104.289C12.1432 103.43 12.3672 102.607 12.3672 101.82C12.3672 100.409 11.8437 99.6771 10.7969 99.625C10.3594 99.625 10.0156 99.7682 9.76562 100.055C9.51562 100.336 9.2552 100.904 8.98437 101.758C8.82812 102.206 8.74218 102.453 8.72655 102.5C8.3203 103.839 7.59895 104.513 6.56249 104.523C5.96353 104.523 5.43489 104.26 4.97655 103.734C4.51301 103.203 4.28124 102.487 4.28124 101.586C4.28124 100.685 4.45833 99.8385 4.81249 99.0469L5.53124 99.375C5.22916 100.177 5.07812 100.922 5.07812 101.609C5.07812 102.214 5.21353 102.69 5.48437 103.039C5.7552 103.383 6.11978 103.555 6.57812 103.555C6.96353 103.555 7.26041 103.443 7.46874 103.219C7.67187 102.99 7.86718 102.539 8.05468 101.867C8.07551 101.794 8.12239 101.661 8.1953 101.469C8.26822 101.271 8.30728 101.161 8.31249 101.141C8.58853 100.24 8.91666 99.612 9.29687 99.2578C9.67187 98.8984 10.1849 98.7187 10.8359 98.7187C11.5859 98.7344 12.1667 99.0156 12.5781 99.5625C12.9896 100.104 13.1953 100.826 13.1953 101.727ZM13.1875 94.5625C13.1875 95.3698 12.9844 96.0156 12.5781 96.5C12.1719 96.9844 11.5911 97.2266 10.8359 97.2266C10.388 97.2266 9.99999 97.1302 9.67187 96.9375C9.33853 96.7448 9.0703 96.4661 8.86718 96.1016C8.65885 95.7318 8.49739 95.3125 8.3828 94.8437C8.26822 94.3698 8.18749 93.8203 8.14062 93.1953C8.09895 92.5286 8.0651 92.0339 8.03905 91.7109L7.08593 91.7109C6.42968 91.7109 5.93749 91.862 5.60937 92.1641C5.27603 92.4609 5.10937 92.9401 5.10937 93.6016C5.10937 94.5078 5.32551 95.3542 5.7578 96.1406C5.70572 96.1615 5.59374 96.2109 5.42187 96.2891C5.24478 96.362 5.10937 96.4141 5.01562 96.4453C4.80728 96.1224 4.6328 95.7005 4.49218 95.1797C4.35155 94.6589 4.28124 94.1484 4.28124 93.6484C4.28124 92.6224 4.5026 91.8854 4.9453 91.4375C5.3828 90.9896 6.16145 90.7656 7.28124 90.7656L13 90.7656L13 91.5234C12.8802 91.5495 12.6432 91.5885 12.2891 91.6406C11.9349 91.6875 11.7526 91.7109 11.7422 91.7109C12.7057 92.3828 13.1875 93.3333 13.1875 94.5625ZM12.4141 94.5312C12.4141 93.8646 12.2187 93.2734 11.8281 92.7578C11.4323 92.237 10.8854 91.8958 10.1875 91.7344L8.72655 91.7344C8.78905 92.4844 8.8203 92.862 8.8203 92.8672C8.93489 94.138 9.14322 95.0208 9.4453 95.5156C9.74739 96.0104 10.2161 96.2578 10.8516 96.2578C11.3724 96.2578 11.763 96.1016 12.0234 95.7891C12.2838 95.4714 12.4141 95.0521 12.4141 94.5312ZM17.0625 88.8125C17.0625 89.0312 17.0417 89.2526 17 89.4766L16.2031 89.5469C16.2031 89.5312 16.2057 89.4557 16.2109 89.3203C16.2213 89.1797 16.2266 89.0755 16.2266 89.0078C16.2266 88.3516 16.1146 87.8594 15.8906 87.5312C15.6667 87.2031 15.2292 86.9115 14.5781 86.6562C14.4896 86.625 14.2656 86.5443 13.9062 86.4141C13.5469 86.2786 13.263 86.1745 13.0547 86.1016L4.43749 89.5234L4.43749 88.5078L12.1406 85.5937C12.1406 85.5937 11.7812 85.4766 11.0625 85.2422C6.58853 83.8099 4.35416 83.0755 4.35937 83.0391C4.35937 83.0339 4.38541 83.0365 4.43749 83.0469L4.43749 82.0312C10.8489 84.3125 14.2031 85.5052 14.5 85.6094C15.3646 85.9687 16.0078 86.3906 16.4297 86.875C16.8516 87.3594 17.0625 88.0052 17.0625 88.8125ZM15.1484 80.8906L11.1641 80.2656L11.1641 79.2578L11.4844 79.2578C12.4114 79.4714 13.6328 79.8281 15.1484 80.3281L15.1484 80.8906ZM3.92968 73.5312L0.351553 71.6562L0.351553 71.0625L3.92968 72.3281L3.92968 73.5312ZM13 68.6875L1.37499 68.6875L1.37499 67.5234L11.1797 61.125L11.75 60.7109C10.1458 60.7474 9.14843 60.7656 8.7578 60.7656L1.37499 60.7656L1.37499 59.8203L13 59.8203L13 61.0078L3.21093 67.3906L2.64062 67.7891C3.81249 67.7474 4.82291 67.7266 5.67187 67.7266L13 67.7266L13 68.6875ZM12.4141 53.6953C12.4141 53.0703 12.25 52.5443 11.9219 52.1172C11.5885 51.6849 11.151 51.3724 10.6094 51.1797C10.0677 50.9818 9.4453 50.8828 8.74218 50.8828C7.63801 50.8828 6.74999 51.1172 6.07812 51.5859C5.40624 52.0547 5.0703 52.7682 5.0703 53.7266C5.0703 54.3516 5.23957 54.8854 5.57812 55.3281C5.91145 55.7656 6.35155 56.0859 6.89843 56.2891C7.44009 56.4922 8.06249 56.5937 8.76562 56.5937C9.83332 56.5937 10.7083 56.3464 11.3906 55.8516C12.0729 55.3516 12.4141 54.6328 12.4141 53.6953ZM13.1875 53.7656C13.1875 54.5417 12.9922 55.2266 12.6016 55.8203C12.2109 56.4089 11.6823 56.8594 11.0156 57.1719C10.3437 57.4792 9.58593 57.6328 8.74218 57.6328C8.10676 57.6328 7.51822 57.5443 6.97655 57.3672C6.42968 57.1849 5.95832 56.9271 5.56249 56.5937C5.16145 56.2604 4.84895 55.8464 4.62499 55.3516C4.39582 54.8568 4.28124 54.3073 4.28124 53.7031C4.28124 52.901 4.47916 52.2057 4.87499 51.6172C5.26562 51.0286 5.79426 50.5885 6.46093 50.2969C7.12239 50 7.87759 49.8516 8.72655 49.8516C9.58072 49.8516 10.3411 50.0026 11.0078 50.3047C11.6745 50.6068 12.2057 51.0573 12.6016 51.6562C12.9922 52.2552 13.1875 52.9583 13.1875 53.7656ZM13 44.2969C7.82291 44.3125 4.96874 44.3203 4.43749 44.3203L4.43749 43.4766L5.74999 43.3516C5.32291 43.1016 4.97134 42.7292 4.6953 42.2344C4.41926 41.7344 4.28124 41.2057 4.28124 40.6484C4.28124 39.2786 4.8203 38.4193 5.89843 38.0703C4.8203 37.4609 4.28124 36.5 4.28124 35.1875C4.28124 34.25 4.54947 33.5625 5.08593 33.125C5.61718 32.6823 6.41145 32.4609 7.46874 32.4609L13 32.4609L13 33.4297L8.81249 33.4297C8.41666 33.4297 8.08593 33.4349 7.8203 33.4453C7.55468 33.4557 7.26561 33.4818 6.95311 33.5234C6.64061 33.5599 6.38541 33.6198 6.18749 33.7031C5.98957 33.7812 5.80207 33.8854 5.62499 34.0156C5.44791 34.1458 5.3177 34.3125 5.23436 34.5156C5.15103 34.7187 5.10936 34.9583 5.10936 35.2344C5.10936 35.8906 5.30468 36.4479 5.6953 36.9062C6.08072 37.3594 6.62499 37.6745 7.32811 37.8516C7.85936 37.8411 8.27082 37.8281 8.56249 37.8125L13 37.8125L13 38.7734L8.64061 38.7734C8.19791 38.7734 7.81509 38.7865 7.49218 38.8125C7.16405 38.8385 6.84374 38.8906 6.53124 38.9687C6.21874 39.0469 5.96353 39.1536 5.76561 39.2891C5.5677 39.4193 5.40884 39.5964 5.28905 39.8203C5.16926 40.0391 5.10936 40.3021 5.10936 40.6094C5.10936 41.3177 5.29947 41.9115 5.67968 42.3906C6.05468 42.8646 6.5677 43.1719 7.21874 43.3125C7.43228 43.3229 7.73697 43.3281 8.1328 43.3281L13 43.3281L13 44.2969ZM12.4141 26.6641C12.4141 26.0391 12.25 25.513 11.9219 25.0859C11.5885 24.6536 11.151 24.3411 10.6094 24.1484C10.0677 23.9505 9.4453 23.8516 8.74218 23.8516C7.63801 23.8516 6.74999 24.0859 6.07811 24.5547C5.40624 25.0234 5.0703 25.737 5.0703 26.6953C5.0703 27.3203 5.23957 27.8542 5.57811 28.2969C5.91145 28.7344 6.35155 29.0547 6.89843 29.2578C7.44009 29.4609 8.06249 29.5625 8.76561 29.5625C9.83332 29.5625 10.7083 29.3151 11.3906 28.8203C12.0729 28.3203 12.4141 27.6016 12.4141 26.6641ZM13.1875 26.7344C13.1875 27.5104 12.9922 28.1953 12.6016 28.7891C12.2109 29.3776 11.6823 29.8281 11.0156 30.1406C10.3437 30.4479 9.58593 30.6016 8.74218 30.6016C8.10676 30.6016 7.51822 30.513 6.97655 30.3359C6.42968 30.1536 5.95832 29.8958 5.56249 29.5625C5.16145 29.2292 4.84895 28.8151 4.62499 28.3203C4.39582 27.8255 4.28124 27.276 4.28124 26.6719C4.28124 25.8698 4.47916 25.1745 4.87499 24.5859C5.26561 23.9974 5.79426 23.5573 6.46093 23.2656C7.12238 22.9687 7.87759 22.8203 8.72655 22.8203C9.58072 22.8203 10.3411 22.9714 11.0078 23.2734C11.6745 23.5755 12.2057 24.026 12.6016 24.625C12.9922 25.224 13.1875 25.9271 13.1875 26.7344ZM13 20.8984C7.97395 20.9089 5.11978 20.9141 4.43749 20.9141L4.43749 20.1172L6.12499 20.0547C5.61457 19.7474 5.19791 19.3568 4.87499 18.8828C4.55207 18.4089 4.39061 17.9141 4.39061 17.3984C4.39061 17.1849 4.40884 16.9557 4.4453 16.7109L5.24999 16.7812C5.21874 16.9687 5.20311 17.1667 5.20311 17.375C5.20311 18.099 5.48957 18.7083 6.06249 19.2031C6.6302 19.6927 7.30468 19.9375 8.08593 19.9375L13 19.9375L13 20.8984ZM13.1875 12.0078C13.1875 13.1901 12.7917 14.1302 12 14.8281C11.2083 15.5208 10.1354 15.8672 8.78124 15.8672C7.47395 15.8672 6.40363 15.5286 5.5703 14.8516C4.73697 14.1693 4.30728 13.2891 4.28124 12.2109C4.28124 11.2057 4.64061 10.3984 5.35936 9.78906C6.07811 9.17969 7.04165 8.875 8.24999 8.875C8.29686 8.875 8.39322 8.8776 8.53905 8.88281C8.67968 8.88281 8.77863 8.88281 8.83593 8.88281L8.83593 14.8437C9.93488 14.8333 10.8073 14.5677 11.4531 14.0469C12.0937 13.526 12.4141 12.8385 12.4141 11.9844C12.4141 11.4271 12.3489 10.9427 12.2187 10.5312C12.0885 10.1198 11.9036 9.6901 11.6641 9.24219L12.3906 9.07812C12.9219 9.94271 13.1875 10.9193 13.1875 12.0078ZM8.05468 14.8047L8.05468 9.92969C7.10155 9.92969 6.37238 10.1354 5.86718 10.5469C5.35676 10.9583 5.10155 11.5234 5.10155 12.2422C5.10155 12.9714 5.37238 13.5599 5.91405 14.0078C6.45572 14.4557 7.16926 14.7214 8.05468 14.8047ZM9.72655 5.79687L1.86718 6.25781L1.17186 6.25781L1.17186 4.875L1.86718 4.875L9.72655 5.28125L9.72655 5.79687ZM13.0625 5.53906C13.0625 5.85677 12.9713 6.09635 12.7891 6.25781C12.6016 6.41927 12.3828 6.5 12.1328 6.5C11.888 6.5 11.6745 6.41927 11.4922 6.25781C11.3099 6.09635 11.2187 5.85677 11.2187 5.53906C11.2187 5.21615 11.3099 4.97396 11.4922 4.8125C11.6745 4.65104 11.888 4.57031 12.1328 4.57031C12.3828 4.57031 12.6016 4.65104 12.7891 4.8125C12.9713 4.97396 13.0625 5.21615 13.0625 5.53906ZM3.92968 1.70312L0.35155 1.03125L0.35155 0.0156248L3.92968 0.976562L3.92968 1.70312Z" fill="#F6F4F4"/>
</svg>
