<svg width="341" height="277" viewBox="0 0 341 277" fill="none" xmlns="http://www.w3.org/2000/svg">
<g clip-path="url(#clip0_503_2776)">
<path d="M69.0454 262.212C48.9809 262.212 32.4572 255.058 19.4744 240.749C6.49144 226.442 0 207.96 0 185.305C0 144.764 11.5076 111.08 34.5226 84.2522C57.5378 57.424 88.5196 41.9233 127.468 37.75V58.3183C106.224 63.0876 87.0443 74.117 69.9305 91.4062C53.4069 108.696 44.8499 128.668 44.2598 151.322C54.292 148.342 62.554 146.851 69.0454 146.851C86.1591 146.851 100.027 152.515 110.649 163.842C121.862 174.573 127.468 187.391 127.468 202.296C127.468 218.988 121.862 233.298 110.649 245.221C99.437 256.549 85.569 262.212 69.0454 262.212ZM165.532 185.305C165.532 144.764 177.039 111.08 200.054 84.2522C223.069 57.424 254.052 41.9233 293 37.75V58.3183C271.755 63.0876 252.576 74.117 235.462 91.4062C218.938 108.696 210.381 128.668 209.791 151.322C219.824 148.342 228.086 146.851 234.576 146.851C251.69 146.851 265.559 152.515 276.181 163.842C287.394 174.573 293 187.391 293 202.296C293 218.988 287.394 233.298 276.181 245.221C264.968 256.549 251.101 262.212 234.576 262.212C214.512 262.212 197.989 255.058 185.006 240.749C172.024 226.442 165.532 207.96 165.532 185.305Z" fill="#3577DA" fill-opacity="0.1"/>
</g>
<path opacity="0.2" d="M80.3038 277C56.9517 277 37.2225 268.572 22.1126 250.915C7.00272 233.258 0 210.554 0 182.596C0 132.567 13.9484 90.2461 40.7338 57.139C67.5192 24.0319 102.476 5.14996 147.805 0V24.843C123.08 30.7284 101.385 44.4976 81.4676 65.8341C62.2366 87.1705 51.8948 112.406 51.2082 140.363C62.8837 136.685 72.7494 134.152 80.3038 134.152C100.221 134.152 116.822 141.29 129.184 155.269C142.233 168.512 147.805 184.078 147.805 202.471C147.805 223.071 142.233 241.169 129.184 255.883C116.134 269.863 99.5348 277 80.3038 277ZM193.195 182.596C193.195 132.567 205.979 90.2461 232.765 57.139C259.55 24.0319 295.67 5.14996 341 0V24.843C316.275 30.7284 293.416 44.4976 273.498 65.8341C254.267 87.1705 245.089 112.406 244.403 140.363C256.078 136.685 265.944 134.152 273.498 134.152C293.416 134.152 308.853 141.29 321.215 155.269C334.264 168.512 341 184.078 341 202.471C341 223.071 334.264 241.169 321.215 255.883C308.165 269.863 292.729 277 273.498 277C250.147 277 230.417 268.572 215.307 250.915C200.197 233.258 193.195 210.554 193.195 182.596Z" fill="#3577DA" fill-opacity="0.1"/>
<defs>
<clipPath id="clip0_503_2776">
<rect width="293" height="224.462" fill="white" transform="translate(0 37.75)"/>
</clipPath>
</defs>
</svg>
