<svg width="924" height="253" viewBox="0 0 924 253" fill="none" xmlns="http://www.w3.org/2000/svg">
<rect x="154" y="180" width="171" height="73" rx="36" fill="#D2E2FF"/>
<rect x="311" width="171" height="73" rx="36" fill="#F3E0FE"/>
<path d="M17.5987 70V30.96H5.50274V22.32H39.4227V30.96H27.5187V70H17.5987ZM55.5327 70.768C52.7167 70.768 50.3061 70.1707 48.3007 68.976C46.3381 67.7387 44.8447 66.032 43.8207 63.856C42.7967 61.68 42.2847 59.1413 42.2847 56.24V35.056H51.8847V55.472C51.8847 56.7947 52.1407 57.968 52.6527 58.992C53.2074 59.9733 53.9754 60.7413 54.9567 61.296C55.9381 61.8507 57.0474 62.128 58.2847 62.128C59.5647 62.128 60.6741 61.8507 61.6127 61.296C62.5941 60.7413 63.3407 59.9733 63.8527 58.992C64.4074 57.968 64.6847 56.7947 64.6847 55.472V35.056H74.2847V70H65.3247V63.088L65.8367 64.624C65.0261 66.7147 63.7034 68.272 61.8687 69.296C60.0767 70.2773 57.9647 70.768 55.5327 70.768Z" fill="#5C89DE"/>
<path d="M83.2212 70V35.056H92.1812V43.44L91.5412 42.224C92.3092 39.28 93.5679 37.296 95.3172 36.272C97.1092 35.2053 99.2212 34.672 101.653 34.672H103.701V42.992H100.693C98.3466 42.992 96.4479 43.7173 94.9972 45.168C93.5466 46.576 92.8212 48.5813 92.8212 51.184V70H83.2212ZM109.829 70V35.056H118.789V41.968L118.277 40.432C119.087 38.3413 120.389 36.8053 122.181 35.824C124.015 34.8 126.149 34.288 128.581 34.288C131.226 34.288 133.53 34.8427 135.493 35.952C137.498 37.0613 139.055 38.6187 140.165 40.624C141.274 42.5867 141.829 44.8907 141.829 47.536V70H132.229V49.584C132.229 48.2187 131.951 47.0453 131.397 46.064C130.885 45.0827 130.138 44.3147 129.157 43.76C128.218 43.2053 127.109 42.928 125.829 42.928C124.591 42.928 123.482 43.2053 122.501 43.76C121.519 44.3147 120.751 45.0827 120.197 46.064C119.685 47.0453 119.429 48.2187 119.429 49.584V70H109.829ZM168.921 84.208C167.897 84.208 166.895 84.1227 165.913 83.952C164.975 83.7813 164.143 83.504 163.417 83.12V75.248C164.015 75.4187 164.719 75.568 165.529 75.696C166.34 75.824 167.087 75.888 167.769 75.888C169.647 75.888 170.991 75.44 171.801 74.544C172.612 73.648 173.273 72.624 173.785 71.472L176.153 66.032L176.025 74.032L160.665 35.056H170.969L181.145 62.768H177.305L187.481 35.056H197.785L182.809 73.264C181.871 75.696 180.719 77.7227 179.353 79.344C177.988 80.9653 176.431 82.1813 174.681 82.992C172.975 83.8027 171.055 84.208 168.921 84.208ZM220.62 70.768C217.164 70.768 214.007 69.9787 211.148 68.4C208.332 66.8213 206.071 64.6667 204.364 61.936C202.7 59.1627 201.868 56.0267 201.868 52.528C201.868 48.9867 202.7 45.8507 204.364 43.12C206.071 40.3893 208.332 38.2347 211.148 36.656C214.007 35.0773 217.164 34.288 220.62 34.288C224.076 34.288 227.212 35.0773 230.028 36.656C232.844 38.2347 235.084 40.3893 236.748 43.12C238.455 45.8507 239.308 48.9867 239.308 52.528C239.308 56.0267 238.455 59.1627 236.748 61.936C235.084 64.6667 232.844 66.8213 230.028 68.4C227.212 69.9787 224.076 70.768 220.62 70.768ZM220.62 62.128C222.37 62.128 223.884 61.7227 225.164 60.912C226.487 60.1013 227.511 58.9707 228.236 57.52C229.004 56.0693 229.388 54.4053 229.388 52.528C229.388 50.6507 229.004 49.008 228.236 47.6C227.511 46.1493 226.487 45.0187 225.164 44.208C223.884 43.3547 222.37 42.928 220.62 42.928C218.871 42.928 217.335 43.3547 216.012 44.208C214.69 45.0187 213.644 46.1493 212.876 47.6C212.151 49.008 211.788 50.6507 211.788 52.528C211.788 54.4053 212.151 56.0693 212.876 57.52C213.644 58.9707 214.69 60.1013 216.012 60.912C217.335 61.7227 218.871 62.128 220.62 62.128ZM259.428 70.768C256.612 70.768 254.201 70.1707 252.196 68.976C250.233 67.7387 248.74 66.032 247.716 63.856C246.692 61.68 246.18 59.1413 246.18 56.24V35.056H255.78V55.472C255.78 56.7947 256.036 57.968 256.548 58.992C257.102 59.9733 257.87 60.7413 258.852 61.296C259.833 61.8507 260.942 62.128 262.18 62.128C263.46 62.128 264.569 61.8507 265.508 61.296C266.489 60.7413 267.236 59.9733 267.748 58.992C268.302 57.968 268.58 56.7947 268.58 55.472V35.056H278.18V70H269.22V63.088L269.732 64.624C268.921 66.7147 267.598 68.272 265.764 69.296C263.972 70.2773 261.86 70.768 259.428 70.768ZM287.116 70V35.056H296.076V43.44L295.436 42.224C296.204 39.28 297.463 37.296 299.212 36.272C301.004 35.2053 303.116 34.672 305.548 34.672H307.596V42.992H304.588C302.242 42.992 300.343 43.7173 298.892 45.168C297.442 46.576 296.716 48.5813 296.716 51.184V70H287.116ZM327.144 70V21.552H336.744V70H327.144ZM363.033 70.768C359.577 70.768 356.419 69.9787 353.561 68.4C350.745 66.8213 348.483 64.6667 346.777 61.936C345.113 59.1627 344.281 56.0267 344.281 52.528C344.281 48.9867 345.113 45.8507 346.777 43.12C348.483 40.3893 350.745 38.2347 353.561 36.656C356.419 35.0773 359.577 34.288 363.033 34.288C366.489 34.288 369.625 35.0773 372.441 36.656C375.257 38.2347 377.497 40.3893 379.161 43.12C380.867 45.8507 381.721 48.9867 381.721 52.528C381.721 56.0267 380.867 59.1627 379.161 61.936C377.497 64.6667 375.257 66.8213 372.441 68.4C369.625 69.9787 366.489 70.768 363.033 70.768ZM363.033 62.128C364.782 62.128 366.297 61.7227 367.577 60.912C368.899 60.1013 369.923 58.9707 370.649 57.52C371.417 56.0693 371.801 54.4053 371.801 52.528C371.801 50.6507 371.417 49.008 370.649 47.6C369.923 46.1493 368.899 45.0187 367.577 44.208C366.297 43.3547 364.782 42.928 363.033 42.928C361.283 42.928 359.747 43.3547 358.425 44.208C357.102 45.0187 356.057 46.1493 355.289 47.6C354.563 49.008 354.201 50.6507 354.201 52.528C354.201 54.4053 354.563 56.0693 355.289 57.52C356.057 58.9707 357.102 60.1013 358.425 60.912C359.747 61.7227 361.283 62.128 363.033 62.128ZM389.296 70V35.056H398.256V41.968L397.744 40.432C398.555 38.3413 399.856 36.8053 401.648 35.824C403.483 34.8 405.616 34.288 408.048 34.288C410.694 34.288 412.998 34.8427 414.96 35.952C416.966 37.0613 418.523 38.6187 419.632 40.624C420.742 42.5867 421.296 44.8907 421.296 47.536V70H411.696V49.584C411.696 48.2187 411.419 47.0453 410.864 46.064C410.352 45.0827 409.606 44.3147 408.624 43.76C407.686 43.2053 406.576 42.928 405.296 42.928C404.059 42.928 402.95 43.2053 401.968 43.76C400.987 44.3147 400.219 45.0827 399.664 46.064C399.152 47.0453 398.896 48.2187 398.896 49.584V70H389.296ZM446.681 84.08C443.993 84.08 441.497 83.632 439.193 82.736C436.889 81.84 434.905 80.5813 433.241 78.96C431.619 77.3813 430.446 75.504 429.721 73.328L438.617 70.192C439.086 71.8133 440.046 73.0933 441.497 74.032C442.947 74.9707 444.675 75.44 446.681 75.44C448.259 75.44 449.625 75.1413 450.777 74.544C451.929 73.9893 452.803 73.1573 453.401 72.048C454.041 70.9387 454.361 69.6373 454.361 68.144V60.144L456.217 62.448C455.022 64.4107 453.486 65.8827 451.609 66.864C449.731 67.8027 447.534 68.272 445.017 68.272C441.774 68.272 438.873 67.5467 436.313 66.096C433.753 64.6027 431.747 62.576 430.297 60.016C428.846 57.4133 428.121 54.4693 428.121 51.184C428.121 47.8987 428.846 44.9973 430.297 42.48C431.747 39.92 433.731 37.9147 436.249 36.464C438.766 35.0133 441.625 34.288 444.825 34.288C447.342 34.288 449.539 34.8 451.417 35.824C453.294 36.8053 454.894 38.32 456.217 40.368L455.001 42.672V35.056H463.961V68.144C463.961 71.216 463.214 73.9467 461.721 76.336C460.227 78.768 458.179 80.6667 455.577 82.032C453.017 83.3973 450.051 84.08 446.681 84.08ZM446.361 59.568C447.982 59.568 449.39 59.2267 450.585 58.544C451.779 57.8613 452.697 56.9013 453.337 55.664C454.019 54.4267 454.361 52.976 454.361 51.312C454.361 49.648 454.019 48.1973 453.337 46.96C452.654 45.68 451.715 44.6987 450.521 44.016C449.326 43.2907 447.939 42.928 446.361 42.928C444.739 42.928 443.289 43.2907 442.009 44.016C440.771 44.6987 439.79 45.68 439.065 46.96C438.382 48.1973 438.041 49.648 438.041 51.312C438.041 52.9333 438.382 54.3627 439.065 55.6C439.79 56.8373 440.771 57.8187 442.009 58.544C443.289 59.2267 444.739 59.568 446.361 59.568ZM490.593 70V43.376H484.705V35.056H490.593V34.544C490.593 31.7707 491.126 29.424 492.193 27.504C493.302 25.584 494.881 24.112 496.929 23.088C498.977 22.064 501.451 21.552 504.353 21.552C504.907 21.552 505.505 21.5947 506.145 21.68C506.785 21.7227 507.318 21.7867 507.745 21.872V30.064C507.318 29.9787 506.934 29.936 506.593 29.936C506.294 29.8933 505.974 29.872 505.633 29.872C503.841 29.872 502.475 30.2773 501.537 31.088C500.641 31.856 500.193 33.008 500.193 34.544V35.056H507.681V43.376H500.193V70H490.593ZM531.195 70.768C527.739 70.768 524.582 69.9787 521.723 68.4C518.907 66.8213 516.646 64.6667 514.939 61.936C513.275 59.1627 512.443 56.0267 512.443 52.528C512.443 48.9867 513.275 45.8507 514.939 43.12C516.646 40.3893 518.907 38.2347 521.723 36.656C524.582 35.0773 527.739 34.288 531.195 34.288C534.651 34.288 537.787 35.0773 540.603 36.656C543.419 38.2347 545.659 40.3893 547.323 43.12C549.03 45.8507 549.883 48.9867 549.883 52.528C549.883 56.0267 549.03 59.1627 547.323 61.936C545.659 64.6667 543.419 66.8213 540.603 68.4C537.787 69.9787 534.651 70.768 531.195 70.768ZM531.195 62.128C532.945 62.128 534.459 61.7227 535.739 60.912C537.062 60.1013 538.086 58.9707 538.811 57.52C539.579 56.0693 539.963 54.4053 539.963 52.528C539.963 50.6507 539.579 49.008 538.811 47.6C538.086 46.1493 537.062 45.0187 535.739 44.208C534.459 43.3547 532.945 42.928 531.195 42.928C529.446 42.928 527.91 43.3547 526.587 44.208C525.265 45.0187 524.219 46.1493 523.451 47.6C522.726 49.008 522.363 50.6507 522.363 52.528C522.363 54.4053 522.726 56.0693 523.451 57.52C524.219 58.9707 525.265 60.1013 526.587 60.912C527.91 61.7227 529.446 62.128 531.195 62.128ZM557.459 70V35.056H566.419V43.44L565.779 42.224C566.547 39.28 567.805 37.296 569.555 36.272C571.347 35.2053 573.459 34.672 575.891 34.672H577.939V42.992H574.931C572.584 42.992 570.685 43.7173 569.235 45.168C567.784 46.576 567.059 48.5813 567.059 51.184V70H557.459ZM584.066 70V35.056H593.026V43.568L592.066 42.16C592.578 39.472 593.816 37.488 595.778 36.208C597.741 34.928 600.088 34.288 602.818 34.288C605.72 34.288 608.258 35.0347 610.434 36.528C612.653 37.9787 614.04 39.9413 614.594 42.416L611.842 42.672C612.994 39.8133 614.637 37.7013 616.77 36.336C618.904 34.9707 621.4 34.288 624.258 34.288C626.776 34.288 628.994 34.8427 630.914 35.952C632.877 37.0613 634.413 38.6187 635.522 40.624C636.632 42.5867 637.186 44.8907 637.186 47.536V70H627.586V49.584C627.586 48.2187 627.33 47.0453 626.818 46.064C626.349 45.0827 625.666 44.3147 624.77 43.76C623.874 43.2053 622.786 42.928 621.506 42.928C620.269 42.928 619.181 43.2053 618.242 43.76C617.346 44.3147 616.642 45.0827 616.13 46.064C615.661 47.0453 615.426 48.2187 615.426 49.584V70H605.826V49.584C605.826 48.2187 605.57 47.0453 605.058 46.064C604.589 45.0827 603.906 44.3147 603.01 43.76C602.114 43.2053 601.026 42.928 599.746 42.928C598.509 42.928 597.421 43.2053 596.482 43.76C595.586 44.3147 594.882 45.0827 594.37 46.064C593.901 47.0453 593.666 48.2187 593.666 49.584V70H584.066ZM675.996 70.768C672.497 70.768 669.34 69.9787 666.524 68.4C663.75 66.7787 661.532 64.5813 659.868 61.808C658.246 59.0347 657.436 55.92 657.436 52.464C657.436 49.008 658.246 45.9147 659.868 43.184C661.489 40.4107 663.708 38.2347 666.524 36.656C669.34 35.0773 672.497 34.288 675.996 34.288C678.598 34.288 681.009 34.736 683.228 35.632C685.446 36.528 687.345 37.7867 688.924 39.408C690.502 40.9867 691.633 42.864 692.316 45.04L683.996 48.624C683.398 46.8747 682.374 45.488 680.924 44.464C679.516 43.44 677.873 42.928 675.996 42.928C674.332 42.928 672.838 43.3333 671.516 44.144C670.236 44.9547 669.212 46.0853 668.444 47.536C667.718 48.9867 667.356 50.6507 667.356 52.528C667.356 54.4053 667.718 56.0693 668.444 57.52C669.212 58.9707 670.236 60.1013 671.516 60.912C672.838 61.7227 674.332 62.128 675.996 62.128C677.916 62.128 679.58 61.616 680.988 60.592C682.396 59.568 683.398 58.1813 683.996 56.432L692.316 60.08C691.676 62.128 690.566 63.9627 688.988 65.584C687.409 67.2053 685.51 68.4853 683.292 69.424C681.073 70.32 678.641 70.768 675.996 70.768ZM717.233 70.768C713.777 70.768 710.619 69.9787 707.761 68.4C704.945 66.8213 702.683 64.6667 700.977 61.936C699.313 59.1627 698.481 56.0267 698.481 52.528C698.481 48.9867 699.313 45.8507 700.977 43.12C702.683 40.3893 704.945 38.2347 707.761 36.656C710.619 35.0773 713.777 34.288 717.233 34.288C720.689 34.288 723.825 35.0773 726.641 36.656C729.457 38.2347 731.697 40.3893 733.361 43.12C735.067 45.8507 735.921 48.9867 735.921 52.528C735.921 56.0267 735.067 59.1627 733.361 61.936C731.697 64.6667 729.457 66.8213 726.641 68.4C723.825 69.9787 720.689 70.768 717.233 70.768ZM717.233 62.128C718.982 62.128 720.497 61.7227 721.777 60.912C723.099 60.1013 724.123 58.9707 724.849 57.52C725.617 56.0693 726.001 54.4053 726.001 52.528C726.001 50.6507 725.617 49.008 724.849 47.6C724.123 46.1493 723.099 45.0187 721.777 44.208C720.497 43.3547 718.982 42.928 717.233 42.928C715.483 42.928 713.947 43.3547 712.625 44.208C711.302 45.0187 710.257 46.1493 709.489 47.6C708.763 49.008 708.401 50.6507 708.401 52.528C708.401 54.4053 708.763 56.0693 709.489 57.52C710.257 58.9707 711.302 60.1013 712.625 60.912C713.947 61.7227 715.483 62.128 717.233 62.128ZM743.496 70V35.056H752.456V41.968L751.944 40.432C752.755 38.3413 754.056 36.8053 755.848 35.824C757.683 34.8 759.816 34.288 762.248 34.288C764.894 34.288 767.198 34.8427 769.16 35.952C771.166 37.0613 772.723 38.6187 773.832 40.624C774.942 42.5867 775.496 44.8907 775.496 47.536V70H765.896V49.584C765.896 48.2187 765.619 47.0453 765.064 46.064C764.552 45.0827 763.806 44.3147 762.824 43.76C761.886 43.2053 760.776 42.928 759.496 42.928C758.259 42.928 757.15 43.2053 756.168 43.76C755.187 44.3147 754.419 45.0827 753.864 46.064C753.352 47.0453 753.096 48.2187 753.096 49.584V70H743.496ZM800.561 70.384C796.337 70.384 793.051 69.2533 790.705 66.992C788.401 64.688 787.249 61.488 787.249 57.392V43.376H781.361V35.056H781.681C783.473 35.056 784.838 34.608 785.777 33.712C786.758 32.816 787.249 31.472 787.249 29.68V27.12H796.849V35.056H805.041V43.376H796.849V56.752C796.849 57.9467 797.062 58.9493 797.489 59.76C797.915 60.528 798.577 61.104 799.473 61.488C800.369 61.872 801.478 62.064 802.801 62.064C803.099 62.064 803.441 62.0427 803.825 62C804.209 61.9573 804.614 61.9147 805.041 61.872V70C804.401 70.0853 803.675 70.1707 802.865 70.256C802.054 70.3413 801.286 70.384 800.561 70.384ZM829.418 70.768C825.706 70.768 822.485 69.9573 819.754 68.336C817.024 66.672 814.912 64.4533 813.418 61.68C811.925 58.9067 811.178 55.8347 811.178 52.464C811.178 48.9653 811.946 45.8507 813.482 43.12C815.061 40.3893 817.173 38.2347 819.818 36.656C822.464 35.0773 825.45 34.288 828.778 34.288C831.552 34.288 834.005 34.736 836.138 35.632C838.272 36.4853 840.064 37.7013 841.514 39.28C843.008 40.8587 844.138 42.6933 844.906 44.784C845.674 46.832 846.058 49.072 846.058 51.504C846.058 52.1867 846.016 52.8693 845.93 53.552C845.888 54.192 845.781 54.7467 845.61 55.216H819.434V48.176H840.17L835.626 51.504C836.053 49.6693 836.032 48.048 835.562 46.64C835.093 45.1893 834.261 44.0587 833.066 43.248C831.914 42.3947 830.485 41.968 828.778 41.968C827.114 41.968 825.685 42.3733 824.49 43.184C823.296 43.9947 822.4 45.1893 821.802 46.768C821.205 48.3467 820.97 50.2667 821.098 52.528C820.928 54.4907 821.162 56.2187 821.802 57.712C822.442 59.2053 823.424 60.3787 824.746 61.232C826.069 62.0427 827.669 62.448 829.546 62.448C831.253 62.448 832.704 62.1067 833.898 61.424C835.136 60.7413 836.096 59.8027 836.778 58.608L844.458 62.256C843.776 63.9627 842.688 65.456 841.194 66.736C839.744 68.016 838.016 69.0187 836.01 69.744C834.005 70.4267 831.808 70.768 829.418 70.768ZM853.631 70V35.056H862.591V41.968L862.079 40.432C862.89 38.3413 864.191 36.8053 865.983 35.824C867.818 34.8 869.951 34.288 872.383 34.288C875.029 34.288 877.333 34.8427 879.295 35.952C881.301 37.0613 882.858 38.6187 883.967 40.624C885.077 42.5867 885.631 44.8907 885.631 47.536V70H876.031V49.584C876.031 48.2187 875.754 47.0453 875.199 46.064C874.687 45.0827 873.941 44.3147 872.959 43.76C872.021 43.2053 870.911 42.928 869.631 42.928C868.394 42.928 867.285 43.2053 866.303 43.76C865.322 44.3147 864.554 45.0827 863.999 46.064C863.487 47.0453 863.231 48.2187 863.231 49.584V70H853.631ZM910.696 70.384C906.472 70.384 903.186 69.2533 900.84 66.992C898.536 64.688 897.384 61.488 897.384 57.392V43.376H891.496V35.056H891.816C893.608 35.056 894.973 34.608 895.912 33.712C896.893 32.816 897.384 31.472 897.384 29.68V27.12H906.984V35.056H915.176V43.376H906.984V56.752C906.984 57.9467 907.197 58.9493 907.624 59.76C908.05 60.528 908.712 61.104 909.608 61.488C910.504 61.872 911.613 62.064 912.936 62.064C913.234 62.064 913.576 62.0427 913.96 62C914.344 61.9573 914.749 61.9147 915.176 61.872V70C914.536 70.0853 913.81 70.1707 913 70.256C912.189 70.3413 911.421 70.384 910.696 70.384ZM101.244 153V118.056H110.844V153H101.244ZM101.244 114.92V105.32H110.844V114.92H101.244ZM119.789 153V118.056H128.749V124.968L128.237 123.432C129.047 121.341 130.349 119.805 132.141 118.824C133.975 117.8 136.109 117.288 138.541 117.288C141.186 117.288 143.49 117.843 145.453 118.952C147.458 120.061 149.015 121.619 150.125 123.624C151.234 125.587 151.789 127.891 151.789 130.536V153H142.189V132.584C142.189 131.219 141.911 130.045 141.357 129.064C140.845 128.083 140.098 127.315 139.117 126.76C138.178 126.205 137.069 125.928 135.789 125.928C134.551 125.928 133.442 126.205 132.461 126.76C131.479 127.315 130.711 128.083 130.157 129.064C129.645 130.045 129.389 131.219 129.389 132.584V153H119.789ZM176.853 153.384C172.629 153.384 169.344 152.253 166.997 149.992C164.693 147.688 163.541 144.488 163.541 140.392V126.376H157.653V118.056H157.973C159.765 118.056 161.131 117.608 162.069 116.712C163.051 115.816 163.541 114.472 163.541 112.68V110.12H173.141V118.056H181.333V126.376H173.141V139.752C173.141 140.947 173.355 141.949 173.781 142.76C174.208 143.528 174.869 144.104 175.765 144.488C176.661 144.872 177.771 145.064 179.093 145.064C179.392 145.064 179.733 145.043 180.117 145C180.501 144.957 180.907 144.915 181.333 144.872V153C180.693 153.085 179.968 153.171 179.157 153.256C178.347 153.341 177.579 153.384 176.853 153.384ZM206.223 153.768C202.767 153.768 199.609 152.979 196.751 151.4C193.935 149.821 191.673 147.667 189.967 144.936C188.303 142.163 187.471 139.027 187.471 135.528C187.471 131.987 188.303 128.851 189.967 126.12C191.673 123.389 193.935 121.235 196.751 119.656C199.609 118.077 202.767 117.288 206.223 117.288C209.679 117.288 212.815 118.077 215.631 119.656C218.447 121.235 220.687 123.389 222.351 126.12C224.057 128.851 224.911 131.987 224.911 135.528C224.911 139.027 224.057 142.163 222.351 144.936C220.687 147.667 218.447 149.821 215.631 151.4C212.815 152.979 209.679 153.768 206.223 153.768ZM206.223 145.128C207.972 145.128 209.487 144.723 210.767 143.912C212.089 143.101 213.113 141.971 213.839 140.52C214.607 139.069 214.991 137.405 214.991 135.528C214.991 133.651 214.607 132.008 213.839 130.6C213.113 129.149 212.089 128.019 210.767 127.208C209.487 126.355 207.972 125.928 206.223 125.928C204.473 125.928 202.937 126.355 201.615 127.208C200.292 128.019 199.247 129.149 198.479 130.6C197.753 132.008 197.391 133.651 197.391 135.528C197.391 137.405 197.753 139.069 198.479 140.52C199.247 141.971 200.292 143.101 201.615 143.912C202.937 144.723 204.473 145.128 206.223 145.128ZM259.602 153.768C255.762 153.768 252.413 152.872 249.554 151.08C246.738 149.245 244.818 146.792 243.794 143.72L250.834 140.392C251.73 142.269 252.946 143.741 254.482 144.808C256.018 145.875 257.725 146.408 259.602 146.408C260.968 146.408 262.013 146.131 262.738 145.576C263.464 145.021 263.826 144.253 263.826 143.272C263.826 142.76 263.698 142.333 263.442 141.992C263.186 141.608 262.802 141.267 262.29 140.968C261.778 140.669 261.138 140.413 260.37 140.2L254.418 138.536C251.56 137.725 249.362 136.424 247.826 134.632C246.29 132.797 245.522 130.643 245.522 128.168C245.522 125.992 246.077 124.093 247.186 122.472C248.296 120.851 249.853 119.592 251.858 118.696C253.864 117.757 256.168 117.288 258.77 117.288C262.184 117.288 265.17 118.099 267.73 119.72C270.333 121.299 272.168 123.539 273.234 126.44L266.13 129.768C265.618 128.317 264.68 127.165 263.314 126.312C261.992 125.416 260.477 124.968 258.77 124.968C257.533 124.968 256.552 125.224 255.826 125.736C255.144 126.248 254.802 126.952 254.802 127.848C254.802 128.317 254.93 128.744 255.186 129.128C255.442 129.512 255.848 129.853 256.402 130.152C257 130.451 257.725 130.728 258.578 130.984L264.146 132.648C267.048 133.501 269.266 134.803 270.802 136.552C272.338 138.259 273.106 140.371 273.106 142.888C273.106 145.064 272.53 146.963 271.378 148.584C270.269 150.205 268.712 151.485 266.706 152.424C264.701 153.32 262.333 153.768 259.602 153.768ZM280.764 153V104.552H290.364V124.968L289.212 123.432C290.022 121.341 291.324 119.805 293.116 118.824C294.95 117.8 297.084 117.288 299.516 117.288C302.161 117.288 304.465 117.843 306.428 118.952C308.433 120.061 309.99 121.619 311.1 123.624C312.209 125.587 312.764 127.891 312.764 130.536V153H303.164V132.584C303.164 131.219 302.886 130.045 302.332 129.064C301.82 128.083 301.073 127.315 300.092 126.76C299.153 126.205 298.044 125.928 296.764 125.928C295.526 125.928 294.417 126.205 293.436 126.76C292.454 127.315 291.686 128.083 291.132 129.064C290.62 130.045 290.364 131.219 290.364 132.584V153H280.764ZM338.34 153.768C334.884 153.768 331.727 152.979 328.868 151.4C326.052 149.821 323.791 147.667 322.084 144.936C320.42 142.163 319.588 139.027 319.588 135.528C319.588 131.987 320.42 128.851 322.084 126.12C323.791 123.389 326.052 121.235 328.868 119.656C331.727 118.077 334.884 117.288 338.34 117.288C341.796 117.288 344.932 118.077 347.748 119.656C350.564 121.235 352.804 123.389 354.468 126.12C356.175 128.851 357.028 131.987 357.028 135.528C357.028 139.027 356.175 142.163 354.468 144.936C352.804 147.667 350.564 149.821 347.748 151.4C344.932 152.979 341.796 153.768 338.34 153.768ZM338.34 145.128C340.09 145.128 341.604 144.723 342.884 143.912C344.207 143.101 345.231 141.971 345.956 140.52C346.724 139.069 347.108 137.405 347.108 135.528C347.108 133.651 346.724 132.008 345.956 130.6C345.231 129.149 344.207 128.019 342.884 127.208C341.604 126.355 340.09 125.928 338.34 125.928C336.591 125.928 335.055 126.355 333.732 127.208C332.41 128.019 331.364 129.149 330.596 130.6C329.871 132.008 329.508 133.651 329.508 135.528C329.508 137.405 329.871 139.069 330.596 140.52C331.364 141.971 332.41 143.101 333.732 143.912C335.055 144.723 336.591 145.128 338.34 145.128ZM364.604 153V118.056H373.564V126.44L372.924 125.224C373.692 122.28 374.95 120.296 376.7 119.272C378.492 118.205 380.604 117.672 383.036 117.672H385.084V125.992H382.076C379.729 125.992 377.83 126.717 376.38 128.168C374.929 129.576 374.204 131.581 374.204 134.184V153H364.604ZM409.293 153.384C405.069 153.384 401.784 152.253 399.437 149.992C397.133 147.688 395.981 144.488 395.981 140.392V126.376H390.093V118.056H390.413C392.205 118.056 393.571 117.608 394.509 116.712C395.491 115.816 395.981 114.472 395.981 112.68V110.12H405.581V118.056H413.773V126.376H405.581V139.752C405.581 140.947 405.795 141.949 406.221 142.76C406.648 143.528 407.309 144.104 408.205 144.488C409.101 144.872 410.211 145.064 411.533 145.064C411.832 145.064 412.173 145.043 412.557 145C412.941 144.957 413.347 144.915 413.773 144.872V153C413.133 153.085 412.408 153.171 411.597 153.256C410.787 153.341 410.019 153.384 409.293 153.384ZM595.825 153.768C592.369 153.768 589.212 152.979 586.353 151.4C583.537 149.821 581.276 147.667 579.569 144.936C577.905 142.163 577.073 139.027 577.073 135.528C577.073 131.987 577.905 128.851 579.569 126.12C581.276 123.389 583.537 121.235 586.353 119.656C589.212 118.077 592.369 117.288 595.825 117.288C599.281 117.288 602.417 118.077 605.233 119.656C608.049 121.235 610.289 123.389 611.953 126.12C613.66 128.851 614.513 131.987 614.513 135.528C614.513 139.027 613.66 142.163 611.953 144.936C610.289 147.667 608.049 149.821 605.233 151.4C602.417 152.979 599.281 153.768 595.825 153.768ZM595.825 145.128C597.575 145.128 599.089 144.723 600.369 143.912C601.692 143.101 602.716 141.971 603.441 140.52C604.209 139.069 604.593 137.405 604.593 135.528C604.593 133.651 604.209 132.008 603.441 130.6C602.716 129.149 601.692 128.019 600.369 127.208C599.089 126.355 597.575 125.928 595.825 125.928C594.076 125.928 592.54 126.355 591.217 127.208C589.895 128.019 588.849 129.149 588.081 130.6C587.356 132.008 586.993 133.651 586.993 135.528C586.993 137.405 587.356 139.069 588.081 140.52C588.849 141.971 589.895 143.101 591.217 143.912C592.54 144.723 594.076 145.128 595.825 145.128ZM635.785 153.768C631.945 153.768 628.595 152.872 625.737 151.08C622.921 149.245 621.001 146.792 619.977 143.72L627.017 140.392C627.913 142.269 629.129 143.741 630.665 144.808C632.201 145.875 633.907 146.408 635.785 146.408C637.15 146.408 638.195 146.131 638.921 145.576C639.646 145.021 640.009 144.253 640.009 143.272C640.009 142.76 639.881 142.333 639.625 141.992C639.369 141.608 638.985 141.267 638.473 140.968C637.961 140.669 637.321 140.413 636.553 140.2L630.601 138.536C627.742 137.725 625.545 136.424 624.009 134.632C622.473 132.797 621.705 130.643 621.705 128.168C621.705 125.992 622.259 124.093 623.369 122.472C624.478 120.851 626.035 119.592 628.041 118.696C630.046 117.757 632.35 117.288 634.953 117.288C638.366 117.288 641.353 118.099 643.913 119.72C646.515 121.299 648.35 123.539 649.417 126.44L642.313 129.768C641.801 128.317 640.862 127.165 639.497 126.312C638.174 125.416 636.659 124.968 634.953 124.968C633.715 124.968 632.734 125.224 632.009 125.736C631.326 126.248 630.985 126.952 630.985 127.848C630.985 128.317 631.113 128.744 631.369 129.128C631.625 129.512 632.03 129.853 632.585 130.152C633.182 130.451 633.907 130.728 634.761 130.984L640.329 132.648C643.23 133.501 645.449 134.803 646.985 136.552C648.521 138.259 649.289 140.371 649.289 142.888C649.289 145.064 648.713 146.963 647.561 148.584C646.451 150.205 644.894 151.485 642.889 152.424C640.883 153.32 638.515 153.768 635.785 153.768ZM679.582 153L667.55 118.056H677.47L685.918 143.272L682.462 143.208L691.87 118.056H700.19L709.534 143.208L706.078 143.272L714.526 118.056H724.51L712.414 153H704.094L694.366 125.992H697.694L687.902 153H679.582ZM730.661 153V118.056H740.261V153H730.661ZM730.661 114.92V105.32H740.261V114.92H730.661ZM766.038 153.384C761.814 153.384 758.529 152.253 756.182 149.992C753.878 147.688 752.726 144.488 752.726 140.392V126.376H746.838V118.056H747.158C748.95 118.056 750.316 117.608 751.254 116.712C752.236 115.816 752.726 114.472 752.726 112.68V110.12H762.326V118.056H770.518V126.376H762.326V139.752C762.326 140.947 762.54 141.949 762.966 142.76C763.393 143.528 764.054 144.104 764.95 144.488C765.846 144.872 766.956 145.064 768.278 145.064C768.577 145.064 768.918 145.043 769.302 145C769.686 144.957 770.092 144.915 770.518 144.872V153C769.878 153.085 769.153 153.171 768.342 153.256C767.532 153.341 766.764 153.384 766.038 153.384ZM778.064 153V104.552H787.664V124.968L786.512 123.432C787.322 121.341 788.624 119.805 790.416 118.824C792.25 117.8 794.384 117.288 796.816 117.288C799.461 117.288 801.765 117.843 803.728 118.952C805.733 120.061 807.29 121.619 808.4 123.624C809.509 125.587 810.064 127.891 810.064 130.536V153H800.464V132.584C800.464 131.219 800.186 130.045 799.632 129.064C799.12 128.083 798.373 127.315 797.392 126.76C796.453 126.205 795.344 125.928 794.064 125.928C792.826 125.928 791.717 126.205 790.736 126.76C789.754 127.315 788.986 128.083 788.432 129.064C787.92 130.045 787.664 131.219 787.664 132.584V153H778.064ZM193.554 236V228.32L213.65 206.176L215.058 209.376H194.386V201.056H223.57V208.736L203.986 230.944L202.578 227.68H223.634V236H193.554ZM246.622 236.768C242.91 236.768 239.689 235.957 236.958 234.336C234.227 232.672 232.115 230.453 230.622 227.68C229.129 224.907 228.382 221.835 228.382 218.464C228.382 214.965 229.15 211.851 230.686 209.12C232.265 206.389 234.377 204.235 237.022 202.656C239.667 201.077 242.654 200.288 245.982 200.288C248.755 200.288 251.209 200.736 253.342 201.632C255.475 202.485 257.267 203.701 258.718 205.28C260.211 206.859 261.342 208.693 262.11 210.784C262.878 212.832 263.262 215.072 263.262 217.504C263.262 218.187 263.219 218.869 263.134 219.552C263.091 220.192 262.985 220.747 262.814 221.216H236.638V214.176H257.374L252.83 217.504C253.257 215.669 253.235 214.048 252.766 212.64C252.297 211.189 251.465 210.059 250.27 209.248C249.118 208.395 247.689 207.968 245.982 207.968C244.318 207.968 242.889 208.373 241.694 209.184C240.499 209.995 239.603 211.189 239.006 212.768C238.409 214.347 238.174 216.267 238.302 218.528C238.131 220.491 238.366 222.219 239.006 223.712C239.646 225.205 240.627 226.379 241.95 227.232C243.273 228.043 244.873 228.448 246.75 228.448C248.457 228.448 249.907 228.107 251.102 227.424C252.339 226.741 253.299 225.803 253.982 224.608L261.662 228.256C260.979 229.963 259.891 231.456 258.398 232.736C256.947 234.016 255.219 235.019 253.214 235.744C251.209 236.427 249.011 236.768 246.622 236.768ZM270.835 236V201.056H279.795V209.44L279.155 208.224C279.923 205.28 281.182 203.296 282.931 202.272C284.723 201.205 286.835 200.672 289.267 200.672H291.315V208.992H288.307C285.96 208.992 284.062 209.717 282.611 211.168C281.16 212.576 280.435 214.581 280.435 217.184V236H270.835ZM314.787 236.768C311.331 236.768 308.173 235.979 305.315 234.4C302.499 232.821 300.237 230.667 298.531 227.936C296.867 225.163 296.035 222.027 296.035 218.528C296.035 214.987 296.867 211.851 298.531 209.12C300.237 206.389 302.499 204.235 305.315 202.656C308.173 201.077 311.331 200.288 314.787 200.288C318.243 200.288 321.379 201.077 324.195 202.656C327.011 204.235 329.251 206.389 330.915 209.12C332.621 211.851 333.475 214.987 333.475 218.528C333.475 222.027 332.621 225.163 330.915 227.936C329.251 230.667 327.011 232.821 324.195 234.4C321.379 235.979 318.243 236.768 314.787 236.768ZM314.787 228.128C316.536 228.128 318.051 227.723 319.331 226.912C320.653 226.101 321.677 224.971 322.403 223.52C323.171 222.069 323.555 220.405 323.555 218.528C323.555 216.651 323.171 215.008 322.403 213.6C321.677 212.149 320.653 211.019 319.331 210.208C318.051 209.355 316.536 208.928 314.787 208.928C313.037 208.928 311.501 209.355 310.179 210.208C308.856 211.019 307.811 212.149 307.043 213.6C306.317 215.008 305.955 216.651 305.955 218.528C305.955 220.405 306.317 222.069 307.043 223.52C307.811 224.971 308.856 226.101 310.179 226.912C311.501 227.723 313.037 228.128 314.787 228.128ZM371.302 236.768C367.59 236.768 364.369 235.957 361.638 234.336C358.907 232.672 356.795 230.453 355.302 227.68C353.809 224.907 353.062 221.835 353.062 218.464C353.062 214.965 353.83 211.851 355.366 209.12C356.945 206.389 359.057 204.235 361.702 202.656C364.347 201.077 367.334 200.288 370.662 200.288C373.435 200.288 375.889 200.736 378.022 201.632C380.155 202.485 381.947 203.701 383.398 205.28C384.891 206.859 386.022 208.693 386.79 210.784C387.558 212.832 387.942 215.072 387.942 217.504C387.942 218.187 387.899 218.869 387.814 219.552C387.771 220.192 387.665 220.747 387.494 221.216H361.318V214.176H382.054L377.51 217.504C377.937 215.669 377.915 214.048 377.446 212.64C376.977 211.189 376.145 210.059 374.95 209.248C373.798 208.395 372.369 207.968 370.662 207.968C368.998 207.968 367.569 208.373 366.374 209.184C365.179 209.995 364.283 211.189 363.686 212.768C363.089 214.347 362.854 216.267 362.982 218.528C362.811 220.491 363.046 222.219 363.686 223.712C364.326 225.205 365.307 226.379 366.63 227.232C367.953 228.043 369.553 228.448 371.43 228.448C373.137 228.448 374.587 228.107 375.782 227.424C377.019 226.741 377.979 225.803 378.662 224.608L386.342 228.256C385.659 229.963 384.571 231.456 383.078 232.736C381.627 234.016 379.899 235.019 377.894 235.744C375.889 236.427 373.691 236.768 371.302 236.768ZM392.138 236L404.362 218.464L392.074 201.056H403.21L412.426 214.624H407.562L416.778 201.056H427.914L415.626 218.464L427.786 236H416.714L407.69 222.432H412.298L403.274 236H392.138ZM450.892 236.384C446.668 236.384 443.383 235.253 441.036 232.992C438.732 230.688 437.58 227.488 437.58 223.392V209.376H431.692V201.056H432.012C433.804 201.056 435.169 200.608 436.108 199.712C437.089 198.816 437.58 197.472 437.58 195.68V193.12H447.18V201.056H455.372V209.376H447.18V222.752C447.18 223.947 447.393 224.949 447.82 225.76C448.247 226.528 448.908 227.104 449.804 227.488C450.7 227.872 451.809 228.064 453.132 228.064C453.431 228.064 453.772 228.043 454.156 228C454.54 227.957 454.945 227.915 455.372 227.872V236C454.732 236.085 454.007 236.171 453.196 236.256C452.385 236.341 451.617 236.384 450.892 236.384ZM462.917 236V201.056H471.877V209.44L471.237 208.224C472.005 205.28 473.264 203.296 475.013 202.272C476.805 201.205 478.917 200.672 481.349 200.672H483.397V208.992H480.389C478.043 208.992 476.144 209.717 474.693 211.168C473.243 212.576 472.517 214.581 472.517 217.184V236H462.917ZM500.341 236.768C497.824 236.768 495.648 236.363 493.813 235.552C491.978 234.741 490.57 233.589 489.589 232.096C488.608 230.56 488.117 228.747 488.117 226.656C488.117 224.693 488.565 222.965 489.461 221.472C490.357 219.936 491.722 218.656 493.557 217.632C495.434 216.608 497.76 215.883 500.533 215.456L511.221 213.728V220.768L502.261 222.368C500.896 222.624 499.85 223.072 499.125 223.712C498.4 224.309 498.037 225.184 498.037 226.336C498.037 227.403 498.442 228.235 499.253 228.832C500.064 229.429 501.066 229.728 502.261 229.728C503.84 229.728 505.226 229.387 506.421 228.704C507.616 228.021 508.533 227.104 509.173 225.952C509.856 224.757 510.197 223.456 510.197 222.048V212.96C510.197 211.637 509.664 210.528 508.597 209.632C507.573 208.736 506.165 208.288 504.373 208.288C502.666 208.288 501.152 208.757 499.829 209.696C498.549 210.635 497.61 211.872 497.013 213.408L489.333 209.76C490.016 207.797 491.104 206.112 492.597 204.704C494.09 203.296 495.882 202.208 497.973 201.44C500.064 200.672 502.346 200.288 504.821 200.288C507.765 200.288 510.368 200.821 512.629 201.888C514.89 202.955 516.64 204.448 517.877 206.368C519.157 208.245 519.797 210.443 519.797 212.96V236H510.837V230.368L513.013 229.984C511.989 231.52 510.858 232.8 509.621 233.824C508.384 234.805 506.997 235.531 505.461 236C503.925 236.512 502.218 236.768 500.341 236.768ZM559.009 236.768C555.297 236.768 552.076 235.957 549.345 234.336C546.615 232.672 544.503 230.453 543.009 227.68C541.516 224.907 540.769 221.835 540.769 218.464C540.769 214.965 541.537 211.851 543.073 209.12C544.652 206.389 546.764 204.235 549.409 202.656C552.055 201.077 555.041 200.288 558.369 200.288C561.143 200.288 563.596 200.736 565.729 201.632C567.863 202.485 569.655 203.701 571.105 205.28C572.599 206.859 573.729 208.693 574.497 210.784C575.265 212.832 575.649 215.072 575.649 217.504C575.649 218.187 575.607 218.869 575.521 219.552C575.479 220.192 575.372 220.747 575.201 221.216H549.025V214.176H569.761L565.217 217.504C565.644 215.669 565.623 214.048 565.153 212.64C564.684 211.189 563.852 210.059 562.657 209.248C561.505 208.395 560.076 207.968 558.369 207.968C556.705 207.968 555.276 208.373 554.081 209.184C552.887 209.995 551.991 211.189 551.393 212.768C550.796 214.347 550.561 216.267 550.689 218.528C550.519 220.491 550.753 222.219 551.393 223.712C552.033 225.205 553.015 226.379 554.337 227.232C555.66 228.043 557.26 228.448 559.137 228.448C560.844 228.448 562.295 228.107 563.489 227.424C564.727 226.741 565.687 225.803 566.369 224.608L574.049 228.256C573.367 229.963 572.279 231.456 570.785 232.736C569.335 234.016 567.607 235.019 565.601 235.744C563.596 236.427 561.399 236.768 559.009 236.768ZM587.447 236V209.376H581.559V201.056H587.447V200.544C587.447 197.771 587.98 195.424 589.047 193.504C590.156 191.584 591.735 190.112 593.783 189.088C595.831 188.064 598.305 187.552 601.207 187.552C601.761 187.552 602.359 187.595 602.999 187.68C603.639 187.723 604.172 187.787 604.599 187.872V196.064C604.172 195.979 603.788 195.936 603.447 195.936C603.148 195.893 602.828 195.872 602.487 195.872C600.695 195.872 599.329 196.277 598.391 197.088C597.495 197.856 597.047 199.008 597.047 200.544V201.056H610.935V209.376H597.047V236H587.447ZM613.047 236V209.376H607.159V201.056H613.047V200.544C613.047 197.771 613.58 195.424 614.647 193.504C615.756 191.584 617.335 190.112 619.383 189.088C621.431 188.064 623.905 187.552 626.807 187.552C627.361 187.552 627.959 187.595 628.599 187.68C629.239 187.723 629.772 187.787 630.199 187.872V196.064C629.772 195.979 629.388 195.936 629.047 195.936C628.748 195.893 628.428 195.872 628.087 195.872C626.295 195.872 624.929 196.277 623.991 197.088C623.095 197.856 622.647 199.008 622.647 200.544V201.056H630.135V209.376H622.647V236H613.047ZM653.611 236.768C650.155 236.768 646.998 235.979 644.139 234.4C641.323 232.821 639.062 230.667 637.355 227.936C635.691 225.163 634.859 222.027 634.859 218.528C634.859 214.987 635.691 211.851 637.355 209.12C639.062 206.389 641.323 204.235 644.139 202.656C646.998 201.077 650.155 200.288 653.611 200.288C657.067 200.288 660.203 201.077 663.019 202.656C665.835 204.235 668.075 206.389 669.739 209.12C671.446 211.851 672.299 214.987 672.299 218.528C672.299 222.027 671.446 225.163 669.739 227.936C668.075 230.667 665.835 232.821 663.019 234.4C660.203 235.979 657.067 236.768 653.611 236.768ZM653.611 228.128C655.361 228.128 656.875 227.723 658.155 226.912C659.478 226.101 660.502 224.971 661.227 223.52C661.995 222.069 662.379 220.405 662.379 218.528C662.379 216.651 661.995 215.008 661.227 213.6C660.502 212.149 659.478 211.019 658.155 210.208C656.875 209.355 655.361 208.928 653.611 208.928C651.862 208.928 650.326 209.355 649.003 210.208C647.681 211.019 646.635 212.149 645.867 213.6C645.142 215.008 644.779 216.651 644.779 218.528C644.779 220.405 645.142 222.069 645.867 223.52C646.635 224.971 647.681 226.101 649.003 226.912C650.326 227.723 651.862 228.128 653.611 228.128Z" fill="black"/>
<path d="M445.683 153L431.923 118.056H442.291L451.827 144.488H447.859L457.395 118.056H467.763L454.003 153H445.683ZM473.909 153V118.056H483.509V153H473.909ZM473.909 114.92V105.32H483.509V114.92H473.909Z" fill="#12161E"/>
<path d="M508.902 153.768C505.488 153.768 502.438 152.957 499.75 151.336C497.062 149.715 494.928 147.517 493.35 144.744C491.814 141.971 491.046 138.899 491.046 135.528C491.046 132.115 491.835 129.043 493.414 126.312C494.992 123.539 497.126 121.341 499.814 119.72C502.502 118.099 505.51 117.288 508.838 117.288C511.398 117.288 513.659 117.779 515.622 118.76C517.627 119.699 519.206 121.043 520.358 122.792L518.886 124.712V104.552H528.486V153H519.526V146.6L520.422 148.584C519.227 150.291 517.606 151.592 515.558 152.488C513.51 153.341 511.291 153.768 508.902 153.768ZM510.054 145.128C511.803 145.128 513.339 144.723 514.662 143.912C515.984 143.101 517.008 141.971 517.734 140.52C518.502 139.069 518.886 137.405 518.886 135.528C518.886 133.651 518.502 131.987 517.734 130.536C517.008 129.085 515.984 127.955 514.662 127.144C513.339 126.333 511.803 125.928 510.054 125.928C508.304 125.928 506.726 126.355 505.318 127.208C503.952 128.019 502.886 129.149 502.118 130.6C501.35 132.008 500.966 133.651 500.966 135.528C500.966 137.405 501.35 139.069 502.118 140.52C502.886 141.971 503.952 143.101 505.318 143.912C506.726 144.723 508.304 145.128 510.054 145.128ZM554.268 153.768C550.556 153.768 547.335 152.957 544.604 151.336C541.874 149.672 539.762 147.453 538.268 144.68C536.775 141.907 536.028 138.835 536.028 135.464C536.028 131.965 536.796 128.851 538.332 126.12C539.911 123.389 542.023 121.235 544.668 119.656C547.314 118.077 550.3 117.288 553.628 117.288C556.402 117.288 558.855 117.736 560.988 118.632C563.122 119.485 564.914 120.701 566.364 122.28C567.858 123.859 568.988 125.693 569.756 127.784C570.524 129.832 570.908 132.072 570.908 134.504C570.908 135.187 570.866 135.869 570.78 136.552C570.738 137.192 570.631 137.747 570.46 138.216H544.284V131.176H565.02L560.476 134.504C560.903 132.669 560.882 131.048 560.412 129.64C559.943 128.189 559.111 127.059 557.916 126.248C556.764 125.395 555.335 124.968 553.628 124.968C551.964 124.968 550.535 125.373 549.34 126.184C548.146 126.995 547.25 128.189 546.652 129.768C546.055 131.347 545.82 133.267 545.948 135.528C545.778 137.491 546.012 139.219 546.652 140.712C547.292 142.205 548.274 143.379 549.596 144.232C550.919 145.043 552.519 145.448 554.396 145.448C556.103 145.448 557.554 145.107 558.748 144.424C559.986 143.741 560.946 142.803 561.628 141.608L569.308 145.256C568.626 146.963 567.538 148.456 566.044 149.736C564.594 151.016 562.866 152.019 560.86 152.744C558.855 153.427 556.658 153.768 554.268 153.768Z" fill="#FFC403"/>
<path d="M679.875 236V201.056H688.835V209.44L688.195 208.224C688.963 205.28 690.222 203.296 691.971 202.272C693.763 201.205 695.875 200.672 698.307 200.672H700.355V208.992H697.347C695 208.992 693.102 209.717 691.651 211.168C690.2 212.576 689.475 214.581 689.475 217.184V236H679.875ZM724.565 236.384C720.341 236.384 717.055 235.253 714.709 232.992C712.405 230.688 711.253 227.488 711.253 223.392V209.376H705.365V201.056H705.685C707.477 201.056 708.842 200.608 709.781 199.712C710.762 198.816 711.253 197.472 711.253 195.68V193.12H720.853V201.056H729.045V209.376H720.853V222.752C720.853 223.947 721.066 224.949 721.493 225.76C721.919 226.528 722.581 227.104 723.477 227.488C724.373 227.872 725.482 228.064 726.805 228.064C727.103 228.064 727.445 228.043 727.829 228C728.213 227.957 728.618 227.915 729.045 227.872V236C728.405 236.085 727.679 236.171 726.869 236.256C726.058 236.341 725.29 236.384 724.565 236.384Z" fill="#D764FF"/>
<path d="M538.657 247.2H676.331V249.76H538.657V247.2Z" fill="black"/>
<path d="M676.355 247.2H731.157V249.76H676.355V247.2Z" fill="#D764FF"/>
</svg>
